<svg width="16" height="16" viewBox="0 0 16 16" fill="currentcolor" xmlns="http://www.w3.org/2000/svg">
<path d="M13.6443 5.79607L13.8083 5.41874C14.0967 4.75122 14.6248 4.21602 15.2883 3.91874L15.7943 3.69274C15.8557 3.6645 15.9077 3.61925 15.9442 3.56236C15.9806 3.50546 16 3.43931 16 3.37174C16 3.30417 15.9806 3.23801 15.9442 3.18112C15.9077 3.12422 15.8557 3.07897 15.7943 3.05074L15.3163 2.83807C14.6361 2.53232 14.099 1.97732 13.8157 1.2874L13.647 0.88007C13.6222 0.816972 13.579 0.762802 13.523 0.72462C13.467 0.686438 13.4008 0.666016 13.333 0.666016C13.2652 0.666016 13.199 0.686438 13.143 0.72462C13.087 0.762802 13.0438 0.816972 13.019 0.88007L12.8503 1.28674C12.5673 1.97679 12.0305 2.53202 11.3503 2.83807L10.8717 3.0514C10.8105 3.07972 10.7587 3.12496 10.7223 3.18179C10.686 3.23861 10.6667 3.30463 10.6667 3.37207C10.6667 3.43951 10.686 3.50553 10.7223 3.56235C10.7587 3.61917 10.8105 3.66442 10.8717 3.69274L11.3783 3.91807C12.0418 4.21565 12.5696 4.75109 12.8577 5.41874L13.0217 5.79607C13.1417 6.07207 13.5237 6.07207 13.6443 5.79607ZM3.86634 10.6667H5.30234L5.70234 9.66674H7.63034L8.03034 10.6667H9.46634L7.33301 5.3334H5.99967L3.86634 10.6667ZM6.66634 7.25674L7.09701 8.3334H6.23567L6.66634 7.25674ZM9.99967 10.6667V5.3334H11.333V10.6667H9.99967ZM1.99967 2.00007C1.82286 2.00007 1.65329 2.07031 1.52827 2.19533C1.40325 2.32036 1.33301 2.48993 1.33301 2.66674V13.3334C1.33301 13.5102 1.40325 13.6798 1.52827 13.8048C1.65329 13.9298 1.82286 14.0001 1.99967 14.0001H13.9997C14.1765 14.0001 14.3461 13.9298 14.4711 13.8048C14.5961 13.6798 14.6663 13.5102 14.6663 13.3334V7.3334H13.333V12.6667H2.66634V3.3334H9.33301V2.00007H1.99967Z" fill="currentcolor"/>
</svg>
