<svg width="16" height="16" viewBox="0 0 16 16" fill="currentcolor" xmlns="http://www.w3.org/2000/svg">
<path fill-rule="evenodd" clip-rule="evenodd" d="M7.07805 3.08918V12.9106C7.07805 13.2913 6.73277 13.5999 6.30684 13.5999C5.88092 13.5999 5.53564 13.2913 5.53564 12.9106V3.08918C5.53564 2.7085 5.88092 2.3999 6.30684 2.3999C6.73277 2.3999 7.07805 2.7085 7.07805 3.08918ZM3.67961 6.82442V12.9106C3.67961 13.2913 3.33433 13.5999 2.90841 13.5999C2.48249 13.5999 2.13721 13.2913 2.13721 12.9106V6.82442C2.13721 6.44375 2.48249 6.13515 2.90841 6.13515C3.33433 6.13515 3.67961 6.44375 3.67961 6.82442ZM10.4702 12.9106V9.62157C10.4702 9.24089 10.125 8.93229 9.69903 8.93229C9.27311 8.93229 8.92783 9.24089 8.92783 9.62157V12.9106C8.92783 13.2913 9.27311 13.5999 9.69903 13.5999C10.125 13.5999 10.4702 13.2913 10.4702 12.9106ZM13.8621 7.7568V12.9106C13.8621 13.2913 13.5168 13.5999 13.0909 13.5999C12.665 13.5999 12.3197 13.2913 12.3197 12.9106V7.7568C12.3197 7.37613 12.665 7.06753 13.0909 7.06753C13.5168 7.06753 13.8621 7.37613 13.8621 7.7568Z" fill="currentcolor"/>
</svg>
