<svg xmlns="http://www.w3.org/2000/svg" viewBox="0 0 24 24" fill="currentcolor" width="24" height="24">
  <path d="M11.9999 2.40002C6.6999 2.40002 2.3999 6.70002 2.3999 12C2.3999 17.3 6.6999 21.7 11.9999 21.7C17.2999 21.7 21.6999 17.4 21.6999 12C21.6999 6.70002 17.2999 2.40002 11.9999 2.40002ZM11.9999 3.60002C15.7999 3.60002 18.8999 6.10002 19.9999 9.50002L14.4999 11.1C14.1999 10 13.1999 9.30002 11.9999 9.30002C10.7999 9.30002 9.7999 10.1 9.4999 11.1L3.9999 9.50002C5.0999 6.10002 8.1999 3.60002 11.9999 3.60002ZM11.9999 13.3C11.2999 13.3 10.5999 12.7 10.5999 12C10.5999 11.3 11.1999 10.6 11.9999 10.6C12.7999 10.6 13.2999 11.2 13.2999 12C13.2999 12.8 12.6999 13.3 11.9999 13.3ZM3.5999 12C3.5999 11.6 3.5999 11.2 3.6999 10.8L9.3999 12.5C9.5999 13.5 10.3999 14.3 11.2999 14.6V20.4C6.9999 20 3.5999 16.4 3.5999 12ZM12.5999 20.3V14.5C13.5999 14.2 14.3999 13.4 14.4999 12.4L20.1999 10.7C20.2999 11.1 20.2999 11.5 20.2999 11.9C20.2999 16.4 16.9999 20 12.5999 20.3Z" fill="currentcolor"/>
</svg>