<svg width="16" height="16" viewBox="0 0 16 16" fill="currentcolor" xmlns="http://www.w3.org/2000/svg">
<path d="M8.00049 1C9.85623 1.0022 11.6355 1.74052 12.9478 3.05273C14.2599 4.36501 14.9984 6.14421 15.0005 8C15.0005 9.38431 14.5898 10.7376 13.8208 11.8887C13.0517 13.0397 11.9581 13.937 10.6792 14.4668C9.40012 14.9966 7.99214 15.1353 6.63428 14.8652C5.2766 14.5951 4.02917 13.929 3.05029 12.9502C2.07133 11.9712 1.40437 10.7231 1.13428 9.36523C0.864314 8.00757 1.00302 6.60019 1.53271 5.32129C2.0625 4.04229 2.9598 2.94885 4.11084 2.17969C5.26198 1.41052 6.61602 1 8.00049 1ZM6.50049 11C6.10286 11.0004 5.72114 11.1583 5.43994 11.4395C5.15872 11.7207 5.00089 12.1023 5.00049 12.5V13.1885C5.91085 13.72 6.94632 14 8.00049 14C9.05463 13.9999 10.0902 13.72 11.0005 13.1885V12.5C11.0001 12.1023 10.8413 11.7207 10.5601 11.4395C10.2789 11.1585 9.89792 11.0005 9.50049 11H6.50049ZM8.00049 1.9873C6.78507 1.9873 5.59816 2.35653 4.59717 3.0459C3.59613 3.73543 2.82732 4.71294 2.39404 5.84863C1.96079 6.98434 1.883 8.22518 2.17041 9.40625C2.45786 10.5874 3.09768 11.6533 4.00439 12.4629C4.01439 11.8071 4.28169 11.1814 4.74854 10.7207C5.21539 10.2601 5.84468 10.0012 6.50049 10H9.50049C10.1563 10.0013 10.7856 10.2601 11.2524 10.7207C11.7192 11.1814 11.9866 11.8072 11.9966 12.4629C12.9031 11.6533 13.5431 10.5872 13.8306 9.40625C14.118 8.22519 14.0392 6.98433 13.606 5.84863C13.1727 4.71306 12.4048 3.73537 11.4038 3.0459C10.4028 2.35649 9.21592 1.98732 8.00049 1.9873ZM8.00049 4C8.66341 4.00009 9.2993 4.26366 9.76807 4.73242C10.2368 5.20125 10.5005 5.83704 10.5005 6.5C10.5005 6.99442 10.3533 7.47757 10.0786 7.88867C9.80391 8.29979 9.41336 8.62035 8.95654 8.80957C8.49979 8.99871 7.99708 9.0486 7.51221 8.95215C7.02732 8.85566 6.58152 8.61717 6.23193 8.26758C5.88248 7.918 5.64477 7.47211 5.54834 6.9873C5.45198 6.50247 5.50175 5.99967 5.69092 5.54297C5.88015 5.08637 6.19988 4.69551 6.61084 4.4209C7.02196 4.14619 7.50604 4 8.00049 4ZM8.57373 5.11426C8.29974 5.00085 7.99836 4.97144 7.70752 5.0293C7.41666 5.08717 7.14967 5.22979 6.93994 5.43945C6.73023 5.64916 6.58672 5.91617 6.52881 6.20703C6.47093 6.498 6.50121 6.80013 6.61475 7.07422C6.72825 7.34808 6.92005 7.58232 7.1665 7.74707C7.41318 7.91189 7.70382 8 8.00049 8C8.39792 7.99952 8.77895 7.84149 9.06006 7.56055C9.34128 7.27933 9.50009 6.8977 9.50049 6.5C9.50049 6.20346 9.41224 5.91359 9.24756 5.66699C9.08274 5.42032 8.84782 5.22779 8.57373 5.11426Z" fill="currentcolor"/>
</svg>
