<svg width="16" height="16" viewBox="0 0 16 16" fill="none" xmlns="http://www.w3.org/2000/svg">
<path d="M13.3745 12.4652C14.0926 11.6012 14.592 10.577 14.8305 9.47924C15.069 8.38146 15.0396 7.24238 14.7448 6.15836C14.45 5.07434 13.8985 4.07727 13.1368 3.25149C12.3752 2.42571 11.4258 1.79553 10.3691 1.41424C9.31242 1.03296 8.17943 0.911792 7.06598 1.06099C5.95254 1.21019 4.89141 1.62537 3.97236 2.2714C3.05331 2.91744 2.30337 3.77532 1.786 4.77249C1.26862 5.76965 0.999019 6.87676 1 8.00015C1.00038 9.63325 1.57588 11.214 2.6255 12.4652L2.6155 12.4737C2.6505 12.5157 2.6905 12.5517 2.7265 12.5932C2.7715 12.6447 2.82 12.6932 2.8665 12.7432C3.0065 12.8952 3.1505 13.0412 3.3015 13.1782C3.3475 13.2202 3.395 13.2592 3.4415 13.2992C3.6015 13.4372 3.766 13.5682 3.9365 13.6902C3.9585 13.7052 3.9785 13.7247 4.0005 13.7402V13.7342C5.17155 14.5582 6.56855 15.0005 8.0005 15.0005C9.43245 15.0005 10.8295 14.5582 12.0005 13.7342V13.7402C12.0225 13.7247 12.042 13.7052 12.0645 13.6902C12.2345 13.5677 12.3995 13.4372 12.5595 13.2992C12.606 13.2592 12.6535 13.2197 12.6995 13.1782C12.8505 13.0407 12.9945 12.8952 13.1345 12.7432C13.181 12.6932 13.229 12.6447 13.2745 12.5932C13.31 12.5517 13.3505 12.5157 13.3855 12.4732L13.3745 12.4652ZM8 4.00015C8.44501 4.00015 8.88003 4.13211 9.25004 4.37935C9.62005 4.62658 9.90843 4.97798 10.0787 5.38911C10.249 5.80025 10.2936 6.25265 10.2068 6.6891C10.12 7.12556 9.90566 7.52647 9.59099 7.84114C9.27632 8.15581 8.87541 8.3701 8.43896 8.45692C8.0025 8.54374 7.5501 8.49918 7.13897 8.32888C6.72783 8.15858 6.37643 7.8702 6.1292 7.50018C5.88196 7.13017 5.75 6.69516 5.75 6.25015C5.75 5.65341 5.98706 5.08112 6.40901 4.65916C6.83097 4.2372 7.40327 4.00015 8 4.00015ZM4.0035 12.4652C4.01218 11.8086 4.27898 11.1819 4.74618 10.7206C5.21339 10.2593 5.84343 10.0005 6.5 10.0002H9.5C10.1566 10.0005 10.7866 10.2593 11.2538 10.7206C11.721 11.1819 11.9878 11.8086 11.9965 12.4652C10.8999 13.4533 9.47613 14.0002 8 14.0002C6.52387 14.0002 5.10008 13.4533 4.0035 12.4652Z" fill="currentcolor"/>
</svg>
