<svg width="16" height="16" viewBox="0 0 16 16" fill="currentcolor" xmlns="http://www.w3.org/2000/svg">
<path fill-rule="evenodd" clip-rule="evenodd" d="M3.56689 2.00023C3.56689 1.7609 3.7609 1.56689 4.00023 1.56689H12.0002C12.2396 1.56689 12.4336 1.7609 12.4336 2.00023V14.0002C12.4336 14.16 12.3456 14.3069 12.2047 14.3823C12.0638 14.4577 11.8928 14.4494 11.7599 14.3608L8.00023 11.8544L4.2406 14.3608C4.10763 14.4494 3.93666 14.4577 3.79576 14.3823C3.65485 14.3069 3.56689 14.16 3.56689 14.0002V2.00023ZM4.43356 2.43356V13.1905L7.75986 10.973C7.90541 10.876 8.09504 10.876 8.2406 10.973L11.5669 13.1905V2.43356H4.43356Z" fill="currentcolor"/>
</svg>
