<svg width="16" height="16" viewBox="0 0 16 16" fill="none" xmlns="http://www.w3.org/2000/svg">
<path d="M11.7744 9.96875L14.5 10.3643L12.5 12.2861L13 15L10.5 13.7188L8 15L8.5 12.2861L6.5 10.3643L9.2998 9.96875L10.5 7.5L11.7744 9.96875ZM6 1V2H10V1H11V2H13C13.2652 2 13.5195 2.10543 13.707 2.29297C13.8946 2.48051 14 2.73478 14 3V6H13V3H11V4H10V3H6V4H5V3H3V13H5V14H3C2.73478 14 2.48051 13.8946 2.29297 13.707C2.10543 13.5195 2 13.2652 2 13V3C2 2.73478 2.10543 2.48051 2.29297 2.29297C2.48051 2.10543 2.73478 2 3 2H5V1H6Z" fill="currentcolor"/>
</svg>
