<svg width="16" height="16" viewBox="0 0 16 16" fill="none" xmlns="http://www.w3.org/2000/svg">
<path d="M10 2C10.0823 2.00043 10.163 2.02138 10.2354 2.06055C10.3077 2.09975 10.3698 2.15594 10.415 2.22461L11.2695 3.5H14.5C14.6326 3.5 14.7597 3.55272 14.8535 3.64648C14.9473 3.74025 15 3.86739 15 4V12.5C15 12.6326 14.9473 12.7597 14.8535 12.8535C14.7597 12.9473 14.6326 13 14.5 13H1.5C1.36739 13 1.24025 12.9473 1.14648 12.8535C1.05272 12.7597 1 12.6326 1 12.5V4C1 3.86739 1.05272 3.74025 1.14648 3.64648C1.24025 3.55272 1.36739 3.5 1.5 3.5H4.73047L5.58496 2.22461C5.63024 2.15594 5.69234 2.09975 5.76465 2.06055C5.83698 2.02138 5.91774 2.00043 6 2H10ZM5.41504 4.27539C5.36976 4.34406 5.30766 4.40025 5.23535 4.43945C5.16302 4.47862 5.08226 4.49957 5 4.5H2V12H14V4.5H11C10.9177 4.49957 10.837 4.47862 10.7646 4.43945C10.6923 4.40025 10.6302 4.34406 10.585 4.27539L9.73047 3H6.26953L5.41504 4.27539ZM7.41504 5.05762C7.99689 4.94194 8.60035 5.00149 9.14844 5.22852C9.69633 5.45555 10.1646 5.83993 10.4941 6.33301C10.8238 6.82635 11 7.40666 11 8C11 8.79565 10.6837 9.55848 10.1211 10.1211C9.55848 10.6837 8.79565 11 8 11C7.40666 11 6.82635 10.8238 6.33301 10.4941C5.83993 10.1646 5.45555 9.69633 5.22852 9.14844C5.00149 8.60035 4.94194 7.99689 5.05762 7.41504C5.17337 6.8331 5.45935 6.29846 5.87891 5.87891C6.29846 5.45935 6.8331 5.17337 7.41504 5.05762ZM8 6C7.60444 6 7.21757 6.11715 6.88867 6.33691C6.55988 6.55662 6.30372 6.86906 6.15234 7.23438C6.00097 7.59983 5.96092 8.00266 6.03809 8.39062C6.1153 8.77845 6.30632 9.13444 6.58594 9.41406C6.86556 9.69368 7.22155 9.8847 7.60938 9.96191C7.99734 10.0391 8.40017 9.99903 8.76562 9.84766C9.13094 9.69628 9.44338 9.44012 9.66309 9.11133C9.88285 8.78243 10 8.39556 10 8C10 7.46957 9.78913 6.96101 9.41406 6.58594C9.03899 6.21087 8.53043 6 8 6Z" fill="currentcolor"/>
</svg>
