<svg width="16" height="16" viewBox="0 0 16 16" fill="currentcolor" xmlns="http://www.w3.org/2000/svg">
<path fill-rule="evenodd" clip-rule="evenodd" d="M4.83333 2C4.83333 1.72386 5.05719 1.5 5.33333 1.5H10.6667C10.9428 1.5 11.1667 1.72386 11.1667 2V4.13346H13.9335C14.2668 4.13346 14.4668 4.40013 14.4668 4.6668V9.33346C13.9335 8.2668 12.8001 7.53346 11.5335 7.53346C9.73346 7.53346 8.20013 9.00013 8.20013 10.8668C8.20013 12.1335 8.8668 13.2668 9.93346 13.8668H2.00013C1.6668 13.8668 1.4668 13.6001 1.4668 13.3335V4.6668C1.4668 4.40013 1.73346 4.13346 2.00013 4.13346H4.83333V2ZM10.1667 4.13346H5.83333V2.5H10.1667V4.13346ZM14.9333 13.5333L13.6667 12.2667C13.9333 11.8667 14.0667 11.4 14.0667 10.8667C14.0667 9.46667 12.9333 8.33333 11.5333 8.33333C10.1333 8.33333 9 9.46667 9 10.8667C9 12.2667 10.1333 13.4 11.5333 13.4C12.0667 13.4 12.5333 13.2667 12.9333 13L14.2 14.2667L14.9333 13.5333ZM10.0667 10.8667C10.0667 10.0667 10.7333 9.4 11.5333 9.4C12.3333 9.4 13 10.0667 13 10.8667C13 11.6667 12.3333 12.3333 11.5333 12.3333C10.7333 12.3333 10.0667 11.7333 10.0667 10.8667Z" fill="currentcolor"/>
</svg>
