<svg width="16" height="16" viewBox="0 0 16 16" fill="none" xmlns="http://www.w3.org/2000/svg">
<path fill-rule="evenodd" clip-rule="evenodd" d="M11.1334 4.26676H14.0001C14.2668 4.26676 14.4668 4.4001 14.4668 4.66676V13.3334C14.4668 13.6001 14.2668 13.8001 14.0001 13.8001H2.0001C1.8001 13.8001 1.6001 13.6001 1.6001 13.3334V4.66676C1.6001 4.4001 1.73343 4.26676 2.0001 4.26676H4.93343V2.0001C4.93343 1.73343 5.06676 1.6001 5.33343 1.6001H10.6668C10.9334 1.6001 11.1334 1.73343 11.1334 2.0001V4.26676ZM10.2001 2.4001H5.73343V4.2001H10.2001V2.4001ZM10.6668 5.06676H5.33343H2.4001V8.4001C6.0001 10.1334 10.0001 10.1334 13.5334 8.33343V5.06676H10.6668ZM2.4001 9.33343V12.8668H13.5334V9.33343C11.8001 10.1334 9.86676 10.5334 8.0001 10.5334C6.06676 10.5334 4.2001 10.1334 2.4001 9.33343ZM7.74093 8.39508C7.72133 8.38816 7.70504 8.37187 7.6667 8.33353C7.6667 8.3002 7.65003 8.26686 7.63337 8.23353C7.6167 8.2002 7.60003 8.16686 7.60003 8.13353C7.53337 8.13353 7.53337 8.06686 7.53337 8.0002C7.53337 8.0002 7.60003 7.93353 7.60003 7.86686C7.60003 7.83853 7.60003 7.82224 7.60515 7.80776C7.61207 7.78816 7.62836 7.77187 7.6667 7.73353C7.6667 7.73353 7.73337 7.66686 7.80003 7.66686C7.93337 7.6002 8.00003 7.6002 8.13337 7.66686C8.20003 7.66686 8.20003 7.66686 8.2667 7.73353L8.2667 7.73353C8.2667 7.73353 8.33337 7.8002 8.33337 7.86686C8.40003 7.86686 8.40003 7.93353 8.40003 8.0002C8.40003 8.13353 8.33337 8.26686 8.2667 8.33353C8.23097 8.35139 8.20003 8.36925 8.17132 8.38584C8.09285 8.43114 8.03097 8.46686 7.93337 8.46686C7.93337 8.46686 7.8667 8.4002 7.80003 8.4002C7.7717 8.4002 7.75541 8.4002 7.74093 8.39508Z" fill="currentcolor"/>
</svg>
