<svg width="16" height="16" viewBox="0 0 16 16" fill="none" xmlns="http://www.w3.org/2000/svg">
<path fill-rule="evenodd" clip-rule="evenodd" d="M10.1997 2.2002V11.5335C10.1997 12.4002 10.6664 13.1335 11.333 13.4669C11.4664 13.5335 11.3997 13.7335 11.2664 13.7335H4.06637C3.06637 13.7335 2.19971 12.9335 2.19971 11.8669V2.66686C2.19971 2.4002 2.39971 2.26686 2.66637 2.2002H10.1997ZM4.53304 11.1335H8.06637V10.2669H4.53304V11.1335ZM4.53304 8.4002H8.06637V7.53353H4.53304V8.4002ZM4.53304 5.73353H8.06637V4.93353H4.53304V5.73353ZM12.4666 12.8669C11.7333 12.8669 11.1333 12.2669 11.1333 11.5335V3.53353H13.2666C13.5333 3.53353 13.8 3.80019 13.8 4.06686V12.8669H12.4666Z" fill="currentcolor"/>
</svg>
