<svg xmlns="http://www.w3.org/2000/svg" viewBox="0 0 24 24" fill="currentcolor" width="24" height="24">
  <path d="M7.09326 4.5271C11.6594 2.08474 17.5328 3.33571 20.3364 7.43335C23.1797 11.5892 21.6068 16.9096 17.0112 19.3708C14.173 20.9456 10.6496 20.9653 7.63135 19.6794L2.02393 20.8728L3.5835 16.1931C0.989332 12.0787 2.5944 6.93347 7.09326 4.5271ZM8.6001 8.74976C8.24116 8.74981 7.95068 9.04119 7.95068 9.40015V11.7C7.95068 12.0589 8.24116 12.3503 8.6001 12.3503H10.2505V12.5994C10.2505 13.0902 10.1286 13.4404 9.93604 13.6892C9.74402 13.9372 9.43393 14.1465 8.94287 14.2693L8.31201 14.4265L8.62744 15.6882L9.2583 15.53C9.9669 15.3528 10.5565 15.0119 10.9644 14.4851C11.3717 13.9589 11.5503 13.3084 11.5503 12.5994V9.40015C11.5503 9.04116 11.2589 8.74976 10.8999 8.74976H8.6001ZM13.1001 8.74976C12.7412 8.74981 12.4507 9.04119 12.4507 9.40015V11.7C12.4507 12.0589 12.7412 12.3503 13.1001 12.3503H14.7505V12.5994C14.7505 13.0902 14.6286 13.4404 14.436 13.6892C14.244 13.9372 13.9339 14.1465 13.4429 14.2693L12.812 14.4265L13.1274 15.6882L13.7583 15.53C14.4669 15.3528 15.0565 15.0119 15.4644 14.4851C15.8717 13.9589 16.0503 13.3084 16.0503 12.5994V9.40015C16.0503 9.04116 15.7589 8.74976 15.3999 8.74976H13.1001Z" fill="currentcolor"/>
</svg>