<svg xmlns="http://www.w3.org/2000/svg" viewBox="0 0 18 20" fill="currentcolor" width="18" height="20">
  <path fill-rule="evenodd" clip-rule="evenodd" d="M13.5028 3.19557C10.472 0.440381 5.79434 0.71804 3.13454 3.83643C0.510237 6.91319 0.735132 11.3862 3.591 14.0647H13.6881C13.7129 14.043 13.7371 14.0221 13.7597 14.0025L13.7598 14.0024L13.7598 14.0024C13.7975 13.9697 13.8308 13.9409 13.8552 13.919C13.9653 13.8199 14.0436 13.7373 14.0992 13.6541C14.1172 13.627 14.1372 13.6014 14.159 13.5774C16.9014 10.5608 16.5553 5.97058 13.5028 3.19557ZM15.4529 14.0647C18.3426 10.4883 17.7992 5.34451 14.3772 2.23365C10.8079 -1.01115 5.28565 -0.688814 2.14545 2.9928C-0.626282 6.24242 -0.692114 10.8683 1.8303 14.0647H1.63999C1.28101 14.0647 0.98999 14.3557 0.98999 14.7147V18.7147C0.98999 19.0737 1.28101 19.3647 1.63999 19.3647H15.64C15.999 19.3647 16.29 19.0737 16.29 18.7147V14.7147C16.29 14.3557 15.999 14.0647 15.64 14.0647H15.4529ZM3.98999 7.7147C3.98999 5.65571 5.58101 4.0647 7.63999 4.0647H8.28999V5.3647H7.63999C6.29898 5.3647 5.28999 6.37368 5.28999 7.7147V8.3647H3.98999V7.7147ZM2.28999 18.0647V15.3647H14.99V18.0647H2.28999Z" fill="currentcolor"/>
</svg>