<svg width="16" height="16" viewBox="0 0 16 16" fill="none" xmlns="http://www.w3.org/2000/svg">
<path fill-rule="evenodd" clip-rule="evenodd" d="M14.228 2.29812C14.3558 2.37707 14.4336 2.51655 14.4336 2.66673V7.70007H13.5669V3.36788L10.4336 4.93455V8.4334H9.56689V4.93455L6.43356 3.36788V11.0656L9.64827 12.6729L9.26069 13.4481L6.00023 11.8179L2.19402 13.721C2.05969 13.7881 1.90016 13.781 1.77241 13.702C1.64466 13.6231 1.56689 13.4836 1.56689 13.3334V4.66673C1.56689 4.5026 1.65963 4.35255 1.80644 4.27915L5.79862 2.28306C5.85884 2.25135 5.92744 2.2334 6.00023 2.2334C6.00503 2.2334 6.00984 2.23348 6.01465 2.23364C6.08207 2.23584 6.1456 2.25345 6.20183 2.28305L10.0002 4.18225L13.8064 2.27915C13.9408 2.21198 14.1003 2.21916 14.228 2.29812ZM5.56689 11.0656V3.36788L2.43356 4.93455V12.6323L5.56689 11.0656ZM12.4003 9.4334C11.5063 9.4334 10.8336 10.1061 10.8336 11.0001C10.8336 11.2352 10.9251 11.5391 11.1004 11.8896C11.2721 12.233 11.5058 12.5851 11.747 12.9067C11.9829 13.2213 12.2198 13.4985 12.4003 13.6995C12.5807 13.4985 12.8177 13.2213 13.0536 12.9067C13.2948 12.5851 13.5285 12.233 13.7002 11.8896C13.8754 11.5391 13.967 11.2352 13.967 11.0001C13.967 10.1061 13.2943 9.4334 12.4003 9.4334ZM12.0938 14.6397C12.0938 14.6398 12.0939 14.6398 12.4003 14.3334L12.0938 14.6397ZM12.707 14.6395L12.7075 14.639L12.709 14.6375L12.7141 14.6324L12.7325 14.6136C12.7483 14.5975 12.771 14.5741 12.7997 14.5441C12.8569 14.4841 12.938 14.3976 13.0349 14.29C13.2283 14.0751 13.4871 13.7732 13.747 13.4267C14.0058 13.0817 14.2721 12.6838 14.4754 12.2772C14.6751 11.8777 14.8336 11.4316 14.8336 11.0001C14.8336 9.62741 13.7729 8.56673 12.4003 8.56673C11.0276 8.56673 9.96696 9.62741 9.96696 11.0001C9.96696 11.4316 10.1254 11.8777 10.3252 12.2772C10.5285 12.6838 10.7948 13.0817 11.0536 13.4267C11.3135 13.7732 11.5723 14.0751 11.7657 14.29C11.8626 14.3976 11.9437 14.4841 12.0009 14.5441C12.0295 14.5741 12.0523 14.5975 12.0681 14.6136L12.0865 14.6324L12.0916 14.6375L12.0931 14.639L12.0938 14.6397L12.4003 14.9462L12.707 14.6395ZM12.4003 14.3334L12.707 14.6395C12.7069 14.6396 12.7067 14.6398 12.4003 14.3334ZM12 11.4C12.1334 11.4667 12.2667 11.5333 12.4 11.5333C12.5334 11.5333 12.6667 11.5333 12.8667 11.4C12.9334 11.2667 13 11.1333 13 11C13 10.8667 13 10.7333 12.8667 10.6L12.8667 10.6C12.8 10.5333 12.7334 10.4667 12.6667 10.4667C12.5334 10.4 12.3334 10.4 12.2 10.4667C12.1667 10.5 12.1334 10.5167 12.1 10.5333C12.0667 10.55 12.0334 10.5667 12 10.6C11.9334 10.7333 11.8667 10.8667 11.8667 11C11.8667 11.1333 11.8667 11.3333 12 11.4Z" fill="currentcolor"/>
</svg>
