<svg xmlns="http://www.w3.org/2000/svg" viewBox="0 0 20 18" fill="currentcolor" width="20" height="18">
  <path fill-rule="evenodd" clip-rule="evenodd" d="M17.2394 4.88406C14.8431 1.3817 9.71632 0.232531 5.68246 2.39017C1.68178 4.53007 0.456811 9.00728 2.81234 12.45L2.9946 12.7164L1.95178 15.8448L5.74816 15.0371L5.94177 15.1239C8.67908 16.351 11.8613 16.3371 14.3602 14.9488L14.3693 14.9438C18.37 12.8039 19.595 8.32675 17.2394 4.88406ZM5.06931 1.24385C9.63546 -1.1985 15.5087 0.0523314 18.3123 4.14997C21.1559 8.30591 19.5828 13.6266 14.987 16.0877C12.1486 17.6626 8.62526 17.6822 5.60694 16.3962L0 17.5892L1.5596 12.9104C-1.03488 8.79591 0.570316 3.6503 5.06931 1.24385ZM14.0263 7.7666V9.3166C14.0263 10.0257 13.8477 10.6758 13.4403 11.202C13.0323 11.729 12.4428 12.07 11.734 12.2472L11.1034 12.4048L10.7881 11.1437L11.4187 10.986C11.9099 10.8632 12.2203 10.6542 12.4124 10.4062C12.6049 10.1574 12.7263 9.80748 12.7263 9.3166V9.0668H11.0763C10.7173 9.0668 10.4263 8.77578 10.4263 8.4168V6.1168C10.4263 5.75781 10.7173 5.4668 11.0763 5.4668H13.3763C13.7353 5.4668 14.0263 5.75781 14.0263 6.1168V7.7666H14.0263ZM9.52633 9.3166V7.7666H9.52627V6.1168C9.52627 5.75781 9.23525 5.4668 8.87627 5.4668H6.57627C6.21728 5.4668 5.92627 5.75781 5.92627 6.1168V8.4168C5.92627 8.77578 6.21728 9.0668 6.57627 9.0668H8.22633V9.3166C8.22633 9.80748 8.10495 10.1574 7.91236 10.4062C7.72031 10.6542 7.40988 10.8632 6.91868 10.986L6.28809 11.1437L6.60338 12.4048L7.23397 12.2472C7.94278 12.07 8.53234 11.729 8.9403 11.202C9.3477 10.6758 9.52633 10.0257 9.52633 9.3166Z" fill="currentcolor"/>
</svg>