<svg width="16" height="16" viewBox="0 0 16 16" fill="none" xmlns="http://www.w3.org/2000/svg">
<path fill-rule="evenodd" clip-rule="evenodd" d="M8.04035 7.33325L2.66658 1.95947L1.95947 2.66658L7.33325 8.04035L8.04035 7.33325ZM10.3332 6.83317C10.5226 6.83317 10.6957 6.94017 10.7804 7.10956L11.6665 8.88183L13.4154 9.17331C13.6001 9.2041 13.7522 9.33556 13.8093 9.51391C13.8665 9.69227 13.8192 9.88762 13.6867 10.0201L12.5302 11.1766L12.8282 13.2625C12.8545 13.4466 12.7764 13.6301 12.6255 13.7388C12.4747 13.8475 12.2759 13.8636 12.1096 13.7804L10.3332 12.8922L8.55679 13.7804C8.39045 13.8636 8.1917 13.8475 8.04083 13.7388C7.88996 13.6301 7.81191 13.4466 7.83821 13.2625L8.13619 11.1766L6.97963 10.0201C6.84719 9.88762 6.79988 9.69227 6.85704 9.51391C6.91419 9.33556 7.06624 9.2041 7.25098 9.17331L8.99984 8.88183L9.88597 7.10956C9.97067 6.94017 10.1438 6.83317 10.3332 6.83317ZM5.99991 1.95947L9.04035 4.99991L8.33325 5.70702L5.29281 2.66658L5.99991 1.95947ZM5.70702 8.33325L2.66658 5.29281L1.95947 5.99991L4.99991 9.04035L5.70702 8.33325Z" fill="currentcolor"/>
</svg>
