<svg width="16" height="16" viewBox="0 0 16 16" fill="none" xmlns="http://www.w3.org/2000/svg">
<path fill-rule="evenodd" clip-rule="evenodd" d="M5.33333 1.5C5.05719 1.5 4.83333 1.72386 4.83333 2V4.16667H2C1.72386 4.16667 1.5 4.39052 1.5 4.66667V13.3333C1.5 13.6095 1.72386 13.8333 2 13.8333H8.76667V12.8333H2.5V5.16667H5.33333H10.6667H13.5V8.23333H14.5V4.66667C14.5 4.39052 14.2761 4.16667 14 4.16667H11.1667V2C11.1667 1.72386 10.9428 1.5 10.6667 1.5H5.33333ZM10.1667 4.16667V2.5H5.83333V4.16667H10.1667ZM9.0332 10.8665C9.0332 9.53463 10.113 8.36654 11.5332 8.36654C12.9427 8.36654 14.0332 9.45706 14.0332 10.8665C14.0332 11.3853 13.8855 11.8608 13.6285 12.2547L14.9072 13.5334L14.2001 14.2405L12.9214 12.9618C12.5275 13.2188 12.052 13.3665 11.5332 13.3665C10.1237 13.3665 9.0332 12.276 9.0332 10.8665ZM11.5332 9.36654C10.6868 9.36654 10.0332 10.0651 10.0332 10.8665C10.0332 11.7237 10.676 12.3665 11.5332 12.3665C12.3904 12.3665 13.0332 11.7237 13.0332 10.8665C13.0332 10.0093 12.3904 9.36654 11.5332 9.36654Z" fill="currentcolor"/>
</svg>
