<svg width="16" height="16" viewBox="0 0 16 16" fill="currentcolor" xmlns="http://www.w3.org/2000/svg">
<path d="M12.3994 8.5332C13.7327 8.5332 14.8662 9.66693 14.8662 10.9336C14.866 12.3993 12.9354 14.3975 12.7334 14.5996L12.3994 14.9336L12.0664 14.5996C11.8652 14.3318 9.93377 12.3997 9.93359 10.9336C9.93359 9.60038 11.0662 8.53339 12.3994 8.5332ZM5.59961 12.0664L2.2002 13.7334C2.13353 13.8001 2.06667 13.7998 2 13.7998C1.93337 13.7998 1.86644 13.8 1.7998 13.7334C1.66658 13.6001 1.59961 13.4663 1.59961 13.333V4.66699C1.59961 4.53372 1.66658 4.33335 1.7998 4.2666L5.59961 2.40039V12.0664ZM9.59961 3.93359V9.40039C9.33306 9.86695 9.13283 10.4002 9.13281 11C9.13281 11.5333 9.26654 12.067 9.5332 12.667V13.667L6.40039 12.0664V2.40039L9.59961 3.93359ZM12.3994 10C11.8663 10.0002 11.3995 10.4668 11.3994 11C11.3994 11.5332 11.8662 11.9998 12.3994 12C12.9327 12 13.3994 11.5333 13.3994 11C13.3994 10.4 12.9327 10 12.3994 10ZM13.7998 2.2666C13.9331 2.19997 14.0669 2.19995 14.2002 2.2666C14.3335 2.39993 14.4004 2.53366 14.4004 2.66699V8.40039C13.8672 7.93383 13.1336 7.66711 12.4004 7.66699C11.6671 7.66699 11.0003 7.93405 10.4004 8.33398V3.93359L13.7998 2.2666Z" fill="currentcolor"/>
</svg>
