<svg width="16" height="16" viewBox="0 0 16 16" fill="currentcolor" xmlns="http://www.w3.org/2000/svg">
<path fill-rule="evenodd" clip-rule="evenodd" d="M11.1334 4.26676V2.0001C11.1334 1.8001 10.9334 1.6001 10.6668 1.6001H5.33343C5.13343 1.6001 4.93343 1.73343 4.93343 2.0001V4.26676H2.0001C1.73343 4.26676 1.6001 4.4001 1.6001 4.66676V7.93343L1.66676 8.0001C5.66676 10.2668 10.2668 10.2668 14.2668 8.0001L14.4001 7.93343V4.66676C14.4668 4.4001 14.2668 4.26676 14.0001 4.26676H11.1334ZM10.2001 4.26676H5.73343V2.4001H10.2001V4.26676ZM8.33343 8.33343C8.26676 8.4001 8.13343 8.46676 8.0001 8.46676C7.86676 8.46676 7.73343 8.4001 7.66676 8.33343C7.6001 8.26676 7.53343 8.13343 7.53343 8.0001C7.53343 7.86676 7.6001 7.73343 7.66676 7.66676C7.86676 7.46676 8.2001 7.46676 8.4001 7.66676C8.46677 7.73343 8.53343 7.86676 8.53343 8.0001C8.53343 8.13343 8.46676 8.26676 8.33343 8.33343ZM8.0001 10.5335C5.8001 10.5335 3.6001 10.0002 1.6001 8.86686V13.3335C1.6001 13.6002 1.8001 13.8002 2.0001 13.8002H14.0001C14.2668 13.8002 14.4668 13.6002 14.4668 13.3335V8.93353C12.4001 10.0002 10.2001 10.5335 8.0001 10.5335Z" fill="currentcolor"/>
</svg>
