<svg width="16" height="16" viewBox="0 0 16 16" fill="currentcolor" xmlns="http://www.w3.org/2000/svg">
<path d="M8.0001 1.6001C4.46676 1.6001 1.6001 4.46676 1.6001 8.0001C1.6001 11.5334 4.46676 14.4668 8.0001 14.4668C11.5334 14.4668 14.4668 11.6001 14.4668 8.0001C14.4668 4.46676 11.5334 1.6001 8.0001 1.6001ZM8.0001 2.4001C10.5334 2.4001 12.6001 4.06676 13.3334 6.33343L9.66676 7.4001C9.46676 6.66676 8.8001 6.2001 8.0001 6.2001C7.2001 6.2001 6.53343 6.73343 6.33343 7.4001L2.66676 6.33343C3.4001 4.06676 5.46676 2.4001 8.0001 2.4001ZM8.0001 8.86676C7.53343 8.86676 7.06676 8.46676 7.06676 8.0001C7.06676 7.53343 7.46676 7.06676 8.0001 7.06676C8.53343 7.06676 8.86676 7.46676 8.86676 8.0001C8.86676 8.53343 8.46676 8.86676 8.0001 8.86676ZM2.4001 8.0001C2.4001 7.73343 2.4001 7.46676 2.46676 7.2001L6.26676 8.33343C6.4001 9.0001 6.93343 9.53343 7.53343 9.73343V13.6001C4.66676 13.3334 2.4001 10.9334 2.4001 8.0001ZM8.4001 13.5334V9.66676C9.06677 9.46676 9.6001 8.93343 9.66676 8.26676L13.4668 7.13343C13.5334 7.4001 13.5334 7.66676 13.5334 7.93343C13.5334 10.9334 11.3334 13.3334 8.4001 13.5334Z" fill="currentcolor"/>
</svg>
