<svg xmlns="http://www.w3.org/2000/svg" viewBox="0 0 24 24" fill="currentcolor" width="24" height="24">
  <path fill-rule="evenodd" clip-rule="evenodd" d="M15.2998 3.30005V17.3C15.2998 18.6 15.9998 19.7001 16.9998 20.2001C17.1998 20.3001 17.0998 20.6 16.8998 20.6H6.0998C4.5998 20.6 3.2998 19.4 3.2998 17.8V4.00005C3.2998 3.60005 3.5998 3.40005 3.9998 3.30005H15.2998ZM6.7998 16.7001H12.0998V15.4H6.7998V16.7001ZM6.7998 12.6H12.0998V11.3H6.7998V12.6ZM6.7998 8.60005H12.0998V7.40005H6.7998V8.60005ZM18.7002 19.3C17.6002 19.3 16.7002 18.4 16.7002 17.3V5.30005H19.9002C20.3002 5.30005 20.7002 5.70005 20.7002 6.10005V19.3H18.7002Z" fill="currentcolor"/>
</svg>