<svg width="16" height="16" viewBox="0 0 16 16" fill="none" xmlns="http://www.w3.org/2000/svg">
<path d="M14 3C14.2652 3 14.5195 3.10543 14.707 3.29297C14.8946 3.48051 15 3.73478 15 4V12C15 12.2652 14.8946 12.5195 14.707 12.707C14.5195 12.8946 14.2652 13 14 13H2C1.73478 13 1.48051 12.8946 1.29297 12.707C1.10543 12.5195 1 12.2652 1 12V4C1 3.73478 1.10543 3.48051 1.29297 3.29297C1.48051 3.10543 1.73478 3 2 3H14ZM2 12H14V4H2V12ZM7.5 6.5H5V9.5H7.5V10.5H5C4.73478 10.5 4.48051 10.3946 4.29297 10.207C4.10543 10.0195 4 9.76522 4 9.5V6.5C4 6.23478 4.10543 5.98051 4.29297 5.79297C4.48051 5.60543 4.73478 5.5 5 5.5H7.5V6.5ZM12.5 6.5H10V9.5H12.5V10.5H10C9.73478 10.5 9.48051 10.3946 9.29297 10.207C9.10543 10.0195 9 9.76522 9 9.5V6.5C9 6.23478 9.10543 5.98051 9.29297 5.79297C9.48051 5.60543 9.73478 5.5 10 5.5H12.5V6.5Z" fill="currentcolor"/>
</svg>
