<svg width="16" height="16" viewBox="0 0 16 16" fill="none" xmlns="http://www.w3.org/2000/svg">
<path fill-rule="evenodd" clip-rule="evenodd" d="M14.5944 13.3621L2.29085 1.05859L1.58375 1.76569L13.8873 14.0692L14.5944 13.3621ZM13.1999 10.7001C13.5999 10.2001 13.8999 9.60015 13.8999 9.00015V5.90015C13.8999 4.50015 12.6999 3.30015 11.2999 3.30015H5.6999L4.8999 2.40015H11.2999C13.1999 2.40015 14.7999 4.00015 14.7999 5.90015V9.00015C14.7999 9.90015 14.4999 10.7001 13.7999 11.4001L13.1999 10.7001ZM5.19971 14.5002C5.39971 14.6002 5.49971 14.6002 5.69971 14.6002C5.89971 14.6002 6.09971 14.5002 6.29971 14.4002L9.29971 12.5002H11.1997L10.2997 11.6002H9.09971C9.04971 11.6002 9.02471 11.6252 8.99971 11.6502C8.97471 11.6752 8.94971 11.7002 8.89971 11.7002L5.59971 13.8002V12.0002C5.59971 11.8002 5.39971 11.6002 5.19971 11.6002H4.69971C3.29971 11.6002 2.09971 10.4002 2.09971 9.00016V5.90016C2.09971 5.30016 2.39971 4.60016 2.79971 4.10016L2.19971 3.50016C1.49971 4.20016 1.19971 5.00016 1.19971 5.90016V9.00016C1.19971 10.9002 2.69971 12.5002 4.59971 12.5002H4.69971V13.6002C4.69971 14.0002 4.89971 14.3002 5.19971 14.5002Z" fill="currentcolor"/>
</svg>
