<svg width="16" height="16" viewBox="0 0 16 16" fill="none" xmlns="http://www.w3.org/2000/svg">
<path fill-rule="evenodd" clip-rule="evenodd" d="M4.69517 1.7666C2.80352 1.7666 1.2666 3.30352 1.2666 5.19517V8.27204C1.2666 10.1637 2.80352 11.7006 4.69517 11.7006H4.75927V13.7259C4.75927 13.9005 4.85485 14.0612 5.00835 14.1445C5.16184 14.2279 5.34865 14.2206 5.49514 14.1255L9.22982 11.7006H11.2647C13.1564 11.7006 14.6933 10.1637 14.6933 8.27204V5.19517C14.6933 3.30352 13.1564 1.7666 11.2647 1.7666H4.69517ZM2.21946 5.19517C2.21946 3.82977 3.32977 2.71946 4.69517 2.71946H11.2647C12.6301 2.71946 13.7404 3.82977 13.7404 5.19517V8.27204C13.7404 9.63744 12.6301 10.7477 11.2647 10.7477H9.08872C8.99663 10.7477 8.90651 10.7744 8.82927 10.8246L5.71213 12.8485V11.2242C5.71213 10.961 5.49882 10.7477 5.2357 10.7477H4.69517C3.32977 10.7477 2.21946 9.63744 2.21946 8.27204V5.19517Z" fill="currentcolor"/>
</svg>
