<svg width="16" height="16" viewBox="0 0 16 16" fill="currentcolor" xmlns="http://www.w3.org/2000/svg">
<path d="M14 4C14.2652 4 14.5195 4.10543 14.707 4.29297C14.8946 4.48051 15 4.73478 15 5V14C15 14.2652 14.8946 14.5195 14.707 14.707C14.5195 14.8946 14.2652 15 14 15H5C4.73478 15 4.48051 14.8946 4.29297 14.707C4.10543 14.5195 4 14.2652 4 14V5C4 4.73478 4.10543 4.48051 4.29297 4.29297C4.48051 4.10543 4.73478 4 5 4H14ZM5 5V14H14V5H5ZM9 2H2V9H1V2C1 1.73478 1.10543 1.48051 1.29297 1.29297C1.48051 1.10543 1.73478 1 2 1H9V2Z" fill="currentcolor"/>
</svg>
