<svg width="18" height="18" viewBox="0 0 18 18" fill="none" xmlns="http://www.w3.org/2000/svg">
<path d="M12.5 2C12.7652 2 13.0195 2.10543 13.207 2.29297C13.3946 2.48051 13.5 2.73478 13.5 3V15C13.5 15.2652 13.3946 15.5195 13.207 15.707C13.0195 15.8946 12.7652 16 12.5 16H5.5C5.23478 16 4.98051 15.8946 4.79297 15.707C4.60543 15.5195 4.5 15.2652 4.5 15V3C4.5 2.73478 4.60543 2.48051 4.79297 2.29297C4.98051 2.10543 5.23478 2 5.5 2H12.5ZM5.5 13V15H12.5V13H5.5ZM9.5 14.5H8.5V13.5H9.5V14.5ZM5.5 3V12H12.5V3H5.5Z" fill="currentcolor"/>
</svg>
