<svg width="16" height="16" viewBox="0 0 16 16" fill="currentcolor" xmlns="http://www.w3.org/2000/svg">
<path fill-rule="evenodd" clip-rule="evenodd" d="M13.3489 7.31553L9.07927 11.94L10.9992 7.31553H13.3489ZM14.5572 6.92706C14.5735 6.72057 14.521 6.50893 14.3982 6.3284L12.0667 2.90813C11.8927 2.65279 11.6036 2.50014 11.2948 2.50014H8.80483C8.79781 2.49996 8.79078 2.49995 8.78373 2.50014H7.223C7.21595 2.49995 7.20892 2.49996 7.2019 2.50014H4.71204C4.40331 2.50014 4.11416 2.65279 3.94019 2.90813L1.60894 6.32806C1.48313 6.51301 1.43086 6.73097 1.45096 6.94223C1.46955 7.13993 1.55114 7.33284 1.69443 7.48793L7.31663 13.5773C7.45585 13.7286 7.6339 13.8231 7.81943 13.8603L7.82125 13.8607C7.94152 13.8843 8.06536 13.8843 8.18563 13.8607L8.18746 13.8603C8.37283 13.8231 8.55058 13.729 8.68978 13.5778L8.69024 13.5773L14.3122 7.48816C14.4517 7.33728 14.5327 7.15022 14.5543 6.9583C14.5556 6.948 14.5566 6.93758 14.5572 6.92706ZM13.5104 6.49063H10.9826L9.45212 3.32503H11.2948C11.331 3.32503 11.3648 3.34299 11.385 3.37258L13.5104 6.49063ZM10.0663 6.49063L8.53588 3.32503H7.47085L5.94041 6.49063H10.0663ZM5.90067 7.31553L8.00337 12.3801L10.1061 7.31553H5.90067ZM5.0075 7.31553L6.92734 11.9397L2.65798 7.31553H5.0075ZM5.02417 6.49063L6.55461 3.32503H4.71204C4.67588 3.32503 4.64201 3.34308 4.62186 3.37267L2.49644 6.49063H5.02417Z" fill="currentcolor"/>
</svg>
