<svg width="16" height="16" viewBox="0 0 16 16" fill="currentcolor" xmlns="http://www.w3.org/2000/svg">
<path d="M12.85 4.65018L9.35 1.15018C9.306 1.10132 9.25192 1.06261 9.19149 1.03671C9.13106 1.01081 9.06572 0.998345 9 1.00018H4C3.73503 1.00097 3.48113 1.10658 3.29377 1.29394C3.1064 1.48131 3.00079 1.7352 3 2.00018V14.0002C3.00079 14.2651 3.1064 14.519 3.29377 14.7064C3.48113 14.8938 3.73503 14.9994 4 15.0002H12C12.265 14.9994 12.5189 14.8938 12.7062 14.7064C12.8936 14.519 12.9992 14.2651 13 14.0002V5.00018C13.0018 4.93446 12.9894 4.86912 12.9635 4.80869C12.9376 4.74826 12.8989 4.69417 12.85 4.65018ZM9 2.20018L11.8 5.00018H9V2.20018ZM12 14.0002H4V2.00018H8V5.00018C8.00079 5.26515 8.1064 5.51904 8.29377 5.70641C8.48113 5.89377 8.73503 5.99939 9 6.00018H12V14.0002Z" fill="currentcolor"/>
</svg>
