<svg width="16" height="16" viewBox="0 0 16 16" fill="none" xmlns="http://www.w3.org/2000/svg">
<path fill-rule="evenodd" clip-rule="evenodd" d="M12.6021 1.5498C12.1115 1.5498 11.641 1.74464 11.2941 2.09146L5.68445 7.68111C5.59972 7.76555 5.55208 7.88025 5.55208 7.99988V9.99988C5.55208 10.2484 5.75356 10.4499 6.00208 10.4499H8.00208C8.12171 10.4499 8.23641 10.4022 8.32085 10.3175L13.9106 4.70775C14.2574 4.36083 14.4522 3.89039 14.4522 3.39988C14.4522 2.90921 14.2572 2.43863 13.9103 2.09168C13.5633 1.74472 13.0928 1.5498 12.6021 1.5498ZM11.9303 2.72807C12.1085 2.5499 12.3501 2.4498 12.6021 2.4498C12.8541 2.4498 13.0957 2.5499 13.2739 2.72807C13.4521 2.90625 13.5522 3.1479 13.5522 3.39988C13.5522 3.65185 13.4521 3.89351 13.2739 4.07168L7.81522 9.54988H6.45208V8.18674L11.9297 2.72864L11.9303 2.72807ZM4.00208 4.21654C3.52911 4.21654 3.07552 4.40443 2.74108 4.73887C2.40664 5.07331 2.21875 5.52691 2.21875 5.99988V11.9999C2.21875 12.4728 2.40664 12.9264 2.74108 13.2609C3.07552 13.5953 3.52911 13.7832 4.00208 13.7832H10.0021C10.4751 13.7832 10.9287 13.5953 11.2631 13.2609C11.5975 12.9264 11.7854 12.4728 11.7854 11.9999V11.3332C11.7854 11.0847 11.5839 10.8832 11.3354 10.8832C11.0869 10.8832 10.8854 11.0847 10.8854 11.3332V11.9999C10.8854 12.2342 10.7924 12.4588 10.6267 12.6245C10.461 12.7901 10.2364 12.8832 10.0021 12.8832H4.00208C3.76781 12.8832 3.54313 12.7901 3.37747 12.6245C3.21182 12.4588 3.11875 12.2342 3.11875 11.9999V5.99988C3.11875 5.7656 3.21182 5.54092 3.37747 5.37527C3.54313 5.20961 3.76781 5.11654 4.00208 5.11654H4.66875C4.91728 5.11654 5.11875 4.91507 5.11875 4.66654C5.11875 4.41801 4.91728 4.21654 4.66875 4.21654H4.00208Z" fill="currentcolor"/>
</svg>
