<svg width="16" height="16" viewBox="0 0 16 16" fill="none" xmlns="http://www.w3.org/2000/svg">
<path d="M8.13477 1.06445C12.0008 1.06445 15.1348 4.19847 15.1348 8.06445C15.1348 11.9304 12.0008 15.0645 8.13477 15.0645C4.26877 15.0645 1.13477 11.9304 1.13477 8.06445C1.13478 4.19847 4.26878 1.06445 8.13477 1.06445ZM8.14648 10.5146C8.00103 10.4857 7.84991 10.4999 7.71289 10.5566C7.57585 10.6134 7.45839 10.7097 7.37598 10.833C7.29357 10.9563 7.25 11.1017 7.25 11.25C7.25 11.4489 7.32907 11.6396 7.46973 11.7803C7.61038 11.9209 7.80109 12 8 12C8.14834 12 8.29366 11.9564 8.41699 11.874C8.54032 11.7916 8.6366 11.6741 8.69336 11.5371C8.7501 11.4001 8.76429 11.249 8.73535 11.1035C8.70639 10.9581 8.63511 10.8246 8.53027 10.7197C8.42543 10.6149 8.29189 10.5436 8.14648 10.5146ZM7.33301 4V9H8.66699V4H7.33301Z" fill="currentcolor"/>
</svg>
