<svg width="16" height="16" viewBox="0 0 16 16" fill="none" xmlns="http://www.w3.org/2000/svg">
<path d="M6.63375 1.13473C7.99159 0.864635 9.39961 1.0024 10.6787 1.53219C11.9577 2.06196 13.0511 2.95929 13.8203 4.11031C14.5894 5.26146 15 6.61549 15 7.99996C14.9999 9.85641 14.2619 11.6365 12.9492 12.9492C11.6365 14.2619 9.85641 14.9999 7.99996 15C6.61549 15 5.26146 14.5894 4.11031 13.8203C2.95929 13.0511 2.06196 11.9577 1.53219 10.6787C1.0024 9.39961 0.864635 7.99159 1.13473 6.63375C1.40488 5.27607 2.07091 4.02862 3.04976 3.04976C4.02862 2.07091 5.27607 1.40488 6.63375 1.13473ZM7.99996 1.99996C6.81327 1.99996 5.65267 2.35141 4.66598 3.0107C3.67935 3.66999 2.91109 4.60776 2.45699 5.70406C2.00297 6.80025 1.8838 8.00618 2.11519 9.16988C2.34668 10.3336 2.91785 11.4031 3.7568 12.2421C4.59588 13.0812 5.66523 13.6532 6.82906 13.8847C7.99295 14.1162 9.1995 13.9971 10.2959 13.5429C11.3922 13.0888 12.329 12.3197 12.9882 11.333C13.6475 10.3463 13.9999 9.18659 14 7.99996C14 6.40866 13.3674 4.88201 12.2421 3.7568C11.117 2.63182 9.59105 2.00001 7.99996 1.99996ZM8.14644 10.5146C8.29177 10.5436 8.42544 10.6149 8.53023 10.7197C8.63503 10.8245 8.70639 10.9581 8.73531 11.1035C8.76425 11.249 8.74911 11.4 8.69234 11.5371C8.63556 11.674 8.53921 11.7907 8.41598 11.873C8.29272 11.9553 8.14817 11.9999 7.99996 12C7.80113 12 7.61032 11.9208 7.46969 11.7802C7.32908 11.6396 7.25001 11.4488 7.24996 11.25C7.24996 11.1016 7.29353 10.9563 7.37594 10.833C7.45835 10.7096 7.57581 10.6134 7.71285 10.5566C7.84985 10.4999 8.00102 10.4857 8.14644 10.5146ZM8.66598 8.99996H7.33297V3.99996H8.66598V8.99996Z" fill="currentcolor"/>
</svg>
