<svg width="16" height="16" viewBox="0 0 16 16" fill="none" xmlns="http://www.w3.org/2000/svg">
<path fill-rule="evenodd" clip-rule="evenodd" d="M7.17235 2.80858C7.21385 2.76707 7.27015 2.74375 7.32885 2.74375H13.3708C13.4295 2.74375 13.4858 2.76707 13.5273 2.80858C13.5688 2.85008 13.5921 2.90638 13.5921 2.96508V8.59197L12.3463 7.34618C12.262 7.26179 12.1475 7.21438 12.0281 7.21438H7.32885C7.27015 7.21438 7.21385 7.19106 7.17235 7.14955C7.13084 7.10805 7.10752 7.05175 7.10752 6.99305V6.33042C7.10757 6.32754 7.1076 6.32464 7.1076 6.32174C7.1076 6.31885 7.10757 6.31595 7.10752 6.31307V2.96508C7.10752 2.90638 7.13084 2.85008 7.17235 2.80858ZM6.20752 5.87174V2.96508C6.20752 2.66768 6.32566 2.38247 6.53595 2.17218C6.74624 1.96189 7.03145 1.84375 7.32885 1.84375H13.3708C13.6682 1.84375 13.9534 1.96189 14.1637 2.17218C14.374 2.38247 14.4921 2.66768 14.4921 2.96508V9.67837C14.4921 9.86037 14.3825 10.0245 14.2143 10.0941C14.0462 10.1638 13.8526 10.1253 13.7239 9.99656L11.8418 8.11438H9.79292V11.021C9.79292 11.3184 9.67478 11.6037 9.46449 11.8139C9.2542 12.0242 8.96898 12.1424 8.67159 12.1424H4.15868L2.2765 14.0246C2.1478 14.1533 1.95425 14.1918 1.78609 14.1221C1.61794 14.0525 1.5083 13.8884 1.5083 13.7064V6.99307C1.5083 6.69568 1.62644 6.41046 1.83673 6.20017C2.04702 5.98988 2.33223 5.87174 2.62963 5.87174H6.20752ZM6.20752 6.77174H2.62963C2.57093 6.77174 2.51463 6.79506 2.47313 6.83657C2.43162 6.87808 2.4083 6.93437 2.4083 6.99307V12.62L3.65409 11.3742C3.73848 11.2898 3.85294 11.2424 3.97229 11.2424H8.67159C8.73029 11.2424 8.78658 11.2191 8.82809 11.1775C8.8696 11.136 8.89292 11.0797 8.89292 11.021V8.11438H7.32885C7.03145 8.11438 6.74624 7.99624 6.53595 7.78595C6.32566 7.57566 6.20752 7.29045 6.20752 6.99305V6.77174Z" fill="currentcolor"/>
</svg>
