<svg width="16" height="16" viewBox="0 0 16 16" fill="currentcolor" xmlns="http://www.w3.org/2000/svg">
<path fill-rule="evenodd" clip-rule="evenodd" d="M13.687 3.64652L11.3334 1.29297L10.6263 2.00008L12.1263 3.50008H6C3.52386 3.50008 1.5 5.52394 1.5 8.00008C1.5 10.4762 3.52386 12.5001 6 12.5001H6.5V11.5001H6C4.07614 11.5001 2.5 9.92394 2.5 8.00008C2.5 6.07622 4.07614 4.50008 6 4.50008H12.1263L10.6263 6.00008L11.3334 6.70718L13.687 4.35363C13.8822 4.15837 13.8822 3.84178 13.687 3.64652ZM9.10007 8.90007V13.7667H8.2334V8.90007H9.10007ZM10.6665 8.90007C10.4272 8.90007 10.2332 9.09408 10.2332 9.3334V11.3334C10.2332 11.5727 10.4272 11.7667 10.6665 11.7667H11.6665C11.9605 11.7667 12.2332 12.0394 12.2332 12.3334C12.2332 12.6274 11.9605 12.9001 11.6665 12.9001H10.1999V13.7667H11.6665C12.4392 13.7667 13.0999 13.1061 13.0999 12.3334C13.0999 11.5607 12.4392 10.9001 11.6665 10.9001H11.0999V9.76673H12.9332V8.90007H10.6665Z" fill="currentcolor"/>
</svg>
