<svg width="16" height="16" viewBox="0 0 16 16" fill="none" xmlns="http://www.w3.org/2000/svg">
<path d="M13 4.72791H11.619C11.9421 4.24685 12.0666 3.65941 11.9663 3.08864C11.866 2.51787 11.5488 2.00804 11.081 1.66596C10.6132 1.32388 10.0312 1.17609 9.45686 1.25353C8.88254 1.33097 8.36047 1.62764 8 2.08141C7.63953 1.62764 7.11746 1.33097 6.54314 1.25353C5.96882 1.17609 5.38681 1.32388 4.91903 1.66596C4.45125 2.00804 4.13398 2.51787 4.03369 3.08864C3.93339 3.65941 4.05786 4.24685 4.381 4.72791H3C2.73486 4.72817 2.48066 4.83361 2.29319 5.02109C2.10571 5.20857 2.00026 5.46277 2 5.72791V7.72791C2.00026 7.99304 2.10571 8.24724 2.29319 8.43472C2.48066 8.6222 2.73486 8.72764 3 8.72791V13.7279C3.00026 13.993 3.10571 14.2472 3.29319 14.4347C3.48066 14.6222 3.73486 14.7276 4 14.7279H12C12.2651 14.7276 12.5193 14.6222 12.7068 14.4347C12.8943 14.2472 12.9997 13.993 13 13.7279V8.72791C13.2651 8.72764 13.5193 8.6222 13.7068 8.43472C13.8943 8.24724 13.9997 7.99304 14 7.72791V5.72791C13.9997 5.46277 13.8943 5.20857 13.7068 5.02109C13.5193 4.83361 13.2651 4.72817 13 4.72791ZM8.5 3.47791C8.5 3.23068 8.57331 2.98901 8.71066 2.78344C8.84801 2.57788 9.04324 2.41767 9.27165 2.32306C9.50005 2.22845 9.75139 2.20369 9.99386 2.25193C10.2363 2.30016 10.4591 2.41921 10.6339 2.59402C10.8087 2.76884 10.9278 2.99157 10.976 3.23404C11.0242 3.47652 10.9995 3.72785 10.9048 3.95626C10.8102 4.18467 10.65 4.37989 10.4445 4.51724C10.2389 4.6546 9.99723 4.72791 9.75 4.72791H8.5V3.47791ZM6.25 2.22791C6.5814 2.2283 6.89911 2.36013 7.13345 2.59446C7.36778 2.8288 7.4996 3.14651 7.5 3.47791V4.72791H6.25C5.91848 4.72791 5.60054 4.59621 5.36612 4.36179C5.1317 4.12737 5 3.80943 5 3.47791C5 3.14639 5.1317 2.82844 5.36612 2.59402C5.60054 2.3596 5.91848 2.22791 6.25 2.22791ZM3 5.72791H7.5V7.72791H3V5.72791ZM4 8.72791H7.5V13.7279H4V8.72791ZM12.0005 13.7279H8.5V8.72791H12L12.0005 13.7279ZM8.5 7.72791V5.72791H13L13.0005 7.72791H8.5Z" fill="currentcolor"/>
</svg>
