<svg xmlns="http://www.w3.org/2000/svg" viewBox="0 0 24 24" fill="currentcolor" width="24" height="24">
  <path fill-rule="evenodd" clip-rule="evenodd" d="M17.1168 21.223C16.9704 21.2388 16.8219 21.2468 16.6716 21.2468H16.2381C15.5997 21.2468 15.0823 20.7293 15.0823 20.091V13.0595C15.0823 12.5197 15.4523 12.0663 15.9527 11.9392C15.4523 12.0662 15.0822 12.5197 15.0822 13.0595V20.091C15.0822 20.7293 15.5996 21.2468 16.238 21.2468H16.6715C16.8218 21.2468 16.9704 21.2388 17.1168 21.223ZM19.8982 13.4139C19.8982 13.4139 19.8983 13.4139 19.8983 13.414V11.9037C19.8983 7.54154 16.3621 4.00534 12 4.00534C11.4269 4.00534 10.868 4.06639 10.3295 4.18233C10.868 4.0664 11.4268 4.00536 11.9999 4.00536C16.362 4.00536 19.8982 7.54157 19.8982 11.9037V13.4139ZM4.10165 13.4139V13.414C4.61901 12.8143 5.2816 12.3592 6.02997 12.1121C5.32894 12.3435 4.70318 12.7575 4.20156 13.3019C4.16768 13.3386 4.13438 13.376 4.10165 13.4139ZM7.93778 21.2335C7.88042 21.2423 7.82167 21.2468 7.76185 21.2468H7.32841C4.90797 21.2468 2.9458 19.1553 2.9458 16.5752L2.94585 16.5547V16.552L2.94587 16.5498L2.94604 16.5271H2.94594V16.5271L2.94577 16.5498L2.94575 16.552V16.5547L2.9457 16.5753L2.94594 16.6242C2.97055 19.1817 4.92318 21.2468 7.32831 21.2468H7.76176C7.8216 21.2468 7.88039 21.2423 7.93778 21.2335ZM2.9458 13.8237L2.9457 11.9037C2.9457 7.66742 5.85504 4.11067 9.78466 3.12246C5.85509 4.1107 2.9458 7.66743 2.9458 11.9037V13.8237ZM21.1541 16.7234H21.1519C21.0785 19.2844 19.1063 21.3468 16.6715 21.3468H16.238C15.5444 21.3468 14.9822 20.7846 14.9822 20.091V13.0595C14.9822 12.366 15.5444 11.8037 16.238 11.8037H16.6715C17.8886 11.8037 18.9915 12.3201 19.7982 13.1561V11.9037C19.7982 7.5968 16.3068 4.10536 11.9999 4.10536C7.69299 4.10536 4.20156 7.5968 4.20156 11.9037V13.1561C5.00831 12.3201 6.11113 11.8037 7.32831 11.8037H7.76176C8.45535 11.8037 9.01761 12.366 9.01761 13.0595V20.091C9.01761 20.7846 8.45535 21.3468 7.76176 21.3468H7.32831C4.86305 21.3468 2.8718 19.2325 2.8457 16.6271V11.9037C2.8457 6.84798 6.94417 2.74951 11.9999 2.74951C17.0556 2.74951 21.1541 6.84798 21.1541 11.9037V16.7234Z" fill="currentcolor"/>
</svg>