<svg width="16" height="16" viewBox="0 0 16 16" fill="currentcolor" xmlns="http://www.w3.org/2000/svg">
<path fill-rule="evenodd" clip-rule="evenodd" d="M1.96379 11.0181V11.0181L1.96364 11.0502L1.96379 11.0823C1.97995 12.7875 3.2818 14.1646 4.88538 14.1646H5.17434C5.24002 14.1646 5.30378 14.1563 5.36464 14.1409C5.30379 14.1563 5.24006 14.1645 5.17441 14.1645H4.88544C3.27181 14.1645 1.9637 12.7702 1.9637 11.0502L1.96386 11.0181H1.96379ZM1.9637 9.25552V7.93578C1.9637 5.11162 3.90323 2.74047 6.52295 2.08164C3.9032 2.74044 1.96364 5.11162 1.96364 7.9358L1.9637 9.25552ZM14.0359 11.0823H14.0358C14.0266 12.0553 13.5988 12.9214 12.9351 13.4859C13.5988 12.9214 14.0267 12.0553 14.0359 11.0823V11.0823ZM11.6994 14.1021C11.5103 14.143 11.3146 14.1645 11.1142 14.1645H10.8252C10.3997 14.1645 10.0547 13.8195 10.0547 13.394V8.70635C10.0547 8.34645 10.3014 8.04418 10.6349 7.95946C10.3014 8.04416 10.0546 8.34644 10.0546 8.70636V13.394C10.0546 13.8196 10.3996 14.1646 10.8252 14.1646H11.1141C11.3146 14.1646 11.5103 14.143 11.6994 14.1021ZM13.2653 8.94257C13.2653 8.9426 13.2654 8.94262 13.2654 8.94265V7.93578C13.2654 5.02769 10.9079 2.67023 7.99982 2.67023C7.55536 2.67023 7.12377 2.72529 6.71148 2.82898C7.12375 2.72531 7.55532 2.67024 7.99976 2.67024C10.9078 2.67024 13.2653 5.02771 13.2653 7.9358V8.94257ZM2.73427 8.94259V8.94265C3.07734 8.54498 3.51621 8.24269 4.01187 8.07737C3.54773 8.23216 3.13339 8.50705 2.80087 8.8679C2.77829 8.8924 2.75609 8.9173 2.73427 8.94259ZM4.88538 14.2312C3.24187 14.2312 1.91454 12.8217 1.89715 11.0847L1.89697 7.9358C1.89697 4.56532 4.62928 1.83301 7.99976 1.83301C11.3702 1.83301 14.1025 4.56532 14.1025 7.9358V11.149H14.1011C14.0522 12.8563 12.7373 14.2312 11.1141 14.2312H10.8252C10.3628 14.2312 9.98794 13.8564 9.98794 13.394V8.70636C9.98794 8.24397 10.3628 7.86913 10.8252 7.86913H11.1141C11.9256 7.86913 12.6608 8.21337 13.1986 8.77073V7.9358C13.1986 5.06453 10.871 2.73691 7.99976 2.73691C5.1285 2.73691 2.80087 5.06453 2.80087 7.9358V8.77073C3.33871 8.21337 4.07392 7.86913 4.88538 7.86913H5.17434C5.63673 7.86913 6.01158 8.24397 6.01158 8.70636V13.394C6.01158 13.8564 5.63673 14.2312 5.17434 14.2312H4.88538ZM11.1141 8.77303C12.2162 8.77303 13.1986 9.74181 13.1986 11.0502C13.1986 12.3585 12.2162 13.3273 11.1141 13.3273H10.8918V8.77303H11.1141ZM4.88538 13.3273C3.78329 13.3273 2.80087 12.3585 2.80087 11.0502C2.80087 9.74181 3.78329 8.77303 4.88538 8.77303H5.10768V13.3273H4.88538ZM13.2653 11.0502C13.2653 9.70864 12.2566 8.70636 11.1141 8.70636H10.8252V8.70635H11.1142C12.2567 8.70635 13.2654 9.70862 13.2654 11.0502C13.2654 12.0773 12.6741 12.9055 11.8841 13.2374C12.674 12.9055 13.2653 12.0773 13.2653 11.0502ZM5.17434 13.394H5.17441V8.70635H4.88544C4.72143 8.70635 4.56017 8.727 4.40426 8.76636C4.56015 8.72702 4.72139 8.70636 4.88538 8.70636H5.17434V13.394Z" fill="currentcolor"/>
</svg>
