<svg width="16" height="16" viewBox="0 0 16 16" fill="currentcolor" xmlns="http://www.w3.org/2000/svg">
<path fill-rule="evenodd" clip-rule="evenodd" d="M11.411 14.1487C11.3134 14.1592 11.2144 14.1645 11.1142 14.1645H10.8252C10.3997 14.1645 10.0547 13.8195 10.0547 13.394V8.70635C10.0547 8.34645 10.3014 8.04418 10.6349 7.95946C10.3014 8.04416 10.0546 8.34644 10.0546 8.70636V13.394C10.0546 13.8196 10.3996 14.1646 10.8252 14.1646H11.1141C11.2144 14.1646 11.3134 14.1592 11.411 14.1487ZM13.2653 8.94258C13.2653 8.9426 13.2654 8.94263 13.2654 8.94265V7.93578C13.2654 5.02769 10.9079 2.67023 7.99982 2.67023C7.61774 2.67023 7.24516 2.71092 6.88619 2.78822C7.24514 2.71093 7.6177 2.67024 7.99976 2.67024C10.9078 2.67024 13.2653 5.02771 13.2653 7.9358V8.94258ZM2.73427 8.94259V8.94265C3.07918 8.54286 3.5209 8.23946 4.01982 8.07473C3.55246 8.22903 3.13529 8.505 2.80087 8.8679C2.77829 8.8924 2.75609 8.91731 2.73427 8.94259ZM5.29169 14.1557C5.25345 14.1615 5.21428 14.1645 5.17441 14.1645H4.88544C3.27181 14.1645 1.9637 12.7702 1.9637 11.0502L1.96374 11.0364V11.0347L1.96375 11.0332L1.96386 11.0181H1.9638V11.0181L1.96369 11.0332L1.96367 11.0347V11.0365L1.96364 11.0502L1.9638 11.0828C1.9802 12.7878 3.28196 14.1646 4.88538 14.1646H5.17434C5.21424 14.1646 5.25343 14.1615 5.29169 14.1557ZM1.9637 9.2158L1.96364 7.9358C1.96364 5.11161 3.90319 2.74044 6.52295 2.08164C3.90323 2.74047 1.9637 5.11162 1.9637 7.93578V9.2158ZM14.1025 11.149H14.1011C14.0521 12.8563 12.7373 14.2312 11.1141 14.2312H10.8252C10.3628 14.2312 9.98794 13.8564 9.98794 13.394V8.70636C9.98794 8.24397 10.3628 7.86913 10.8252 7.86913H11.1141C11.9256 7.86913 12.6608 8.21337 13.1986 8.77073V7.9358C13.1986 5.06453 10.871 2.73691 7.99976 2.73691C5.12849 2.73691 2.80087 5.06453 2.80087 7.9358V8.77073C3.33871 8.21337 4.07392 7.86913 4.88538 7.86913H5.17434C5.63674 7.86913 6.01158 8.24397 6.01158 8.70636V13.394C6.01158 13.8564 5.63674 14.2312 5.17434 14.2312H4.88538C3.24187 14.2312 1.91437 12.8217 1.89697 11.0847V7.9358C1.89697 4.56532 4.62928 1.83301 7.99976 1.83301C11.3702 1.83301 14.1025 4.56532 14.1025 7.9358V11.149Z" fill="currentcolor"/>
</svg>
