<svg width="16" height="16" viewBox="0 0 16 16" fill="currentcolor" xmlns="http://www.w3.org/2000/svg">
<path d="M8.00049 1C9.85673 1.00009 11.6371 1.73733 12.9497 3.0498C14.2625 4.36256 15.0005 6.14348 15.0005 8C15.0005 9.38431 14.5898 10.7376 13.8208 11.8887C13.0517 13.0397 11.9581 13.937 10.6792 14.4668C9.40012 14.9966 7.99214 15.1353 6.63428 14.8652C5.2766 14.5951 4.02917 13.929 3.05029 12.9502C2.07133 11.9712 1.40437 10.7231 1.13428 9.36523C0.864314 8.00757 1.00302 6.60019 1.53271 5.32129C2.0625 4.04229 2.9598 2.94885 4.11084 2.17969C5.26198 1.41052 6.61602 1 8.00049 1ZM10.2964 2.45703C9.20003 2.00291 7.99348 1.88372 6.82959 2.11523C5.66571 2.34675 4.59644 2.9187 3.75732 3.75781C2.91848 4.59678 2.34726 5.66552 2.11572 6.8291C1.88423 7.99288 2.00252 9.19962 2.45654 10.2959C2.91067 11.3923 3.67981 12.33 4.6665 12.9893C5.65319 13.6485 6.81382 14 8.00049 14C9.59167 13.9999 11.1175 13.3673 12.2427 12.2422C13.3678 11.117 14.0005 9.59122 14.0005 8C14.0005 6.81339 13.648 5.65365 12.9888 4.66699C12.3295 3.68036 11.3926 2.91117 10.2964 2.45703ZM8.00049 11C8.41455 11.0002 8.75049 11.3359 8.75049 11.75C8.75049 12.1641 8.41455 12.4998 8.00049 12.5C7.58627 12.5 7.25049 12.1642 7.25049 11.75C7.25049 11.3358 7.58627 11 8.00049 11ZM8.50049 4C9.09711 4.00009 9.66943 4.2373 10.0913 4.65918C10.5132 5.08112 10.7505 5.65334 10.7505 6.25C10.7505 6.84666 10.5132 7.41888 10.0913 7.84082C9.66943 8.2627 9.09711 8.49991 8.50049 8.5V9.75H7.50049V7.5H8.50049C8.83189 7.49991 9.14993 7.36813 9.38428 7.13379C9.61859 6.89938 9.75049 6.58144 9.75049 6.25C9.75049 5.91856 9.6186 5.60061 9.38428 5.36621C9.14993 5.13187 8.83189 5.00009 8.50049 5H7.75049C7.41905 5 7.1011 5.13189 6.8667 5.36621C6.63228 5.60063 6.50049 5.91848 6.50049 6.25V6.5H5.50049V6.25C5.49983 5.95445 5.55765 5.66187 5.67041 5.38867C5.78325 5.11539 5.94865 4.86629 6.15771 4.65723C6.36671 4.44828 6.61503 4.28273 6.88818 4.16992C7.16146 4.05708 7.45483 3.99934 7.75049 4H8.50049Z" fill="currentcolor"/>
</svg>
