<svg width="16" height="16" viewBox="0 0 16 16" fill="currentcolor" xmlns="http://www.w3.org/2000/svg">
<path d="M15.0005 1.70508L12.6001 4.11035C13.899 5.04385 14.8969 6.33677 15.4702 7.83008C15.5099 7.93985 15.5099 8.06015 15.4702 8.16992C14.8822 9.69105 13.8612 11.0068 12.5337 11.9541C11.2062 12.9013 9.63006 13.4386 8.00049 13.5C6.68268 13.4785 5.39231 13.1169 4.25537 12.4502L1.70459 15L1.00049 14.2949L14.2954 1L15.0005 1.70508ZM10.4448 6.26465C10.8456 6.84232 11.031 7.54287 10.9683 8.24316C10.9055 8.94343 10.5982 9.59953 10.1011 10.0967C9.60406 10.5936 8.9485 10.9 8.24854 10.9629C7.54832 11.0257 6.84765 10.8411 6.27002 10.4404L5.00049 11.71C5.92234 12.2105 6.95166 12.4817 8.00049 12.5C10.6503 12.4998 13.4504 10.5348 14.4653 8C13.9249 6.71782 13.0275 5.61756 11.8804 4.83008L10.4448 6.26465ZM7.99951 2.5C8.95339 2.51142 9.89631 2.7085 10.7749 3.08008L9.99951 3.86035C9.35722 3.6312 8.68139 3.50918 7.99951 3.5C5.34959 3.50014 2.54963 5.46509 1.53467 8C1.93662 8.97226 2.55168 9.84201 3.33447 10.5449L2.61963 11.2549C1.68991 10.4054 0.973885 9.34837 0.529785 8.16992C0.490103 8.06011 0.490103 7.93989 0.529785 7.83008C1.11787 6.3089 2.13872 4.99316 3.46631 4.0459C4.79382 3.09869 6.36987 2.56134 7.99951 2.5ZM7.00049 9.71973C7.30346 9.8946 7.64676 9.98768 7.99658 9.98828C8.34664 9.98881 8.69094 9.89677 8.99463 9.72266C9.29829 9.54855 9.55164 9.29844 9.72803 8.99609C9.90442 8.69373 9.99838 8.35005 10.0005 8C9.99683 7.64786 9.89993 7.30284 9.72021 7L7.00049 9.71973ZM7.2085 5.11035C7.71473 4.97353 8.24826 4.97194 8.75537 5.10547L7.8501 6.01465C7.37095 6.04942 6.92026 6.25601 6.58057 6.5957C6.24091 6.93539 6.03526 7.38612 6.00049 7.86523L5.09033 8.76953C4.95692 8.26258 4.95847 7.7297 5.09521 7.22363C5.23203 6.71742 5.49886 6.25556 5.86963 5.88477C6.24044 5.51396 6.70226 5.24718 7.2085 5.11035Z" fill="currentcolor"/>
</svg>
