<svg width="16" height="16" viewBox="0 0 16 16" fill="none" xmlns="http://www.w3.org/2000/svg">
<path d="M11.3332 9.33334H8.43921C8.12468 10.223 7.50578 10.9727 6.6919 11.4502C5.87802 11.9276 4.92155 12.102 3.99156 11.9424C3.06157 11.7828 2.21792 11.2996 1.60973 10.5782C1.00154 9.8568 0.667969 8.94359 0.667969 8.00001C0.667969 7.05643 1.00154 6.14322 1.60973 5.42179C2.21792 4.70037 3.06157 4.21718 3.99156 4.05761C4.92155 3.89805 5.87802 4.0724 6.6919 4.54983C7.50578 5.02727 8.12468 5.77706 8.43921 6.66667H15.3332V9.33334H13.9999V12H11.3332V9.33334ZM4.66654 9.33334C5.02016 9.33334 5.3593 9.19287 5.60935 8.94282C5.8594 8.69277 5.99987 8.35363 5.99987 8.00001C5.99987 7.64639 5.8594 7.30725 5.60935 7.0572C5.3593 6.80715 5.02016 6.66667 4.66654 6.66667C4.31292 6.66667 3.97378 6.80715 3.72373 7.0572C3.47368 7.30725 3.3332 7.64639 3.3332 8.00001C3.3332 8.35363 3.47368 8.69277 3.72373 8.94282C3.97378 9.19287 4.31292 9.33334 4.66654 9.33334Z" fill="currentcolor"/>
</svg>
