<svg width="16" height="16" viewBox="0 0 16 16" fill="currentcolor" xmlns="http://www.w3.org/2000/svg">
<path d="M13.5013 11.6674H9.83379V9.83369H8.79466C8.12229 11.3007 6.59416 12.2787 4.94379 12.2787C2.55991 12.2787 0.665039 10.3838 0.665039 7.99994C0.665039 5.61607 2.55991 3.72119 4.94379 3.72119C6.59416 3.72119 8.12229 4.69919 8.79466 6.16619H15.335V9.83369H13.5013V11.6674ZM11.0563 10.4449H12.2788V8.61119H14.1125V7.38869H7.93891L7.81666 6.96082C7.38879 5.73832 6.22741 4.94369 4.94379 4.94369C3.23229 4.94369 1.88754 6.28844 1.88754 7.99994C1.88754 9.71144 3.23229 11.0562 4.94379 11.0562C6.22741 11.0562 7.38879 10.2616 7.81666 9.03907L7.93891 8.61119H11.0563V10.4449ZM4.94379 9.83369C3.90466 9.83369 3.11004 9.03907 3.11004 7.99994C3.11004 6.96082 3.90466 6.16619 4.94379 6.16619C5.98291 6.16619 6.77754 6.96082 6.77754 7.99994C6.77754 9.03907 5.98291 9.83369 4.94379 9.83369ZM4.94379 7.38869C4.57704 7.38869 4.33254 7.63319 4.33254 7.99994C4.33254 8.36669 4.57704 8.61119 4.94379 8.61119C5.31054 8.61119 5.55504 8.36669 5.55504 7.99994C5.55504 7.63319 5.31054 7.38869 4.94379 7.38869Z" fill="currentcolor"/>
</svg>
