<svg width="16" height="16" viewBox="0 0 16 16" fill="currentcolor" xmlns="http://www.w3.org/2000/svg">
<path d="M3.54658 2.19337V4.27149C4.09067 3.61997 4.7716 3.09642 5.54072 2.73731C6.30989 2.37825 7.1489 2.19214 7.99775 2.19337C9.53772 2.19337 11.0153 2.80562 12.1042 3.89454C13.193 4.98343 13.8044 6.46016 13.8044 8.00001C13.8044 9.53985 13.193 11.0166 12.1042 12.1055C11.0153 13.1944 9.53772 13.8066 7.99775 13.8066C7.83457 13.8066 7.67026 13.7996 7.50947 13.7861L7.58466 12.8857C7.72069 12.8971 7.85958 12.9033 7.99775 12.9033C8.8216 12.9033 9.63273 12.6958 10.3552 12.2998C11.0775 11.9039 11.6884 11.3321 12.1315 10.6377C12.5747 9.94312 12.8356 9.14729 12.8903 8.3252C12.945 7.50324 12.7922 6.68066 12.445 5.9336C12.0978 5.18648 11.5676 4.53903 10.904 4.05079C10.2405 3.56261 9.46464 3.24882 8.64814 3.13965C7.83149 3.03053 6.9997 3.12988 6.23115 3.42676C5.4628 3.72365 4.78178 4.20925 4.25068 4.83887H6.19208V5.74219H3.64326C3.09111 5.74213 2.6434 5.29432 2.64326 4.74219V2.19337H3.54658ZM5.99091 12.8018C6.05489 12.649 6.23095 12.5784 6.3874 12.6328C6.43854 12.6506 6.48998 12.6675 6.54169 12.6836C6.6998 12.7327 6.79951 12.8939 6.76044 13.0547L6.68818 13.3496C6.64888 13.5104 6.48638 13.6098 6.32783 13.5625C6.23057 13.5333 6.13338 13.5011 6.03779 13.4668C5.88216 13.4108 5.81013 13.2347 5.87373 13.082L5.99091 12.8018ZM4.61689 11.9551C4.72456 11.8292 4.91338 11.8152 5.0456 11.915C5.08928 11.948 5.13367 11.9802 5.17841 12.0117C5.31366 12.107 5.35783 12.2907 5.27119 12.4316L5.11201 12.6904C5.02497 12.8313 4.83915 12.8754 4.70283 12.7813C4.61963 12.7238 4.53782 12.6642 4.45771 12.6025C4.32654 12.5015 4.31212 12.3115 4.41962 12.1856L4.61689 11.9551ZM3.56708 10.7285C3.70801 10.6415 3.89251 10.686 3.98798 10.8213C4.01945 10.8659 4.05173 10.9105 4.08466 10.9541C4.18436 11.0862 4.17036 11.2751 4.04462 11.3828L3.81416 11.5801C3.68829 11.6877 3.49828 11.6732 3.39716 11.542C3.33543 11.4619 3.27595 11.3801 3.21845 11.2969C3.12423 11.1605 3.16824 10.9747 3.30927 10.8877L3.56708 10.7285ZM2.94404 9.24024C3.10476 9.20104 3.26582 9.30011 3.31513 9.45801C3.33129 9.50997 3.349 9.5619 3.36689 9.61329C3.42129 9.76968 3.34968 9.94478 3.19697 10.0088L2.91767 10.126C2.76486 10.19 2.58793 10.1188 2.53193 9.9629C2.49758 9.86726 2.46644 9.77018 2.4372 9.67286C2.38978 9.51435 2.4884 9.35192 2.64912 9.31251L2.94404 9.24024ZM8.4333 4.667V7.74512L11.0876 9.24219L10.6667 10L7.90986 8.44532C7.69822 8.32774 7.56611 8.10442 7.56611 7.86231V4.667H8.4333ZM2.8874 8.00001C3.00179 8.00001 3.09457 8.09372 3.09931 8.20801C3.10391 8.32211 3.01974 8.42104 2.90595 8.43067L2.45576 8.46876C2.32116 8.47985 2.20259 8.38011 2.19697 8.24512C2.19158 8.1103 2.3013 8.00026 2.43623 8.00001H2.8874Z" fill="currentcolor"/>
</svg>
