<svg width="16" height="16" viewBox="0 0 16 16" fill="currentcolor" xmlns="http://www.w3.org/2000/svg">
<path d="M7.25928 4.00049C7.94527 4.00052 8.60331 4.29342 9.08838 4.81494C9.57326 5.33637 9.84609 6.04343 9.84619 6.78076C9.84619 7.51828 9.57339 8.22602 9.08838 8.74756L8.17725 9.72705L7.56689 9.0708L8.47803 8.07764C8.63865 7.90474 8.76573 7.69921 8.85205 7.47314C8.93838 7.24706 8.98227 7.00465 8.98096 6.76025C8.98539 6.51667 8.94402 6.27455 8.85986 6.04834C8.77569 5.82212 8.6502 5.61598 8.49072 5.44287C8.33106 5.27046 8.14108 5.13393 7.93213 5.04053C7.723 4.94709 7.49845 4.89893 7.27197 4.89893C7.04553 4.89894 6.82092 4.9471 6.61182 5.04053C6.40289 5.13395 6.21286 5.27046 6.05322 5.44287L2.61475 9.14014C2.45423 9.31191 2.32666 9.51685 2.23975 9.7417C2.15292 9.96643 2.10792 10.2073 2.10791 10.4507C2.10791 10.6942 2.15283 10.9358 2.23975 11.1606C2.32665 11.3853 2.45433 11.5896 2.61475 11.7612C2.77444 11.9337 2.96435 12.0702 3.17334 12.1636C3.38247 12.257 3.60702 12.3052 3.8335 12.3052C4.05981 12.3051 4.28368 12.2569 4.49268 12.1636C4.70181 12.0701 4.89248 11.9338 5.05225 11.7612L5.6626 12.4175C5.17337 12.9391 4.51175 13.2316 3.82275 13.231C3.13972 13.2401 2.48122 12.957 1.9917 12.4448C1.75061 12.1871 1.55878 11.8809 1.42822 11.5435C1.29766 11.206 1.23096 10.8435 1.23096 10.478C1.23101 10.1127 1.29772 9.75092 1.42822 9.41357C1.55878 9.07609 1.75061 8.76991 1.9917 8.51221L5.43018 4.81494C5.91527 4.29339 6.57325 4.00049 7.25928 4.00049ZM12.1821 2.76904C12.5216 2.76908 12.8578 2.84131 13.1714 2.98096C13.4851 3.12069 13.7705 3.32539 14.0103 3.5835C14.4947 4.10137 14.7674 4.80493 14.769 5.53857C14.7706 6.272 14.501 6.97637 14.019 7.49658L10.5776 11.188C10.3367 11.4468 10.0501 11.6521 9.73486 11.7915C9.41965 11.9309 9.08165 12.002 8.74072 12.0005C8.05687 12.0047 7.39927 11.7171 6.9126 11.2017C6.67206 10.9445 6.48131 10.6387 6.35107 10.3022C6.22085 9.96576 6.15381 9.60505 6.15381 9.24072C6.15381 8.87638 6.22084 8.51569 6.35107 8.1792C6.48131 7.84273 6.67205 7.53697 6.9126 7.27979L7.52393 6.62451L8.13037 7.27979L7.52393 7.93506C7.20108 8.282 7.01962 8.75246 7.02002 9.24268C7.0205 9.73279 7.20253 10.2031 7.52588 10.5493C7.84926 10.8954 8.2878 11.0898 8.74463 11.0894C9.20154 11.0889 9.6396 10.8933 9.9624 10.5464L13.4038 6.85498C13.5637 6.68337 13.6902 6.47951 13.7769 6.25537C13.8635 6.03102 13.9087 5.79019 13.9087 5.54736C13.9087 5.30446 13.8635 5.06378 13.7769 4.83936C13.6902 4.61495 13.5639 4.41053 13.4038 4.23877C13.2437 4.06699 13.0535 3.93037 12.8442 3.8374C12.635 3.74444 12.4105 3.69678 12.1841 3.69678C11.9576 3.69678 11.7331 3.74444 11.5239 3.8374C11.3147 3.93037 11.1245 4.06698 10.9644 4.23877L10.354 3.5835C10.5937 3.32554 10.8784 3.12066 11.1919 2.98096C11.5056 2.84122 11.8425 2.76904 12.1821 2.76904Z" fill="currentcolor"/>
</svg>
