<svg width="16" height="16" viewBox="0 0 16 16" fill="none" xmlns="http://www.w3.org/2000/svg">
<path d="M8 1C9.45869 1 10.8572 1.57988 11.8887 2.61133C12.9201 3.64278 13.5 5.04131 13.5 6.5C13.5017 7.69107 13.1128 8.85015 12.3926 9.79883L12.3916 9.7998C12.3883 9.80413 12.2424 9.99669 12.2197 10.0234L8 15L3.78223 10.0254C3.72363 9.95072 3.66577 9.87542 3.6084 9.7998C2.88789 8.8507 2.49825 7.69161 2.5 6.5C2.5 5.04131 3.07988 3.64278 4.11133 2.61133C5.14278 1.57988 6.54131 1 8 1ZM8 2C6.80653 2 5.66227 2.47445 4.81836 3.31836C3.97445 4.16227 3.5 5.30653 3.5 6.5C3.49895 7.47411 3.81716 8.42148 4.40625 9.19727C4.40873 9.19925 4.52348 9.35198 4.5498 9.38477L8 13.4541L11.4551 9.37891C11.477 9.35147 11.5917 9.20013 11.5947 9.19629C12.1833 8.42085 12.5012 7.47352 12.5 6.5C12.5 5.30653 12.0256 4.16227 11.1816 3.31836C10.3377 2.47445 9.19347 2 8 2ZM7.5127 4.04785C7.99751 3.9515 8.50035 4.00127 8.95703 4.19043C9.41371 4.37967 9.80446 4.7003 10.0791 5.11133C10.3536 5.52237 10.5 6.00569 10.5 6.5C10.4992 7.1628 10.2353 7.79793 9.7666 8.2666C9.29793 8.73527 8.6628 8.99921 8 9C7.5057 9 7.02237 8.85365 6.61133 8.5791C6.2003 8.30446 5.87967 7.91371 5.69043 7.45703C5.50127 7.00035 5.45151 6.49751 5.54785 6.0127C5.64431 5.52774 5.88279 5.08205 6.23242 4.73242C6.58205 4.38279 7.02774 4.14431 7.5127 4.04785ZM8 5C7.7034 5 7.41363 5.08818 7.16699 5.25293C6.92038 5.41771 6.7278 5.65177 6.61426 5.92578C6.50073 6.19987 6.47142 6.502 6.5293 6.79297C6.58723 7.08378 6.72977 7.35087 6.93945 7.56055C7.14913 7.77022 7.41622 7.91277 7.70703 7.9707C7.998 8.02858 8.30013 7.99927 8.57422 7.88574C8.84823 7.7722 9.08229 7.57963 9.24707 7.33301C9.41182 7.08637 9.5 6.7966 9.5 6.5C9.4996 6.1023 9.34177 5.72067 9.06055 5.43945C8.77933 5.15824 8.3977 5.0004 8 5Z" fill="currentcolor"/>
</svg>
