<svg width="16" height="16" viewBox="0 0 16 16" fill="currentcolor" xmlns="http://www.w3.org/2000/svg">
<path d="M8 1.5C8.83985 1.5 9.64539 1.83387 10.2393 2.42773C10.833 3.02158 11.167 3.82722 11.167 4.66699V6.83301H11.333C11.8192 6.83301 12.2861 7.0263 12.6299 7.37012C12.9737 7.71393 13.167 8.18076 13.167 8.66699V12.667C13.1669 13.153 12.9735 13.6192 12.6299 13.9629C12.2861 14.3067 11.8192 14.5 11.333 14.5H4.66699C4.18076 14.5 3.71393 14.3067 3.37012 13.9629C3.02648 13.6192 2.83309 13.153 2.83301 12.667V8.66699C2.83301 8.18076 3.0263 7.71393 3.37012 7.37012C3.71393 7.0263 4.18076 6.83301 4.66699 6.83301H4.83301V4.66699C4.83301 3.82722 5.16698 3.02158 5.76074 2.42773C6.35461 1.83387 7.16015 1.5 8 1.5ZM8 9C7.73478 9 7.48051 9.10543 7.29297 9.29297C7.10543 9.48051 7 9.73478 7 10C7 10.2652 7.10543 10.5195 7.29297 10.707C7.35521 10.7693 7.42508 10.8219 7.5 10.8652V12.333H8.5V10.8652C8.57492 10.8219 8.64479 10.7693 8.70703 10.707C8.89457 10.5195 9 10.2652 9 10C9 9.73478 8.89457 9.48051 8.70703 9.29297C8.51949 9.10543 8.26522 9 8 9ZM8 2.5C7.42536 2.5 6.8741 2.72844 6.46777 3.13477C6.06155 3.54108 5.83301 4.09243 5.83301 4.66699V6.83301H10.167V4.66699C10.167 4.09243 9.93845 3.54108 9.53223 3.13477C9.1259 2.72844 8.57464 2.5 8 2.5Z" fill="currentcolor"/>
</svg>
