<svg width="16" height="16" viewBox="0 0 16 16" fill="currentcolor" xmlns="http://www.w3.org/2000/svg">
<path fill-rule="evenodd" clip-rule="evenodd" d="M2.6665 2.1665C2.39036 2.1665 2.1665 2.39036 2.1665 2.6665V13.3332C2.1665 13.6093 2.39036 13.8332 2.6665 13.8332H9.99984C10.276 13.8332 10.4998 13.6093 10.4998 13.3332V10.4998H9.49984V12.8332H3.1665V3.1665H9.49984V5.49984H10.4998V2.6665C10.4998 2.39036 10.276 2.1665 9.99984 2.1665H2.6665ZM12.3886 5.611C12.3792 5.60162 12.3665 5.59635 12.3533 5.59635C12.34 5.59635 12.3273 5.60162 12.3179 5.611L11.6108 6.31811C11.5913 6.33763 11.5913 6.36929 11.6108 6.38882L12.6719 7.44991H5.99971C5.97209 7.44991 5.94971 7.47229 5.94971 7.49991V8.49991C5.94971 8.52752 5.97209 8.54991 5.99971 8.54991H12.6719L11.6108 9.611C11.5913 9.63053 11.5913 9.66218 11.6108 9.68171L12.3179 10.3888C12.3273 10.3982 12.34 10.4035 12.3533 10.4035C12.3666 10.4035 12.3793 10.3982 12.3887 10.3888L14.3887 8.38882L14.3894 8.38805C14.4392 8.33809 14.4798 8.27812 14.5078 8.21038C14.593 8.00486 14.5459 7.7683 14.3886 7.611L12.3886 5.611Z" fill="currentcolor"/>
</svg>
