<svg width="16" height="16" viewBox="0 0 16 16" fill="none" xmlns="http://www.w3.org/2000/svg">
<path fill-rule="evenodd" clip-rule="evenodd" d="M10.0008 5.68896H10.0021L14.6668 7.243V8.12646L10.0184 9.71891L8.368 14.6668H7.67594L5.98779 9.72607L1.3335 8.18506V7.29443L5.97152 5.70524L7.42725 1.3335H8.50863L10.0008 5.68896ZM6.8055 6.53337L3.31136 7.72998L6.81592 8.89079L8.01383 12.3973L9.18311 8.89079L12.6812 7.69222L9.17399 6.52295L7.97477 3.0249L6.8055 6.53337Z" fill="#0064CF"/>
<path d="M3.61735 12.0933L4.49691 14.6655H3.38363L2.79053 12.9298L1.3335 12.4474V11.3368L3.61735 12.0933Z" fill="#0064CF"/>
<path d="M5.29118 10.5627L6.69287 14.6655H5.57959L4.46305 11.3986L1.3335 10.3628V9.25342L5.29118 10.5627Z" fill="#0064CF"/>
<path d="M14.6655 10.2261L11.6981 11.2417L10.5568 14.6655H9.44678L10.8641 10.4149L14.6655 9.11279V10.2261Z" fill="#0064CF"/>
<path d="M14.6655 12.4272L13.243 12.9142L12.6597 14.6655H11.549L12.409 12.0874L14.6655 11.3133V12.4272Z" fill="#0064CF"/>
<path d="M5.03076 4.98519L1.3335 6.25081V5.13753L4.19548 4.15706L5.13623 1.3335H6.24691L5.03076 4.98519Z" fill="#0064CF"/>
<path d="M11.5841 4.04769L14.6655 5.07308V6.18376L10.756 4.88167L9.53857 1.3335H10.6538L11.5841 4.04769Z" fill="#0064CF"/>
<path d="M4.2098 1.3335L3.29248 3.43571L1.3335 4.10758V2.9943L2.51253 2.59001L3.06006 1.3335H4.2098Z" fill="#0064CF"/>
<path d="M13.2007 2.46566L14.6655 2.95329V4.06396L12.3726 3.29964L11.6981 1.3335H12.8114L13.2007 2.46566Z" fill="#0064CF"/>
</svg>
