<svg width="16" height="16" viewBox="0 0 16 16" fill="none" xmlns="http://www.w3.org/2000/svg">
<path d="M10.001 5.68945H10.002L14.667 7.24316V8.12695L10.0186 9.71875L8.36816 14.667H7.67578L5.9873 9.72559L1.33301 8.18555V7.29395L5.97168 5.70508L7.42676 1.33301H8.50879L10.001 5.68945ZM3.61719 12.0928L4.49609 14.665H3.38281L2.79102 12.9297L1.33301 12.4473V11.3369L3.61719 12.0928ZM5.29102 10.5625L6.69238 14.665H5.5791L4.46289 11.3984L1.33301 10.3623V9.25293L5.29102 10.5625ZM14.665 10.2266L11.6982 11.2412L10.5566 14.665H9.44629L10.8643 10.415L14.665 9.1123V10.2266ZM14.665 12.4268L13.2432 12.9141L12.6592 14.665H11.5488L12.4092 12.0869L14.665 11.3135V12.4268ZM6.80566 6.5332L3.31152 7.73047L6.81543 8.89062L8.01367 12.3975L9.18262 8.89062L12.6816 7.69238L9.17383 6.52344L7.97461 3.02441L6.80566 6.5332ZM5.03027 4.98535L1.33301 6.25098V5.1377L4.19531 4.15723L5.13574 1.33301H6.24609L5.03027 4.98535ZM11.584 4.04785L14.665 5.07324V6.18359L10.7559 4.88184L9.53809 1.33301H10.6533L11.584 4.04785ZM4.20996 1.33301L3.29199 3.43555L1.33301 4.10742V2.99414L2.5127 2.58984L3.05957 1.33301H4.20996ZM13.2002 2.46582L14.665 2.95312V4.06348L12.3721 3.2998L11.6982 1.33301H12.8115L13.2002 2.46582Z" fill="#C8FA31"/>
</svg>
