<svg width="16" height="16" viewBox="0 0 16 16" fill="none" xmlns="http://www.w3.org/2000/svg">
<path fill-rule="evenodd" clip-rule="evenodd" d="M2.2334 2.66673C2.2334 2.42741 2.42741 2.2334 2.66673 2.2334H10.6667C10.9061 2.2334 11.1001 2.42741 11.1001 2.66673V3.56673H13.2001C13.3637 3.56673 13.4855 3.64179 13.5321 3.67284C13.5624 3.69307 13.5869 3.71266 13.6039 3.7273C13.6127 3.73482 13.6201 3.74154 13.6261 3.74708L13.634 3.75459L13.6372 3.75768L13.6385 3.75906L13.6392 3.7597C13.6393 3.75978 13.6398 3.76032 13.3334 4.06673L13.6398 3.76032C13.7211 3.84158 13.7667 3.9518 13.7667 4.06673V13.2001C13.7667 13.3637 13.6917 13.4855 13.6606 13.5321C13.6404 13.5624 13.6208 13.5869 13.6062 13.6039L13.5985 13.6128C13.594 13.6178 13.59 13.6223 13.5864 13.6261L13.5789 13.634L13.5758 13.6372L13.5744 13.6385L13.5738 13.6392C13.5737 13.6393 13.5731 13.6398 13.2667 13.3334L13.5731 13.6398C13.4919 13.7211 13.3817 13.7667 13.2667 13.7667H12.4667H4.1334C3.09407 13.7667 2.2334 12.9061 2.2334 11.8667V2.66673ZM11.1001 11.5334L11.1001 4.4334H12.9001V12.9001H12.4667C11.7061 12.9001 11.1001 12.2941 11.1001 11.5334ZM10.2334 3.10007V4.06673V11.5334C10.2334 12.0495 10.4058 12.5231 10.6965 12.9001H4.1334C3.57272 12.9001 3.10007 12.4274 3.10007 11.8667V3.10007H10.2334ZM8.4334 4.90007H4.90007V5.76673H8.4334V4.90007ZM4.90007 7.56673H8.4334V8.4334H4.90007V7.56673ZM8.4334 10.2334H4.90007V11.1001H8.4334V10.2334Z" fill="currentcolor"/>
</svg>
