<svg xmlns="http://www.w3.org/2000/svg" viewBox="0 0 24 24" fill="currentcolor" width="24" height="24">
  <path fill-rule="evenodd" clip-rule="evenodd" d="M7.6501 15.3501V4.6501H16.3501V15.3501H16.0001H8.0001H7.6501ZM6.3501 15.7262V4.5001C6.3501 4.20239 6.45217 3.90378 6.67798 3.67798C6.90378 3.45217 7.20239 3.3501 7.5001 3.3501H16.6001C17.2495 3.3501 17.6501 3.93873 17.6501 4.5001V15.7262C18.8499 16.3151 19.6501 17.5399 19.6501 19.0001V21.0001C19.6501 21.3591 19.3591 21.6501 19.0001 21.6501H5.0001C4.64111 21.6501 4.3501 21.3591 4.3501 21.0001V19.0001C4.3501 17.5399 5.15029 16.3151 6.3501 15.7262ZM8.0001 16.6501C6.65908 16.6501 5.6501 17.6591 5.6501 19.0001V20.3501H18.3501V19.0001C18.3501 17.6591 17.3411 16.6501 16.0001 16.6501H8.0001ZM12.6501 6.3501V8.3501H14.6501V9.6501H12.6501V12.6501H11.3501V9.6501H9.3501V8.3501H11.3501V6.3501H12.6501Z" fill="currentcolor"/>
</svg>