<svg width="16" height="16" viewBox="0 0 16 16" fill="currentcolor" xmlns="http://www.w3.org/2000/svg">
<path fill-rule="evenodd" clip-rule="evenodd" d="M4.0001 2.93311H6.66676C6.93343 2.93311 7.06676 3.06644 7.06676 3.33311V12.6664C7.06676 12.9331 6.93343 13.1331 6.66676 13.1331H4.0001C3.8001 13.1331 3.6001 12.9331 3.6001 12.6664V3.33311C3.6001 3.06644 3.73343 2.93311 4.0001 2.93311ZM9.33337 2.93311H12C12.2667 2.93311 12.4667 3.06644 12.4667 3.33311V12.6664C12.4667 12.9331 12.2667 13.1331 12 13.1331H9.33337C9.0667 13.1331 8.8667 12.9331 8.8667 12.6664V3.33311C8.8667 3.13311 9.0667 2.93311 9.33337 2.93311Z" fill="currentcolor"/>
</svg>
