<svg width="16" height="16" viewBox="0 0 16 16" fill="currentcolor" xmlns="http://www.w3.org/2000/svg">
<path fill-rule="evenodd" clip-rule="evenodd" d="M4.00023 2.8999C3.7609 2.8999 3.56689 3.09391 3.56689 3.33324V12.6666C3.56689 12.9059 3.7609 13.0999 4.00023 13.0999H6.66689C6.90622 13.0999 7.10023 12.9059 7.10023 12.6666V3.33324C7.10023 3.09391 6.90622 2.8999 6.66689 2.8999H4.00023ZM4.43356 12.2332V3.76657H6.23356V12.2332H4.43356ZM9.33356 2.8999C9.09424 2.8999 8.90023 3.09391 8.90023 3.33324V12.6666C8.90023 12.9059 9.09424 13.0999 9.33356 13.0999H12.0002C12.2396 13.0999 12.4336 12.9059 12.4336 12.6666V3.33324C12.4336 3.09391 12.2396 2.8999 12.0002 2.8999H9.33356ZM9.76689 12.2332V3.76657H11.5669V12.2332H9.76689Z" fill="currentcolor"/>
</svg>
