<svg width="16" height="16" viewBox="0 0 16 16" fill="currentcolor" xmlns="http://www.w3.org/2000/svg">
<path d="M14 1.59961C14.2666 1.59961 14.4667 1.7334 14.4668 2V14C14.4668 14.2667 14.2667 14.4668 14 14.4668H2C1.80003 14.4667 1.59961 14.2666 1.59961 14V2C1.59964 1.73343 1.73343 1.59964 2 1.59961H14ZM7 7.60059C6.53333 7.20059 6.06628 7.13392 5.59961 7.60059L2.40039 10.7998V13.6006H13.5332V10.8672L11.667 9C11.2003 8.53333 10.7333 8.53333 10.2666 9L9.93359 9.33301L10.9336 10.333L10.333 10.9336L7 7.60059ZM2.4668 2.40039V9.66699L5.06641 7.06641C5.86639 6.33309 6.867 6.33312 7.66699 7.06641L9.33301 8.7334L9.66699 8.33301C10.4668 7.60007 11.4668 7.60005 12.2666 8.33301L13.5332 9.60059V2.40039H2.4668ZM10 4.40039C10.5154 4.40039 10.9335 4.81765 10.9336 5.33301C10.9336 5.84847 10.5155 6.2666 10 6.2666C9.48464 6.26648 9.06738 5.8484 9.06738 5.33301C9.06751 4.81772 9.48471 4.40051 10 4.40039Z" fill="currentcolor"/>
</svg>
