<svg width="16" height="16" viewBox="0 0 16 16" fill="currentcolor" xmlns="http://www.w3.org/2000/svg">
<path d="M13.8645 5.26037L10.8936 2.28974C10.4246 1.82074 9.66101 1.82074 9.19125 2.28974C8.53872 2.94253 8.19458 3.8239 8.2268 4.73951L7.4051 5.56121C6.07058 5.17075 4.6195 5.38751 3.46247 6.16339C3.1712 6.35875 2.98465 6.67318 2.94991 7.02639C2.91441 7.38916 3.0418 7.74513 3.29959 8.00267L5.39036 10.0934L2.28076 13.203C2.08415 13.3996 2.08415 13.7184 2.28076 13.915C2.3792 14.0134 2.50784 14.0625 2.63673 14.0625C2.76563 14.0625 2.89427 14.0134 2.99271 13.915L6.1023 10.8054L8.15178 12.8549C8.38113 13.0837 8.68826 13.2098 9.00873 13.2098C9.04826 13.2098 9.08829 13.2078 9.12831 13.204C9.48126 13.1695 9.7957 12.9828 9.99106 12.6917C10.7667 11.5344 10.9834 10.0831 10.593 8.7491L11.4149 7.92714C12.3351 7.96062 13.2122 7.61548 13.8647 6.96269C14.3337 6.49369 14.334 5.73014 13.8647 5.26037H13.8645ZM13.1525 6.25075C12.6578 6.74544 11.9733 6.98434 11.276 6.90807C11.1252 6.8917 10.9731 6.94482 10.8651 7.05257L9.66152 8.25618C9.5223 8.39539 9.47724 8.60258 9.54521 8.78686C9.95782 9.9006 9.81181 11.1505 9.1545 12.1303C9.1195 12.1824 9.06764 12.1981 9.03038 12.2013C9.00043 12.2061 8.92616 12.2046 8.86373 12.1424L4.01153 7.29072C3.9496 7.22854 3.94935 7.15352 3.95237 7.12432C3.95615 7.08706 3.97125 7.03495 4.02362 6.99995C4.63587 6.58935 5.35335 6.37814 6.07763 6.37814C6.5124 6.37814 6.94943 6.45442 7.36708 6.60899C7.55162 6.67671 7.7588 6.63215 7.89777 6.49268L9.10113 5.28932C9.20913 5.18132 9.26224 5.03028 9.24563 4.87847C9.1691 4.18037 9.40876 3.49637 9.90294 3.00219C9.97973 2.92541 10.1046 2.92516 10.1811 3.00219L13.1518 5.97282C13.2285 6.0496 13.2288 6.17447 13.1518 6.251L13.1525 6.25075Z" fill="currentcolor"/>
</svg>
