<svg width="16" height="16" viewBox="0 0 16 16" fill="none" xmlns="http://www.w3.org/2000/svg">
<path d="M3.5 13.9999C3.36739 13.9999 3.24021 13.9472 3.14645 13.8535C3.05268 13.7597 3 13.6325 3 13.4999V2.49991C3.00001 2.41303 3.02267 2.32765 3.06573 2.25218C3.1088 2.17672 3.17078 2.11378 3.24558 2.06957C3.32037 2.02536 3.4054 2.0014 3.49227 2.00006C3.57915 1.99872 3.66487 2.02004 3.741 2.06191L13.741 7.56191C13.8194 7.60508 13.8848 7.66849 13.9303 7.74553C13.9758 7.82257 13.9998 7.91042 13.9998 7.99991C13.9998 8.0894 13.9758 8.17726 13.9303 8.2543C13.8848 8.33134 13.8194 8.39475 13.741 8.43791L3.741 13.9379C3.66718 13.9786 3.58427 13.9999 3.5 13.9999ZM4 3.34491V12.6549L12.4625 7.99991L4 3.34491Z" fill="currentcolor"/>
</svg>
