<svg width="16" height="16" viewBox="0 0 16 16" fill="none" xmlns="http://www.w3.org/2000/svg">
<path d="M11.4998 10.2575C11.4998 7.95 9.60984 7.687 8.09134 7.476C6.43634 7.246 5.49984 7.046 5.49984 5.621C5.49984 4.425 6.75334 4 7.82684 4C8.36184 3.98255 8.89331 4.09261 9.37739 4.32109C9.86146 4.54956 10.2842 4.8899 10.6108 5.314L11.3888 4.686C11.039 4.23608 10.6036 3.85976 10.1078 3.57865C9.61203 3.29755 9.06556 3.11721 8.49984 3.048V1.5H7.49984V3.011C5.69234 3.121 4.49984 4.141 4.49984 5.621C4.49984 7.986 6.41484 8.2525 7.95384 8.466C9.57984 8.6925 10.4998 8.887 10.4998 10.2575C10.4998 11.7735 8.93334 12 7.99984 12C6.28484 12 5.56084 11.518 4.88884 10.686L4.11084 11.314C4.50727 11.8363 5.01996 12.259 5.60823 12.5486C6.19649 12.8382 6.84416 12.9868 7.49984 12.9825V14.5H8.49984V12.9775C10.3628 12.8255 11.4998 11.814 11.4998 10.2575Z" fill="currentcolor"/>
</svg>
