<svg width="16" height="16" viewBox="0 0 16 16" fill="none" xmlns="http://www.w3.org/2000/svg">
<path d="M3 1V3.11523C3.64945 2.44626 4.42648 1.91407 5.28516 1.55078C6.144 1.18749 7.06748 1.00013 8 1C9.38438 1 10.7376 1.41062 11.8887 2.17969C13.0398 2.94884 13.937 4.04223 14.4668 5.32129C14.9966 6.60027 15.1352 8.00747 14.8652 9.36523C14.5951 10.7231 13.9292 11.9712 12.9502 12.9502C11.9712 13.9292 10.7231 14.5951 9.36523 14.8652C8.00747 15.1352 6.60027 14.9966 5.32129 14.4668C4.04223 13.937 2.94884 13.0398 2.17969 11.8887C1.41062 10.7376 1 9.38438 1 8H2C1.99683 9.40225 2.48533 10.761 3.37988 11.8408C4.27446 12.9207 5.51909 13.6534 6.89746 13.9111C8.2757 14.1688 9.70056 13.9355 10.9248 13.252C12.1491 12.5684 13.0958 11.4775 13.5996 10.1689C14.1033 8.86043 14.1324 7.41688 13.6826 6.08887C13.2328 4.76071 12.3321 3.63155 11.1367 2.89844C9.94152 2.16551 8.52719 1.87417 7.13965 2.0752C5.75189 2.27636 4.47805 2.95766 3.54004 4H6V5H2V1H3Z" fill="currentcolor"/>
</svg>
