<svg width="16" height="16" viewBox="0 0 16 16" fill="currentcolor" xmlns="http://www.w3.org/2000/svg">
<path d="M3.43338 14.1899H2.56716V9.32275H3.43338V14.1899ZM7.26638 10.1899H5.43338V11.3228H5.99978C6.77244 11.3228 7.43338 11.9837 7.43338 12.7563C7.43337 13.529 6.77243 14.1899 5.99978 14.1899H4.53299V13.3228H5.99978C6.29379 13.3228 6.56716 13.0504 6.56716 12.7563C6.56716 12.4623 6.29379 12.1899 5.99978 12.1899H4.99978C4.76062 12.1898 4.56717 11.9956 4.56716 11.7563V9.75635C4.56716 9.51714 4.76061 9.32294 4.99978 9.32275H7.26638V10.1899ZM4.94607 2.42334L3.37966 3.98975H9.66677C12.1061 3.98975 14.1004 5.98402 14.1004 8.42334C14.1002 10.8625 12.106 12.856 9.66677 12.856H9.23318V11.9897H9.66677C11.6273 11.9897 13.233 10.3839 13.2332 8.42334C13.2332 6.46266 11.6275 4.85596 9.66677 4.85596H3.37869L4.94607 6.42334L4.33377 7.03564L2.02713 4.729C1.85821 4.55978 1.85808 4.28584 2.02713 4.1167L4.33377 1.81006L4.94607 2.42334Z" fill="currentcolor"/>
</svg>
