<svg width="16" height="16" viewBox="0 0 16 16" fill="currentcolor" xmlns="http://www.w3.org/2000/svg">
<path d="M13.855 2.14513C13.7875 2.07797 13.7023 2.03146 13.6093 2.01109C13.5163 1.99072 13.4194 1.99732 13.33 2.03013L2.33 6.03013C2.23513 6.06611 2.15346 6.1301 2.09583 6.21361C2.03819 6.29711 2.00732 6.39617 2.00732 6.49763C2.00732 6.59909 2.03819 6.69815 2.09583 6.78165C2.15346 6.86515 2.23513 6.92915 2.33 6.96513L6.625 8.68013L9.795 5.50013L10.5 6.20513L7.315 9.39013L9.035 13.6851C9.07205 13.7782 9.13619 13.8579 9.21909 13.9141C9.302 13.9703 9.39986 14.0002 9.5 14.0001C9.60104 13.9981 9.69909 13.9654 9.7812 13.9065C9.86332 13.8476 9.92566 13.7652 9.96 13.6701L13.96 2.67013C13.9941 2.58167 14.0023 2.48534 13.9837 2.39239C13.9651 2.29944 13.9205 2.21368 13.855 2.14513Z" fill="currentcolor"/>
</svg>
