<svg xmlns="http://www.w3.org/2000/svg" width="24" height="24" viewBox="0 0 24 24" fill="none">
  <path fill-rule="evenodd" clip-rule="evenodd" d="M12.7157 3.06301C12.9676 2.94872 13.263 2.99229 13.4711 3.17442L21.5271 10.2234C21.6801 10.3572 21.7678 10.5506 21.7678 10.7539C21.7678 10.9571 21.6801 11.1505 21.5271 11.2843L13.4711 18.3333C13.263 18.5154 12.9676 18.559 12.7157 18.4447C12.4638 18.3304 12.3021 18.0794 12.3021 17.8028V14.5375C11.4927 14.6587 10.6411 14.9639 9.78342 15.3943C8.67578 15.95 7.60004 16.6929 6.65157 17.4413C5.70512 18.1881 4.89873 18.9297 4.32821 19.4751C4.12962 19.665 3.96356 19.8272 3.82661 19.9611C3.76496 20.0213 3.70921 20.0758 3.65904 20.1244C3.58364 20.1975 3.51166 20.2664 3.45648 20.3146L3.45499 20.3159C3.43585 20.3326 3.3806 20.3809 3.31414 20.421C3.29383 20.4333 3.25541 20.4554 3.20454 20.4757C3.1685 20.4901 3.04763 20.5368 2.88678 20.5248C2.66996 20.5086 2.41608 20.3821 2.29363 20.1081C2.20587 19.9118 2.23492 19.7386 2.24325 19.6922L2.24426 19.6865L2.24429 19.6865C3.21244 14.5376 5.65248 8.50154 12.3021 7.1437V3.70491C12.3021 3.42832 12.4638 3.17729 12.7157 3.06301ZM13.7119 5.25833V7.73288C13.7119 8.08014 13.459 8.37567 13.1159 8.42931C7.85217 9.25229 5.36038 13.3086 4.14055 17.7236C4.61303 17.2958 5.16679 16.8171 5.77829 16.3346C6.77093 15.5513 7.92914 14.7473 9.15121 14.1342C10.3679 13.5237 11.6906 13.0808 13.0012 13.07C13.1891 13.0684 13.3699 13.142 13.5034 13.2744C13.6368 13.4067 13.7119 13.5869 13.7119 13.7748V16.2494L19.9925 10.7539L13.7119 5.25833ZM2.52198 19.2587C2.52206 19.2586 2.52399 19.2569 2.52751 19.2541C2.52366 19.2575 2.5219 19.2589 2.52198 19.2587Z" fill="#0D0D0D"/>
</svg>
