<svg width="16" height="16" viewBox="0 0 16 16" fill="none" xmlns="http://www.w3.org/2000/svg">
<path d="M5.5 6.49996H3.83301V13.5H12.167V6.49996H10.5V5.49996H12.333C12.7931 5.49996 13.1668 5.87288 13.167 6.33297V13.667C13.1668 14.127 12.7931 14.5 12.333 14.5H3.66699C3.20686 14.5 2.83318 14.127 2.83301 13.667V6.33297C2.83318 5.87288 3.20686 5.49996 3.66699 5.49996H5.5V6.49996ZM7.64648 1.64645C7.84175 1.45119 8.15825 1.45118 8.35352 1.64645L10.707 3.99996L10 4.70699L8.5 3.20699V9.83297H7.5V3.20699L6 4.70699L5.29297 3.99996L7.64648 1.64645Z" fill="currentcolor"/>
</svg>
