+<svg xmlns="http://www.w3.org/2000/svg" width="14" height="14" viewBox="0 0 14 14" fill="currentcolor">
  <path
    fill-rule="evenodd"
    clip-rule="evenodd"
    d="M7.41741 1.78675C7.56433 1.72008 7.73667 1.7455 7.85809 1.85174L12.5574 5.96363C12.6466 6.04171 12.6978 6.15451 12.6978 6.27308C12.6978 6.39165 12.6466 6.50445 12.5574 6.58253L7.85809 10.6944C7.73667 10.8007 7.56433 10.8261 7.41741 10.7594C7.27049 10.6927 7.17613 10.5463 7.17613 10.385V8.4802C6.70399 8.55091 6.20723 8.72896 5.70691 8.97998C5.06079 9.30415 4.43328 9.73755 3.88 10.1741C3.3279 10.6097 2.85751 11.0423 2.52471 11.3605C2.40886 11.4712 2.312 11.5659 2.23211 11.644C2.19615 11.6791 2.16363 11.7109 2.13436 11.7392C2.09037 11.7819 2.04839 11.8221 2.0162 11.8502L2.01533 11.8509C2.00417 11.8607 1.97194 11.8888 1.93317 11.9123C1.92132 11.9194 1.89891 11.9323 1.86923 11.9442C1.84821 11.9525 1.77771 11.9798 1.68387 11.9728C1.5574 11.9634 1.4093 11.8895 1.33787 11.7297C1.28667 11.6152 1.30362 11.5142 1.30848 11.4871L1.30907 11.4838L1.30909 11.4838C1.87384 8.48025 3.2972 4.95923 7.17613 4.16716V2.1612C7.17613 1.99985 7.27049 1.85342 7.41741 1.78675ZM7.99851 3.06736V4.51085C7.99851 4.71342 7.85098 4.88581 7.65084 4.9171C4.58035 5.39717 3.12681 7.76336 2.41524 10.3388C2.69085 10.0892 3.01388 9.80997 3.37059 9.52851C3.94963 9.07162 4.62525 8.60259 5.33812 8.24493C6.04786 7.88884 6.81946 7.63044 7.58394 7.62415C7.69357 7.62324 7.79903 7.66616 7.87688 7.74337C7.95472 7.82058 7.99851 7.92568 7.99851 8.03532V9.47881L11.6622 6.27308L7.99851 3.06736ZM1.47107 11.2343C1.47112 11.2342 1.47224 11.2332 1.4743 11.2316C1.47205 11.2335 1.47103 11.2343 1.47107 11.2343Z"
    fill="currentcolor"
  />
+</svg>