<svg width="16" height="16" viewBox="0 0 16 16" fill="none" xmlns="http://www.w3.org/2000/svg">
<path d="M7.99949 2.5C9.62907 2.56128 11.2052 3.0988 12.5327 4.0459C13.8603 4.99316 14.8821 6.3089 15.4702 7.83008C15.5098 7.93981 15.5098 8.06019 15.4702 8.16992C14.8821 9.6911 13.8603 11.0068 12.5327 11.9541C11.2052 12.9012 9.62907 13.4387 7.99949 13.5C6.36985 13.4387 4.7938 12.9013 3.46629 11.9541C2.13869 11.0068 1.11784 9.6911 0.529762 8.16992C0.490079 8.06011 0.490079 7.93989 0.529762 7.83008C1.11784 6.3089 2.13869 4.99316 3.46629 4.0459C4.7938 3.09869 6.36985 2.56134 7.99949 2.5ZM7.99949 3.5C5.34957 3.50014 2.54961 5.46509 1.53464 8C2.54961 10.5349 5.34957 12.4999 7.99949 12.5C10.6494 12.5 13.4493 10.5349 14.4643 8C13.4493 5.46507 10.6494 3.5 7.99949 3.5ZM8.00046 5C8.79594 5.00013 9.55906 5.31641 10.1216 5.87891C10.684 6.44149 11.0005 7.20446 11.0005 8C11.0005 8.59334 10.8242 9.17364 10.4946 9.66699C10.165 10.1603 9.69607 10.5444 9.14793 10.7715C8.59976 10.9985 7.99646 11.0581 7.41453 10.9424C6.83265 10.8266 6.29791 10.5406 5.87839 10.1211C5.45897 9.70157 5.17382 9.16679 5.05808 8.58496C4.94238 8.00308 5.00097 7.39967 5.228 6.85156C5.45508 6.30348 5.84019 5.83546 6.33347 5.50586C6.82682 5.17622 7.40713 5 8.00046 5ZM8.76511 6.15234C8.39974 6.00104 7.99771 5.96095 7.60984 6.03809C7.22188 6.11526 6.86513 6.30623 6.58543 6.58594C6.30596 6.8655 6.11576 7.2217 6.03855 7.60938C5.96138 7.99734 6.00046 8.40017 6.15183 8.76562C6.30321 9.13104 6.56026 9.44334 6.88914 9.66309C7.21798 9.88273 7.60501 10 8.00046 10C8.53072 9.99987 9.03957 9.78902 9.41453 9.41406C9.78945 9.03901 10.0005 8.53032 10.0005 8C10.0005 7.60444 9.88234 7.21757 9.66257 6.88867C9.44282 6.55991 9.13046 6.30367 8.76511 6.15234Z" fill="currentcolor"/>
</svg>
