<svg xmlns="http://www.w3.org/2000/svg" viewBox="0 0 20 20" fill="currentcolor" width="20" height="20">
  <path d="M9.93066 8.12537V11.9714H15.2754C15.0407 13.2083 14.3364 14.2556 13.2801 14.9598L16.5031 17.4606C18.381 15.7272 19.4644 13.1813 19.4644 10.1568C19.4644 9.45263 19.4012 8.77545 19.2838 8.12547L9.93066 8.12537Z" fill="currentcolor"/>
  <path d="M4.36543 11.8213L3.63851 12.3777L1.06543 14.382C2.69953 17.6231 6.04875 19.8621 9.93085 19.8621C12.6122 19.8621 14.8602 18.9773 16.5033 17.4606L13.2803 14.9598C12.3955 15.5556 11.267 15.9168 9.93085 15.9168C7.3488 15.9168 5.15501 14.1744 4.36949 11.827L4.36543 11.8213Z" fill="currentcolor"/>
  <path d="M1.06525 5.4801C0.388173 6.81622 0 8.32396 0 9.93095C0 11.5379 0.388173 13.0457 1.06525 14.3818C1.06525 14.3908 4.36963 11.8178 4.36963 11.8178C4.17102 11.2219 4.05362 10.59 4.05362 9.93085C4.05362 9.2717 4.17102 8.63977 4.36963 8.04391L1.06525 5.4801Z" fill="currentcolor"/>
  <path d="M9.93106 3.95435C11.3936 3.95435 12.6937 4.45992 13.7319 5.43498L16.5758 2.59113C14.8514 0.984137 12.6125 0 9.93106 0C6.04895 0 2.69953 2.22996 1.06543 5.48013L4.36971 8.04415C5.15512 5.69679 7.349 3.95435 9.93106 3.95435Z" fill="currentcolor"/>
</svg>