<svg xmlns="http://www.w3.org/2000/svg" viewBox="0 0 24 24" fill="currentcolor" width="24" height="24">
  <path d="M21.7331 8.02765C21.7331 8.02765 21.5391 6.65826 20.9417 6.05696C20.1852 5.26558 19.3395 5.2617 18.9516 5.21515C16.174 5.01343 12.0038 5.01343 12.0038 5.01343H11.996C11.996 5.01343 7.82574 5.01343 5.04816 5.21515C4.66023 5.2617 3.81454 5.26558 3.05807 6.05696C2.46066 6.65826 2.27057 8.02765 2.27057 8.02765C2.27057 8.02765 2.06885 9.63757 2.06885 11.2436V12.7488C2.06885 14.3548 2.26669 15.9647 2.26669 15.9647C2.26669 15.9647 2.46066 17.3341 3.05419 17.9354C3.81066 18.7268 4.80376 18.6996 5.246 18.785C6.83652 18.9363 11.9999 18.9828 11.9999 18.9828C11.9999 18.9828 16.174 18.9751 18.9516 18.7772C19.3395 18.7307 20.1852 18.7268 20.9417 17.9354C21.5391 17.3341 21.7331 15.9647 21.7331 15.9647C21.7331 15.9647 21.9309 14.3587 21.9309 12.7488V11.2436C21.9309 9.63757 21.7331 8.02765 21.7331 8.02765ZM9.94773 14.5759V8.9936L15.3128 11.7945L9.94773 14.5759Z" fill="currentcolor"/>
</svg>