<svg width="16" height="16" viewBox="0 0 16 16" fill="none" xmlns="http://www.w3.org/2000/svg">
<path d="M7.46924 2.08185C9.13768 0.413472 11.9223 0.49316 13.689 2.25959C15.4555 4.02615 15.5359 6.81078 13.8677 8.47932L13.7153 8.62287C12.9438 9.31931 11.9639 9.66908 10.9634 9.67853L10.8511 9.68439C10.59 9.70824 10.3398 9.80801 10.1538 9.99396L8.78564 11.3621L8.67432 11.4666C7.62674 12.413 6.06889 12.478 4.94873 11.6658L1.52588 15.0897L1.24268 14.8065L0.959473 14.5242L4.36768 11.1151C3.43459 9.94966 3.50737 8.24413 4.5874 7.16389L5.95557 5.7967C6.1681 5.58413 6.26719 5.28673 6.27002 4.98615C6.27936 3.98546 6.6291 3.00488 7.32568 2.23322L7.46924 2.08185ZM7.24854 10.4715C6.94728 10.7672 6.67992 11.035 6.46924 11.2528C6.41949 11.3042 6.37302 11.353 6.32959 11.3983C6.84989 11.4847 7.39394 11.3817 7.85303 11.0877L7.24854 10.4715ZM6.10596 9.30549C5.80295 9.60422 5.5285 9.87037 5.30322 10.0819C5.13135 10.2432 4.98776 10.374 4.88525 10.4676C4.96265 10.583 5.05088 10.6937 5.15283 10.7957C5.26592 10.9088 5.3897 11.0048 5.51904 11.0877C5.60917 10.9918 5.73719 10.8582 5.89404 10.6961C6.10857 10.4744 6.38015 10.2006 6.68799 9.89924L6.10596 9.30549ZM9.35303 8.576C8.83527 8.98999 8.30889 9.45999 7.82373 9.91584L8.45459 10.5594L9.5874 9.42756C9.69524 9.31974 9.81313 9.2306 9.93604 9.15705L9.35303 8.576ZM4.88232 8.05842C4.55852 8.54261 4.45111 9.12848 4.55908 9.68049C4.61875 9.62521 4.68579 9.56508 4.75635 9.49885C4.9781 9.29066 5.24767 9.029 5.54541 8.73518L4.88232 8.05842ZM8.02979 7.25666C7.59319 7.77028 7.12444 8.27653 6.68506 8.72736C6.68072 8.73181 6.67572 8.73562 6.67139 8.74006L7.26318 9.34455C7.73003 8.90539 8.25376 8.43656 8.78369 8.00861L8.02979 7.25666ZM11.5073 7.18635C11.3317 7.30211 11.15 7.40857 10.9614 7.49982C10.6657 7.64292 10.3406 7.84835 9.99951 8.09064L10.7974 8.88654C10.8506 8.88213 10.9034 8.87923 10.9556 8.87873C11.5765 8.87288 12.1797 8.70643 12.7046 8.38361L11.5073 7.18635ZM6.7876 6.0174C6.71457 6.13861 6.62749 6.25563 6.521 6.36213L5.41846 7.46271L6.11182 8.16877H6.11279C6.56854 7.70113 7.03715 7.19215 7.46143 6.69025L6.7876 6.0174ZM13.3149 5.43928C12.9907 5.85931 12.5983 6.30277 12.1479 6.69514L13.3325 7.87971C13.7639 7.4359 14.0477 6.89036 14.1802 6.30451L13.3149 5.43928ZM9.46338 5.2215C9.24847 5.65863 8.91962 6.14137 8.5376 6.63361L9.42432 7.5174C9.83703 7.21739 10.2408 6.9591 10.6128 6.77912C10.7196 6.72743 10.824 6.66877 10.9272 6.60627L9.48975 5.16877C9.48087 5.18625 9.47204 5.20388 9.46338 5.2215ZM11.1138 3.2381C10.706 3.57059 10.2824 3.98436 9.92432 4.4715L11.5815 6.12873C12.0221 5.75184 12.4139 5.304 12.7437 4.86799L11.1138 3.2381ZM7.56494 3.24396C7.24183 3.76904 7.07559 4.37284 7.06982 4.99396C7.0693 5.04903 7.06592 5.10474 7.06104 5.16096L7.96826 6.06525C8.29523 5.63812 8.56818 5.22975 8.74561 4.86896C8.79419 4.77015 8.8462 4.67332 8.8999 4.57893L7.56494 3.24396ZM14.0679 4.33381C13.9855 4.46947 13.8937 4.621 13.7876 4.7801L14.2573 5.24982C14.2339 4.94227 14.1702 4.63457 14.0679 4.33381ZM12.4565 2.34357C12.3974 2.37456 12.3101 2.42202 12.2017 2.48518C12.0795 2.55634 11.9307 2.64715 11.7651 2.75764L13.2095 4.20197C13.3341 4.00937 13.4406 3.83595 13.5239 3.69123C13.5729 3.60614 13.6125 3.53033 13.646 3.46857C13.4983 3.24255 13.3248 3.02627 13.1235 2.82502C12.9293 2.63077 12.7209 2.46252 12.5034 2.31818C12.4906 2.32484 12.4752 2.33382 12.4565 2.34357ZM9.64307 1.7674C9.05765 1.89999 8.51142 2.18381 8.06787 2.61506L9.354 3.90119C9.72645 3.41409 10.1468 3.00254 10.5464 2.67072L9.64307 1.7674ZM11.1899 2.18244C11.3549 2.06816 11.5088 1.97147 11.6431 1.88947C11.3331 1.78137 11.0152 1.71425 10.6978 1.69025L11.1899 2.18244Z" fill="currentcolor"/>
</svg>
