<svg width="16" height="16" viewBox="0 0 16 16" fill="none" xmlns="http://www.w3.org/2000/svg">
<path d="M2.20947 3.2168C3.42861 1.99836 5.32993 1.66648 7.17139 2.35059L6.82275 3.28809C5.3314 2.73359 3.87088 2.97118 2.91748 3.92383C1.36989 5.47004 1.92139 8.09901 3.40771 9.58398C4.18571 10.3593 5.20246 10.8497 6.29346 10.9766C6.79495 11.0462 7.30602 11.001 7.7876 10.8447C8.26905 10.6884 8.70876 10.425 9.07373 10.0742C10.0271 9.12187 10.2645 7.6631 9.70947 6.17285L10.6479 5.82422C10.9978 6.6459 11.1025 7.55194 10.9487 8.43164C10.7949 9.31113 10.3894 10.1271 9.78174 10.7812C9.68944 10.8735 9.59228 10.9599 9.49268 11.042C10.3766 11.1505 11.2034 11.5373 11.853 12.1465L13.9995 14.293L13.2925 15L11.146 12.8535C10.5506 12.3286 9.79087 12.0268 8.99756 12H6.49951V11.9873C6.39601 11.9824 6.29299 11.9817 6.18799 11.9707C4.86951 11.8185 3.6407 11.227 2.69971 10.291C0.87172 8.46443 0.238368 5.18607 2.20947 3.2168ZM9.00146 3.49414C9.0678 3.49356 9.13342 3.50615 9.19482 3.53125C9.25607 3.55631 9.31204 3.59292 9.35889 3.63965C9.40583 3.68659 9.44312 3.74324 9.46826 3.80469C9.49335 3.86608 9.50595 3.93173 9.50537 3.99805C9.50479 4.06442 9.49153 4.13042 9.46533 4.19141C9.43913 4.25229 9.4007 4.30747 9.35303 4.35352L5.85303 7.85352C5.80671 7.89995 5.75151 7.9368 5.69092 7.96191C5.63029 7.98702 5.56513 8.00009 5.49951 8C5.40069 7.99995 5.30433 7.96995 5.22217 7.91504C5.14004 7.86013 5.07543 7.78267 5.0376 7.69141C4.99977 7.60008 4.99002 7.4993 5.00928 7.40234C5.02854 7.30545 5.07619 7.21638 5.146 7.14648L8.646 3.64648C8.69205 3.5988 8.74722 3.56038 8.80811 3.53418C8.8691 3.50798 8.93508 3.49472 9.00146 3.49414ZM10.9995 1C11.5517 1.00012 11.9995 1.44779 11.9995 2C11.9995 2.55221 11.5517 2.99988 10.9995 3C10.4472 3 9.99951 2.55228 9.99951 2C9.99951 1.44772 10.4472 1 10.9995 1Z" fill="currentcolor"/>
</svg>
