<svg width="16" height="16" viewBox="0 0 16 16" fill="none" xmlns="http://www.w3.org/2000/svg">
<path fill-rule="evenodd" clip-rule="evenodd" d="M8.43324 1.33324V0.899902H7.56657V1.33324V2.28252C4.71988 2.49383 2.4929 4.77078 2.28274 7.56657H1.33324H0.899902V8.43324H1.33324H2.28313C2.49818 11.2317 4.77345 13.5622 7.56657 13.7828V14.6666V15.0999H8.43324V14.6666V13.7832C11.2346 13.5678 13.567 11.2854 13.7834 8.43324H14.6666H15.0999V7.56657H14.6666H13.7838C13.5722 4.71697 11.2881 2.48835 8.43324 2.2821V1.33324ZM7.99984 5.4665C6.59984 5.4665 5.4665 6.59984 5.4665 7.99984C5.4665 9.39984 6.59984 10.5332 7.99984 10.5332C9.39984 10.5332 10.5332 9.39984 10.5332 7.99984C10.5332 6.59984 9.39984 5.4665 7.99984 5.4665ZM4.59984 7.99984C4.59984 9.8665 6.13317 11.3998 7.99984 11.3998C9.8665 11.3998 11.3998 9.8665 11.3998 7.99984C11.3998 6.13317 9.8665 4.59984 7.99984 4.59984C6.13317 4.59984 4.59984 6.13317 4.59984 7.99984Z" fill="currentcolor"/>
</svg>
