<svg width="16" height="16" viewBox="0 0 16 16" fill="none" xmlns="http://www.w3.org/2000/svg">
<path d="M12.6155 5.92045H9.84627V3.15122C9.8459 2.78411 9.6999 2.43214 9.44032 2.17255C9.18073 1.91296 8.82876 1.76697 8.46165 1.7666H7.47719C7.25526 1.76754 7.04102 1.84802 6.87335 1.99341C6.70568 2.13881 6.59569 2.3395 6.56334 2.55906L6.17334 5.28999L4.52242 7.7666H1.53857V14.2281H11.2309C12.0874 14.2272 12.9086 13.8865 13.5143 13.2808C14.12 12.6751 14.4607 11.8539 14.4617 10.9974V7.7666C14.461 7.27716 14.2663 6.80794 13.9203 6.46185C13.5742 6.11576 13.1049 5.92106 12.6155 5.92045ZM4.30781 13.3051H2.46165V8.68968H4.30781V13.3051ZM13.5386 10.9974C13.5378 11.6092 13.2945 12.1957 12.8619 12.6283C12.4292 13.061 11.8427 13.3043 11.2309 13.3051H5.23088V8.36799L7.05765 5.62783L7.47765 2.68968H8.46165C8.58406 2.68968 8.70145 2.7383 8.78801 2.82486C8.87456 2.91142 8.92319 3.02881 8.92319 3.15122V6.84352H12.6155C12.8602 6.84377 13.0949 6.9411 13.2679 7.11416C13.441 7.28721 13.5383 7.52186 13.5386 7.7666V10.9974Z" fill="currentcolor"/>
</svg>
