<svg width="16" height="16" viewBox="0 0 16 16" fill="currentcolor" xmlns="http://www.w3.org/2000/svg">
<path d="M1.53857 1.7666H3.84627V8.22814H1.53857V1.7666ZM11.2309 1.7666H4.76934V8.59875L6.17334 10.7048L6.56334 13.4357C6.59569 13.6552 6.70568 13.8559 6.87335 14.0013C7.04102 14.1467 7.25526 14.2272 7.47719 14.2281H7.53857C7.90569 14.2278 8.25765 14.0818 8.51724 13.8222C8.77683 13.5626 8.92282 13.2106 8.92319 12.8435V10.0743H12.6155C13.1049 10.0737 13.5742 9.87898 13.9203 9.53289C14.2663 9.1868 14.461 8.71758 14.4617 8.22814V4.99737C14.4607 4.14082 14.12 3.31963 13.5143 2.71395C12.9086 2.10828 12.0874 1.76758 11.2309 1.7666Z" fill="currentcolor"/>
</svg>
