<svg width="16" height="16" viewBox="0 0 16 16" fill="currentcolor" xmlns="http://www.w3.org/2000/svg">
<path d="M14.4617 8.22814V4.99737C14.4607 4.14082 14.12 3.31963 13.5143 2.71395C12.9086 2.10828 12.0874 1.76758 11.2309 1.7666H1.53857V8.22814H4.52242L6.17334 10.7048L6.56381 13.4357C6.59615 13.6552 6.70614 13.8559 6.87381 14.0013C7.04148 14.1467 7.25572 14.2272 7.47765 14.2281H8.46165C8.82876 14.2278 9.18073 14.0818 9.44032 13.8222C9.6999 13.5626 9.8459 13.2106 9.84627 12.8435V10.0743H12.6155C13.1049 10.0737 13.5742 9.87898 13.9203 9.53289C14.2663 9.1868 14.461 8.71758 14.4617 8.22814ZM4.30781 7.30506H2.46165V2.68968H4.30781V7.30506ZM13.5386 8.22814C13.5383 8.47288 13.441 8.70753 13.2679 8.88058C13.0949 9.05364 12.8602 9.15097 12.6155 9.15122H8.92319V12.8435C8.92319 12.9659 8.87456 13.0833 8.78801 13.1699C8.70145 13.2564 8.58406 13.3051 8.46165 13.3051H7.47719L7.05719 10.3669L5.23088 7.62675V2.68968H11.2309C11.8427 2.69041 12.4292 2.93378 12.8619 3.3664C13.2945 3.79901 13.5378 4.38556 13.5386 4.99737V8.22814Z" fill="currentcolor"/>
</svg>
