<svg width="16" height="16" viewBox="0 0 16 16" fill="none" xmlns="http://www.w3.org/2000/svg">
<path d="M1.53857 7.7666H3.84627V14.2281H1.53857V7.7666ZM11.2309 14.2281H4.76934V7.39599L6.17334 5.28999L6.56334 2.55906C6.59569 2.3395 6.70568 2.13881 6.87335 1.99341C7.04102 1.84802 7.25526 1.76754 7.47719 1.7666H7.53857C7.90569 1.76697 8.25765 1.91296 8.51724 2.17255C8.77683 2.43214 8.92282 2.78411 8.92319 3.15122V5.92045H12.6155C13.1049 5.92106 13.5742 6.11576 13.9203 6.46185C14.2663 6.80794 14.461 7.27716 14.4617 7.7666V10.9974C14.4607 11.8539 14.12 12.6751 13.5143 13.2808C12.9086 13.8865 12.0874 14.2272 11.2309 14.2281Z" fill="currentcolor"/>
</svg>
