<svg width="16" height="16" viewBox="0 0 16 16" fill="currentcolor" xmlns="http://www.w3.org/2000/svg">
<path fill-rule="evenodd" clip-rule="evenodd" d="M6.51896 2.51326C6.55959 2.47263 6.6147 2.4498 6.67217 2.4498H9.33884C9.3963 2.4498 9.45141 2.47263 9.49204 2.51326C9.53267 2.5539 9.5555 2.60901 9.5555 2.66647V4.21647H6.4555V2.66647C6.4555 2.60901 6.47833 2.5539 6.51896 2.51326ZM6.00604 5.11647V5.11647H6.00496H3.82792L4.45397 12.6291C4.45501 12.6415 4.45553 12.654 4.45553 12.6665C4.45553 12.9007 4.54859 13.1254 4.71425 13.2911C4.87991 13.4567 5.10459 13.5498 5.33886 13.5498H10.6722C10.9065 13.5498 11.1311 13.4567 11.2968 13.2911C11.4625 13.1254 11.5555 12.9007 11.5555 12.6665C11.5555 12.654 11.556 12.6415 11.5571 12.6291L12.1831 5.11647H10.006V5.11647H10.005H6.00604ZM10.4555 4.21647V2.66647C10.4555 2.37031 10.3379 2.08628 10.1284 1.87687C9.91902 1.66745 9.63499 1.5498 9.33884 1.5498H6.67217C6.37601 1.5498 6.09198 1.66745 5.88257 1.87687C5.67315 2.08628 5.5555 2.37031 5.5555 2.66647V4.21647H3.34417H3.33455H2.67217C2.42364 4.21647 2.22217 4.41794 2.22217 4.66647C2.22217 4.915 2.42364 5.11647 2.67217 5.11647H2.9248L3.55564 12.6865C3.56087 13.1523 3.74815 13.5978 4.07785 13.9275C4.41229 14.2619 4.86589 14.4498 5.33886 14.4498H10.6722C11.1452 14.4498 11.5988 14.2619 11.9332 13.9275C12.2629 13.5978 12.4502 13.1523 12.4554 12.6865L13.0863 5.11647H13.3388C13.5874 5.11647 13.7888 4.915 13.7888 4.66647C13.7888 4.41794 13.5874 4.21647 13.3388 4.21647H12.6765H12.6669H10.4555ZM6.67217 6.88314C6.9207 6.88314 7.12217 7.08461 7.12217 7.33314V11.3331C7.12217 11.5817 6.9207 11.7831 6.67217 11.7831C6.42364 11.7831 6.22217 11.5817 6.22217 11.3331V7.33314C6.22217 7.08461 6.42364 6.88314 6.67217 6.88314ZM9.78884 7.33314C9.78884 7.08461 9.58736 6.88314 9.33884 6.88314C9.09031 6.88314 8.88883 7.08461 8.88883 7.33314V11.3331C8.88883 11.5817 9.09031 11.7831 9.33884 11.7831C9.58736 11.7831 9.78884 11.5817 9.78884 11.3331V7.33314Z" fill="currentcolor"/>
</svg>
