<svg width="16" height="16" viewBox="0 0 16 16" fill="none" xmlns="http://www.w3.org/2000/svg">
<path d="M5.5 9L6.205 9.705L7.5 8.415V14.5H8.5V8.415L9.795 9.705L10.5 9L8 6.5L5.5 9Z" fill="#0D0D0D"/>
<path d="M11.7499 10.9998H11.4999V9.99979H11.7499C12.3467 10.0237 12.9284 9.80949 13.3673 9.40442C13.8061 8.99934 14.0661 8.43652 14.0899 7.83979C14.1138 7.24305 13.8996 6.66127 13.4946 6.22243C13.0895 5.7836 12.5267 5.52365 11.9299 5.49979H11.4999L11.4499 5.08979C11.339 4.24801 10.9259 3.47526 10.2875 2.91548C9.64909 2.3557 8.82898 2.04706 7.97993 2.04706C7.13088 2.04706 6.31077 2.3557 5.67238 2.91548C5.034 3.47526 4.62086 4.24801 4.50993 5.08979L4.49993 5.49979H4.06993C3.47319 5.52365 2.91038 5.7836 2.5053 6.22243C2.10022 6.66127 1.88606 7.24305 1.90993 7.83979C1.9338 8.43652 2.19374 8.99934 2.63258 9.40442C3.07141 9.80949 3.65319 10.0237 4.24993 9.99979H4.49993V10.9998H4.24993C3.44813 10.9947 2.67651 10.6934 2.08342 10.1538C1.49033 9.61425 1.11764 8.87447 1.03699 8.07672C0.956351 7.27898 1.17345 6.47957 1.64656 5.83221C2.11966 5.18485 2.81537 4.73523 3.59993 4.56979C3.81578 3.56305 4.37035 2.66077 5.17109 2.01352C5.97183 1.36627 6.97031 1.01318 7.99993 1.01318C9.02955 1.01318 10.028 1.36627 10.8288 2.01352C11.6295 2.66077 12.1841 3.56305 12.3999 4.56979C13.1845 4.73523 13.8802 5.18485 14.3533 5.83221C14.8264 6.47957 15.0435 7.27898 14.9629 8.07672C14.8822 8.87447 14.5095 9.61425 13.9164 10.1538C13.3233 10.6934 12.5517 10.9947 11.7499 10.9998Z" fill="currentcolor"/>
</svg>
