<svg width="16" height="16" viewBox="0 0 16 16" fill="none" xmlns="http://www.w3.org/2000/svg">
<path d="M8.00077 1.5C8.09208 1.50008 8.18148 1.52587 8.25956 1.57324C8.33774 1.62069 8.40189 1.68841 8.44413 1.76953L14.9441 14.2695C14.9837 14.3457 15.0026 14.4308 14.9998 14.5166C14.9969 14.6024 14.9721 14.6864 14.9275 14.7598C14.8831 14.8329 14.8205 14.8935 14.7459 14.9355C14.6712 14.9776 14.5865 14.9999 14.5008 15H1.50077C1.415 15 1.33041 14.9776 1.25565 14.9355C1.18088 14.8935 1.11759 14.8331 1.07303 14.7598C1.02847 14.6864 1.00362 14.6024 1.00077 14.5166C0.997919 14.4309 1.01692 14.3457 1.05643 14.2695L7.55643 1.76953C7.59865 1.68843 7.66285 1.62069 7.741 1.57324C7.8192 1.52579 7.9093 1.5 8.00077 1.5ZM8.00174 3.08496L8.00077 3.08594L13.6756 13.998L13.6746 14H13.6756V13.998L8.00174 3.08496ZM7.85331 11.5146C7.70802 11.5437 7.57429 11.615 7.46952 11.7197C7.36475 11.8246 7.29338 11.9582 7.26444 12.1035C7.2355 12.249 7.25064 12.4001 7.30741 12.5371C7.36418 12.6741 7.46049 12.7916 7.58377 12.874C7.70693 12.9562 7.85174 12.9999 7.99979 13C8.19863 13 8.38943 12.9208 8.53006 12.7803C8.67071 12.6396 8.74979 12.4489 8.74979 12.25C8.74979 12.1017 8.70623 11.9563 8.62381 11.833C8.54141 11.7097 8.42389 11.6134 8.2869 11.5566C8.14994 11.5 7.99867 11.4857 7.85331 11.5146ZM7.43729 6V10.5H8.56229V6H7.43729Z" fill="currentcolor"/>
</svg>
