<svg width="16" height="16" viewBox="0 0 16 16" fill="none" xmlns="http://www.w3.org/2000/svg">
<path d="M8.25928 1.57373C8.32407 1.56248 8.38942 1.56773 8.45166 1.58545C9.99276 1.69388 11.4498 2.35118 12.5493 3.45068C13.7558 4.65717 14.4331 6.29426 14.4331 8.00049C14.433 8.84518 14.2671 9.68201 13.9438 10.4624C13.6205 11.2428 13.1466 11.952 12.5493 12.5493C11.952 13.1466 11.2428 13.6205 10.4624 13.9438C9.82102 14.2095 9.14124 14.367 8.45068 14.4155C8.38875 14.433 8.3237 14.4375 8.25928 14.4263C8.17311 14.4297 8.08688 14.4331 8.00049 14.4331C7.91359 14.4331 7.82642 14.4298 7.73975 14.4263C7.67532 14.4373 7.61023 14.4331 7.54834 14.4155C6.85831 14.3669 6.17949 14.2093 5.53857 13.9438C4.75805 13.6205 4.04807 13.1467 3.45068 12.5493C2.85339 11.952 2.37944 11.2428 2.05615 10.4624C1.7329 9.68201 1.56695 8.84518 1.56689 8.00049C1.56689 6.29426 2.2442 4.65717 3.45068 3.45068C4.54997 2.3514 6.00664 1.69412 7.54736 1.58545C7.60956 1.5676 7.67495 1.56263 7.73975 1.57373C7.82633 1.57023 7.91349 1.56689 8.00049 1.56689C8.08697 1.5669 8.1732 1.57026 8.25928 1.57373ZM6.65771 10.4331C6.90919 11.5312 7.33006 12.5877 7.90967 13.564C7.9398 13.5645 7.97033 13.5669 8.00049 13.5669C8.03013 13.5669 8.05974 13.5644 8.08936 13.564C8.66909 12.5876 9.09077 11.5313 9.34229 10.4331H6.65771ZM10.231 10.4331C10.0098 11.4795 9.64511 12.4925 9.14795 13.4448C9.48313 13.3742 9.81237 13.2748 10.1304 13.1431C10.8057 12.8633 11.4191 12.4529 11.936 11.936C12.3744 11.4976 12.735 10.9893 13.0054 10.4331H10.231ZM2.99463 10.4331C3.26499 10.9893 3.62558 11.4976 4.06396 11.936C4.58085 12.4529 5.1943 12.8633 5.86963 13.1431C6.18729 13.2746 6.51626 13.3742 6.85107 13.4448C6.35402 12.4926 5.99016 11.4794 5.76904 10.4331H2.99463ZM2.65967 6.43311C2.5116 6.93768 2.43311 7.46516 2.43311 8.00049C2.43315 8.53181 2.51066 9.05901 2.65967 9.56689H5.62061C5.55108 9.04946 5.51515 8.52631 5.51514 8.00049C5.51514 7.47446 5.55104 6.95074 5.62061 6.43311H2.65967ZM10.3794 6.43311C10.449 6.95074 10.4849 7.47446 10.4849 8.00049C10.4848 8.52631 10.4489 9.04946 10.3794 9.56689H13.3413C13.4903 9.05908 13.5669 8.53173 13.5669 8.00049C13.5669 7.46515 13.4884 6.93769 13.3403 6.43311H10.3794ZM6.49561 6.43311C6.42048 6.95016 6.38135 7.47407 6.38135 8.00049C6.38137 8.5267 6.42052 9.05003 6.49561 9.56689H9.50439C9.57948 9.05004 9.61863 8.5267 9.61865 8.00049C9.61865 7.47407 9.57952 6.95016 9.50439 6.43311H6.49561ZM6.85205 2.5542C5.8039 2.77517 4.83297 3.29496 4.06396 4.06396C3.62192 4.50601 3.26283 5.01512 2.99463 5.56689H5.76904C5.99027 4.52023 6.35467 3.5067 6.85205 2.5542ZM9.14697 2.5542C9.64446 3.50682 10.0097 4.52008 10.231 5.56689H13.0054C12.7372 5.01514 12.3781 4.50599 11.936 4.06396C11.1668 3.29474 10.1955 2.77504 9.14697 2.5542ZM7.90967 2.43506C7.32983 3.4115 6.90928 4.46859 6.65771 5.56689H9.34229C9.09069 4.46843 8.66932 3.41162 8.08936 2.43506C8.05975 2.43458 8.03014 2.43311 8.00049 2.43311C7.97032 2.43311 7.93978 2.43457 7.90967 2.43506Z" fill="currentcolor"/>
</svg>
