<svg xmlns="http://www.w3.org/2000/svg" viewBox="0 0 24 24" fill="currentcolor" width="24" height="24">
  <path d="M11.9941 21.2979C10.7173 21.2979 9.51407 21.0545 8.3844 20.5677C7.2549 20.0807 6.2689 19.416 5.4264 18.5737C4.58407 17.7312 3.9194 16.7452 3.4324 15.6157C2.94556 14.486 2.70215 13.2827 2.70215 12.0059C2.70215 10.7161 2.94556 9.50865 3.4324 8.38365C3.9194 7.25865 4.58407 6.27432 5.4264 5.43065C6.2689 4.58682 7.2549 3.92107 8.3844 3.4334C9.51407 2.94574 10.7173 2.7019 11.9941 2.7019C13.284 2.7019 14.4914 2.94582 15.6164 3.43365C16.7414 3.92149 17.7257 4.5874 18.5694 5.4314C19.4132 6.27524 20.079 7.25982 20.5666 8.38515C21.0543 9.51032 21.2981 10.7152 21.2981 11.9999C21.2981 13.2807 21.0543 14.486 20.5666 15.6157C20.079 16.7452 19.4132 17.7312 18.5694 18.5737C17.7257 19.416 16.7414 20.0807 15.6164 20.5677C14.4914 21.0545 13.284 21.2979 11.9941 21.2979ZM12.0001 19.9384C12.5206 19.2547 12.9573 18.5615 13.3101 17.8587C13.6631 17.156 13.9508 16.3937 14.1731 15.5719H9.8319C10.0607 16.4226 10.35 17.1977 10.6996 17.8972C11.0495 18.5967 11.483 19.2771 12.0001 19.9384ZM10.1849 19.6432C9.78806 19.0713 9.4324 18.4338 9.1179 17.7307C8.80357 17.0275 8.56098 16.3079 8.39015 15.5719H4.9799C5.50807 16.6322 6.22232 17.5136 7.12265 18.2159C8.02298 18.9181 9.04373 19.3938 10.1849 19.6432ZM13.8154 19.6432C14.9532 19.397 15.9731 18.922 16.8751 18.2182C17.7771 17.5143 18.4938 16.6322 19.0251 15.5719H15.6149C15.4089 16.3142 15.1486 17.0371 14.8341 17.7404C14.5198 18.4436 14.1802 19.0778 13.8154 19.6432ZM4.41165 14.1729H8.0964C8.03357 13.7961 7.98807 13.4283 7.9599 13.0697C7.93157 12.711 7.9174 12.3544 7.9174 11.9999C7.9174 11.6454 7.93157 11.2888 7.9599 10.9302C7.98807 10.5715 8.03357 10.2037 8.0964 9.8269H4.41165C4.30715 10.1749 4.22931 10.5309 4.17815 10.8949C4.12681 11.2589 4.10115 11.6272 4.10115 11.9999C4.10115 12.3726 4.12681 12.7409 4.17815 13.1049C4.22931 13.4689 4.30715 13.8249 4.41165 14.1729ZM9.5079 14.1729H14.4974C14.5621 13.7961 14.6093 13.4329 14.6391 13.0834C14.669 12.7337 14.6839 12.3726 14.6839 11.9999C14.6839 11.6272 14.669 11.2661 14.6391 10.9164C14.6093 10.5669 14.5621 10.2037 14.4974 9.8269H9.5079C9.4399 10.2037 9.39098 10.5669 9.36115 10.9164C9.33132 11.2661 9.3164 11.6272 9.3164 11.9999C9.3164 12.3726 9.33132 12.7337 9.36115 13.0834C9.39098 13.4329 9.4399 13.7961 9.5079 14.1729ZM15.9039 14.1729H19.5934C19.6947 13.8249 19.771 13.4689 19.8221 13.1049C19.8735 12.7409 19.8991 12.3726 19.8991 11.9999C19.8991 11.6272 19.8735 11.2589 19.8221 10.8949C19.771 10.5309 19.6947 10.1749 19.5934 9.8269H15.9039C15.9667 10.2037 16.0122 10.5715 16.0404 10.9302C16.0687 11.2888 16.0829 11.6454 16.0829 11.9999C16.0829 12.3544 16.0687 12.711 16.0404 13.0697C16.0122 13.4283 15.9667 13.7961 15.9039 14.1729ZM15.6149 8.4279H19.0251C18.4905 7.3579 17.7802 6.47657 16.8944 5.7839C16.0084 5.0914 14.9821 4.6124 13.8154 4.3469C14.2122 4.95074 14.5655 5.59949 14.8751 6.29315C15.1848 6.98682 15.4314 7.6984 15.6149 8.4279ZM9.8319 8.4279H14.1731C13.9411 7.58674 13.6455 6.80765 13.2861 6.09065C12.9268 5.37349 12.4981 4.69707 12.0001 4.0614C11.5021 4.69707 11.0735 5.37349 10.7141 6.09065C10.3548 6.80765 10.0607 7.58674 9.8319 8.4279ZM4.9799 8.4279H8.39015C8.57048 7.6984 8.81548 6.98682 9.12515 6.29315C9.43481 5.59949 9.78806 4.95074 10.1849 4.3469C9.0149 4.61557 7.98773 5.09624 7.1034 5.7889C6.21923 6.48157 5.5114 7.36124 4.9799 8.4279Z" fill="currentcolor"/>
</svg>