<svg xmlns="http://www.w3.org/2000/svg" viewBox="0 0 24 24" fill="currentcolor" width="24" height="24">
  <path d="M20.467 8.69392L20.713 8.12792C21.1455 7.12664 21.9376 6.32384 22.933 5.87792L23.692 5.53892C23.7841 5.49656 23.8621 5.42869 23.9168 5.34335C23.9714 5.25801 24.0005 5.15878 24.0005 5.05742C24.0005 4.95606 23.9714 4.85683 23.9168 4.77149C23.8621 4.68615 23.7841 4.61828 23.692 4.57592L22.975 4.25692C21.9546 3.7983 21.1489 2.9658 20.724 1.93092L20.471 1.31992C20.4338 1.22528 20.369 1.14402 20.285 1.08675C20.201 1.02947 20.1017 0.99884 20 0.99884C19.8983 0.99884 19.799 1.02947 19.715 1.08675C19.631 1.14402 19.5662 1.22528 19.529 1.31992L19.276 1.92992C18.8515 2.965 18.0462 3.79785 17.026 4.25692L16.308 4.57692C16.2162 4.6194 16.1385 4.68726 16.084 4.7725C16.0295 4.85773 16.0006 4.95677 16.0006 5.05792C16.0006 5.15907 16.0295 5.25812 16.084 5.34335C16.1385 5.42858 16.2162 5.49644 16.308 5.53892L17.068 5.87692C18.0632 6.32329 18.8549 7.12645 19.287 8.12792L19.533 8.69392C19.713 9.10792 20.286 9.10792 20.467 8.69392ZM5.8 15.9999H7.954L8.554 14.4999H11.446L12.046 15.9999H14.2L11 7.99992H9L5.8 15.9999ZM10 10.8849L10.646 12.4999H9.354L10 10.8849ZM15 15.9999V7.99992H17V15.9999H15ZM3 2.99992C2.73478 2.99992 2.48043 3.10528 2.29289 3.29281C2.10536 3.48035 2 3.7347 2 3.99992V19.9999C2 20.2651 2.10536 20.5195 2.29289 20.707C2.48043 20.8946 2.73478 20.9999 3 20.9999H21C21.2652 20.9999 21.5196 20.8946 21.7071 20.707C21.8946 20.5195 22 20.2651 22 19.9999V10.9999H20V18.9999H4V4.99992H14V2.99992H3Z" fill="currentcolor"/>
</svg>