<svg xmlns="http://www.w3.org/2000/svg" viewBox="0 0 24 24" fill="currentcolor" width="24" height="24">
  <g clip-path="url(#clip0_325_205775)">
    <path d="M8.25 9.75H5.75V20.25H18.25V9.75H15.75V8.25H18.5C19.1904 8.25 19.75 8.80964 19.75 9.5V20.5C19.75 21.1904 19.1904 21.75 18.5 21.75H5.5C4.80964 21.75 4.25 21.1904 4.25 20.5V9.5C4.25 8.80964 4.80964 8.25 5.5 8.25H8.25V9.75ZM11.4697 2.46973C11.7626 2.17684 12.2374 2.17683 12.5303 2.46973L16.0605 6L15 7.06055L12.75 4.81055V14.75H11.25V4.81055L9 7.06055L7.93945 6L11.4697 2.46973Z" fill="currentcolor"/>
  </g>
  <defs>
    <clipPath id="clip0_325_205775">
      <rect fill="white"/>
    </clipPath>
  </defs>
</svg>