<svg xmlns="http://www.w3.org/2000/svg" viewBox="0 0 20 20" fill="currentcolor" width="20" height="20">
  <path d="M12.6002 7.00001C13.3734 7.00001 14.0002 6.37321 14.0002 5.60001C14.0002 4.82681 13.3734 4.20001 12.6002 4.20001C11.827 4.20001 11.2002 4.82681 11.2002 5.60001C11.2002 6.37321 11.827 7.00001 12.6002 7.00001Z" fill="currentcolor"/>
  <path d="M18.6 0H0.6C0.2 0 0 0.2 0 0.6V18.6C0 19 0.3 19.3 0.6 19.3H18.6C19 19.3 19.3 19 19.3 18.6V0.6C19.3 0.2 19 0 18.6 0ZM17.9 1.2V12L16 10.1C14.8 9 13.3 9 12.1 10.1L11.6 10.7L9.1 8.2C7.9 7.1 6.4 7.1 5.2 8.2L1.3 12.1V1.2H17.9ZM1.2 17.9V13.8L6 9C6.7 8.3 7.4 8.4 8.1 9L13.1 14L14 13.1L12.5 11.6L13 11.1C13.7 10.4 14.4 10.4 15.1 11.1L17.9 13.9V18H1.2V17.9Z" fill="currentcolor"/>
</svg>