<svg xmlns="http://www.w3.org/2000/svg" viewBox="0 0 24 24" fill="currentcolor" width="24" height="24">
  <path d="M11.9695 2.06897C6.50164 2.06897 2.06885 6.50164 2.06885 11.9695C2.06885 17.4376 6.50164 21.8699 11.9695 21.8699C17.438 21.8699 21.8703 17.4376 21.8703 11.9695C21.8703 6.50199 17.438 2.06944 11.9694 2.06944L11.9695 2.06897ZM16.5099 16.3484C16.3325 16.6392 15.9518 16.7314 15.661 16.5529C13.3364 15.133 10.4101 14.8114 6.96378 15.5988C6.63168 15.6745 6.30065 15.4664 6.22499 15.1342C6.14897 14.802 6.35622 14.4709 6.68914 14.3953C10.4606 13.5333 13.6956 13.9046 16.3053 15.4995C16.5962 15.678 16.6884 16.0575 16.5099 16.3484ZM17.7217 13.6522C17.4982 14.0158 17.023 14.1304 16.66 13.907C13.9987 12.2709 9.94203 11.7971 6.79425 12.7526C6.38601 12.8759 5.95484 12.6459 5.83094 12.2383C5.70798 11.8301 5.93817 11.3998 6.3457 11.2756C9.94132 10.1846 14.4113 10.7131 17.4675 12.5911C17.8305 12.8146 17.9451 13.2897 17.7217 13.6522ZM17.8257 10.845C14.6348 8.94976 9.37017 8.77549 6.32359 9.70014C5.83437 9.84852 5.31701 9.57234 5.16875 9.08312C5.02049 8.59366 5.29643 8.07665 5.78601 7.92793C9.28327 6.86625 15.0971 7.07137 18.7708 9.2523C19.2118 9.51346 19.3561 10.0818 19.0948 10.5212C18.8347 10.9613 18.2648 11.1063 17.8262 10.845H17.8257Z" fill="currentcolor"/>
</svg>