<svg xmlns="http://www.w3.org/2000/svg" viewBox="0 0 28 28" fill="currentcolor" width="28" height="28">
  <path d="M16.625 3.49996C15.304 3.49719 14.0037 3.82746 12.8441 4.46023C11.6846 5.09301 10.7033 6.00787 9.99084 7.12026C9.27842 8.23265 8.85791 9.50669 8.76816 10.8246C8.67842 12.1425 8.92234 13.4618 9.47739 14.6605L1.75 22.3876L2.98734 23.625L10.4137 16.1986C10.8169 16.7169 11.283 17.1831 11.8014 17.5862L8.75 20.6376L9.98734 21.875L13.3397 18.5227C14.4089 19.0144 15.5746 19.2602 16.7513 19.2418C17.9279 19.2235 19.0855 18.9416 20.1388 18.4168C21.1921 17.892 22.1143 17.1377 22.8376 16.2095C23.5609 15.2812 24.0669 14.2026 24.3183 13.053C24.5697 11.9034 24.5602 10.712 24.2904 9.56658C24.0205 8.42114 23.4973 7.35078 22.7592 6.43425C22.0211 5.51772 21.0869 4.77835 20.0253 4.27054C18.9637 3.76273 17.8018 3.49941 16.625 3.49996ZM22.6676 10.4175C21.3923 10.2137 20.214 9.61229 19.3009 8.6991C18.3877 7.78592 17.7863 6.60763 17.5824 5.33238C18.8577 5.53621 20.036 6.13763 20.9491 7.05081C21.8623 7.96399 22.4637 9.14228 22.6676 10.4175ZM10.5824 12.3324C11.8577 12.5362 13.036 13.1376 13.9491 14.0508C14.8623 14.964 15.4637 16.1423 15.6676 17.4175C14.3923 17.2137 13.214 16.6123 12.3009 15.6991C11.3877 14.7859 10.7863 13.6076 10.5824 12.3324ZM17.4388 17.4393C17.2267 15.6886 16.4339 14.0596 15.1869 12.8126C13.94 11.5656 12.311 10.7727 10.5603 10.5606C10.7404 9.23161 11.3515 7.9984 12.2998 7.05008C13.2481 6.10176 14.4813 5.49069 15.8103 5.31059C16.0223 7.06128 16.8152 8.69034 18.0621 9.93733C19.309 11.1843 20.9381 11.9772 22.6888 12.1893C22.5087 13.5183 21.8976 14.7515 20.9493 15.6998C20.0009 16.6482 18.7677 17.2592 17.4388 17.4393Z" fill="currentcolor"/>
</svg>