<svg xmlns="http://www.w3.org/2000/svg" viewBox="0 0 28 28" fill="currentcolor" width="28" height="28">
  <path d="M26.25 22.75H24.5C23.8209 22.756 23.15 22.6016 22.5419 22.2995C21.9337 21.9973 21.4054 21.5559 21 21.0111C20.5904 21.5514 20.0613 21.9896 19.4541 22.2913C18.8469 22.593 18.178 22.75 17.5 22.75C16.822 22.75 16.1531 22.593 15.5459 22.2913C14.9387 21.9896 14.4096 21.5514 14 21.0111C13.5904 21.5514 13.0613 21.9896 12.4541 22.2913C11.8469 22.593 11.178 22.75 10.5 22.75C9.82197 22.75 9.15314 22.593 8.54592 22.2913C7.9387 21.9896 7.40957 21.5514 7 21.0111C6.59459 21.5559 6.06632 21.9973 5.45814 22.2995C4.84997 22.6016 4.17907 22.756 3.5 22.75H1.75V21H3.5C4.09666 20.9649 4.66937 20.753 5.14515 20.3912C5.62093 20.0295 5.97824 19.5342 6.17155 18.9687C6.22689 18.7934 6.33753 18.6409 6.48689 18.5338C6.63625 18.4268 6.81629 18.3711 7 18.375C7.18343 18.3759 7.36201 18.434 7.51082 18.5413C7.65963 18.6485 7.77125 18.7996 7.83011 18.9733C8.02387 19.5379 8.3812 20.032 8.85664 20.3929C9.33207 20.7538 9.90412 20.9651 10.5 21C11.0967 20.9649 11.6694 20.753 12.1452 20.3912C12.6209 20.0295 12.9782 19.5342 13.1715 18.9687C13.2292 18.7948 13.3404 18.6438 13.4892 18.5371C13.6381 18.4304 13.8169 18.3737 14 18.375C14.1834 18.3759 14.362 18.434 14.5108 18.5413C14.6596 18.6485 14.7713 18.7996 14.8301 18.9733C15.0239 19.5379 15.3812 20.032 15.8566 20.3929C16.3321 20.7538 16.9041 20.9651 17.5 21C18.0967 20.9649 18.6694 20.753 19.1452 20.3912C19.6209 20.0295 19.9782 19.5342 20.1716 18.9687C20.2305 18.7952 20.3424 18.6446 20.4915 18.5381C20.6405 18.4316 20.8193 18.3746 21.0025 18.3751C21.1857 18.3756 21.3641 18.4336 21.5126 18.541C21.6611 18.6483 21.7722 18.7995 21.8301 18.9733C22.0239 19.5379 22.3812 20.032 22.8566 20.3929C23.3321 20.7538 23.9041 20.9651 24.5 21H26.25V22.75Z" fill="currentcolor"/>
  <path d="M20.125 15.3876L12.5064 7.76902C12.2632 7.52439 11.9739 7.33045 11.6553 7.19844C11.3366 7.06643 10.9949 6.99897 10.65 6.99998H3.5V8.74998H10.65C10.765 8.74963 10.8789 8.7721 10.9852 8.81611C11.0915 8.86012 11.1879 8.92479 11.269 9.00636L13.6377 11.375L8.75 16.2626L9.98734 17.5L14.875 12.6123L18.8877 16.625L20.125 15.3876Z" fill="currentcolor"/>
  <path d="M17.5 8.75C17.5 8.05777 17.7053 7.38108 18.0899 6.80551C18.4744 6.22993 19.0211 5.78133 19.6606 5.51642C20.3001 5.25152 21.0039 5.1822 21.6828 5.31725C22.3617 5.4523 22.9854 5.78564 23.4749 6.27513C23.9644 6.76461 24.2977 7.38825 24.4327 8.06719C24.5678 8.74612 24.4985 9.44985 24.2336 10.0894C23.9687 10.7289 23.5201 11.2756 22.9445 11.6601C22.3689 12.0447 21.6922 12.25 21 12.25C20.072 12.249 19.1824 11.88 18.5262 11.2238C17.87 10.5676 17.501 9.67796 17.5 8.75ZM19.25 8.75C19.25 9.09612 19.3526 9.43446 19.5449 9.72225C19.7372 10.01 20.0105 10.2343 20.3303 10.3668C20.6501 10.4992 21.0019 10.5339 21.3414 10.4664C21.6809 10.3989 21.9927 10.2322 22.2374 9.98744C22.4822 9.7427 22.6489 9.43088 22.7164 9.09141C22.7839 8.75194 22.7492 8.40008 22.6168 8.08031C22.4843 7.76054 22.26 7.48722 21.9722 7.29493C21.6845 7.10264 21.3461 7 21 7C20.536 7.00053 20.0912 7.18508 19.7632 7.51315C19.4351 7.84123 19.2505 8.28604 19.25 8.75Z" fill="currentcolor"/>
</svg>