<svg xmlns="http://www.w3.org/2000/svg" viewBox="0 0 28 28" fill="currentcolor" width="28" height="28">
  <path d="M18.9936 17.7564L14.6186 13.3814C14.4479 13.2105 14.224 13.125 14 13.125C13.776 13.125 13.552 13.2105 13.3814 13.3814L1.75 25.0127L2.98751 26.25L14 15.2373L17.1375 18.375L12.25 23.2627L13.4875 24.5L18.9936 18.9936C19.1645 18.8227 19.25 18.5988 19.25 18.375C19.25 18.1512 19.1645 17.9273 18.9936 17.7564Z" fill="currentcolor"/>
  <path d="M25.0127 7.875L20.125 12.7627L14.8739 7.51135C14.5309 7.16853 14.0801 6.99816 13.6297 6.99991C13.1838 7.00166 12.7385 7.17211 12.3992 7.51135L7.00008 12.9147L8.23759 14.1521L13.6367 8.74913L19.5065 14.6186C19.6772 14.7895 19.9013 14.875 20.1251 14.875C20.3489 14.875 20.5731 14.7895 20.7437 14.6186L26.2501 9.11225L25.0127 7.875Z" fill="currentcolor"/>
  <path d="M19.6875 7.875C17.9988 7.875 16.625 6.50116 16.625 4.8125C16.625 3.12384 17.9988 1.75 19.6875 1.75C21.3762 1.75 22.75 3.12384 22.75 4.8125C22.75 6.50116 21.3762 7.875 19.6875 7.875ZM19.6875 3.5C18.9638 3.5 18.375 4.08879 18.375 4.8125C18.375 5.53621 18.9638 6.125 19.6875 6.125C20.4112 6.125 21 5.53621 21 4.8125C21 4.08879 20.4112 3.5 19.6875 3.5Z" fill="currentcolor"/>
</svg>