<svg xmlns="http://www.w3.org/2000/svg" viewBox="0 0 23 23" fill="currentcolor" width="23" height="23">
  <path d="M18.9936 17.7564C17.8569 16.6903 16.4105 16.0134 14.8636 15.8235C15.0379 15.68 15.2076 15.5292 15.3691 15.3677C16.4329 14.2228 17.1423 12.7942 17.4115 11.2547C17.6806 9.71526 17.4981 8.13076 16.8859 6.69283L15.2437 7.30297C16.2149 9.9109 15.7989 12.4633 14.1305 14.1299C13.4916 14.7439 12.7218 15.205 11.879 15.4785C11.0362 15.752 10.1423 15.8309 9.26461 15.709C7.35533 15.487 5.57648 14.6284 4.21498 13.2716C1.61387 10.6729 0.648572 6.07245 3.35705 3.3666C5.0255 1.69947 7.58041 1.2841 10.1903 2.25448L10.8016 0.613855C7.57892 -0.583582 4.25173 -0.00336978 2.11813 2.12901C-1.33173 5.57519 -0.223453 11.3127 2.97563 14.5093C4.62238 16.1473 6.7728 17.183 9.08016 17.4493C9.26391 17.4685 9.44355 17.4698 9.62467 17.4783V17.5H13.9969C15.3852 17.547 16.7141 18.075 17.756 18.9937L21.5127 22.75L22.75 21.5127L18.9936 17.7564Z" fill="currentcolor"/>
</svg>