<svg xmlns="http://www.w3.org/2000/svg" viewBox="0 0 24 24" fill="currentcolor" width="24" height="24">
  <path fill-rule="evenodd" clip-rule="evenodd" d="M9.6501 4.0001C9.6501 3.79116 9.54966 3.59496 9.38016 3.4728C9.21066 3.35063 8.99277 3.31739 8.79455 3.38346L2.79455 5.38346C2.52913 5.47193 2.3501 5.72032 2.3501 6.0001V11.0001C2.3501 11.3591 2.64111 11.6501 3.0001 11.6501H5.3501V20.0001C5.3501 20.3591 5.64111 20.6501 6.0001 20.6501H18.0001C18.3591 20.6501 18.6501 20.3591 18.6501 20.0001V11.6501H21.0001C21.3591 11.6501 21.6501 11.3591 21.6501 11.0001V6.0001C21.6501 5.72032 21.4711 5.47193 21.2056 5.38346L15.2056 3.38346C15.0074 3.31739 14.7895 3.35063 14.62 3.4728C14.4505 3.59496 14.3501 3.79116 14.3501 4.0001C14.3501 5.34112 13.3411 6.3501 12.0001 6.3501C10.6591 6.3501 9.6501 5.34112 9.6501 4.0001ZM3.6501 10.3501V6.4686L8.44849 4.86913C8.82501 6.49004 10.2419 7.6501 12.0001 7.6501C13.7582 7.6501 15.1752 6.49004 15.5517 4.86913L20.3501 6.4686V10.3501H18.0001C17.6411 10.3501 17.3501 10.6411 17.3501 11.0001V19.3501H6.6501V11.0001C6.6501 10.6411 6.35908 10.3501 6.0001 10.3501H3.6501ZM13.0001 10.3501H9.8501V11.6501H12.1265L10.6907 16.4359L11.9359 16.8095L13.6227 11.1869C13.6817 10.9901 13.6442 10.7769 13.5216 10.6121C13.3989 10.4472 13.2056 10.3501 13.0001 10.3501Z" fill="currentcolor"/>
</svg>