<svg xmlns="http://www.w3.org/2000/svg" viewBox="0 0 24 24" fill="currentcolor" width="24" height="24">
  <path d="M21.1999 5.4L15.1999 3.4C14.9999 3.3 14.7999 3.4 14.5999 3.5C14.3999 3.6 14.2999 3.8 14.2999 4C14.2999 5.3 13.2999 6.4 11.9999 6.4C10.6999 6.4 9.5999 5.3 9.5999 4C9.5999 3.8 9.4999 3.6 9.2999 3.5C9.1999 3.4 8.9999 3.3 8.7999 3.4L2.7999 5.4C2.4999 5.5 2.3999 5.7 2.3999 6V11C2.3999 11.4 2.6999 11.6 2.9999 11.6H5.3999V20C5.3999 20.4 5.6999 20.7 5.9999 20.7H17.9999C18.3999 20.7 18.6999 20.4 18.6999 20V11.6H20.9999C21.3999 11.6 21.6999 11.3 21.6999 11V6C21.6999 5.7 21.4999 5.5 21.1999 5.4ZM13.6999 11.2L11.9999 16.9L10.5999 16.5L11.9999 11.7H9.7999V10.2H12.9999C13.1999 10.2 13.4999 10.3 13.5999 10.5C13.6999 10.7 13.7999 11 13.6999 11.2Z" fill="currentcolor"/>
</svg>