<svg xmlns="http://www.w3.org/2000/svg" viewBox="0 0 28 28" fill="currentcolor" width="28" height="28">
  <path d="M23.1584 11.6084C22.6334 9.66391 21.6077 8.0403 20.0813 6.73752C18.5549 5.43474 16.7806 4.68613 14.7584 4.49169V6.65002L23.1584 11.6084ZM8.80841 16.1L13.1834 13.5334V4.49169C12.3862 4.58891 11.6181 4.75419 10.8792 4.98752C10.1404 5.22085 9.45008 5.56113 8.80841 6.00835V16.1ZM5.42508 18.0834L7.23341 16.9613V7.29169C6.28064 8.1278 5.5855 9.13405 5.148 10.3104C4.7105 11.4868 4.49175 12.7181 4.49175 14.0044C4.49175 14.7141 4.56466 15.4109 4.7105 16.0948C4.85633 16.7788 5.09453 17.4417 5.42508 18.0834ZM9.62508 22.4584L18.3751 17.4417L14.0001 14.875L6.18341 19.425C6.59175 20.0861 7.09244 20.6792 7.6855 21.2042C8.27855 21.7292 8.92508 22.1472 9.62508 22.4584ZM14.0001 23.5084C15.5665 23.5084 17.0324 23.1486 18.3978 22.4292C19.7632 21.7097 20.9029 20.7084 21.8167 19.425L19.9501 18.375L11.5501 23.1584C11.9195 23.3139 12.3149 23.4111 12.7363 23.45C13.1575 23.4889 13.5787 23.5084 14.0001 23.5084ZM22.5751 18.0834C22.9251 17.3639 23.1827 16.6299 23.348 15.8813C23.5133 15.1327 23.5667 14.3695 23.5084 13.5917L14.7584 8.45835V13.5334L22.5751 18.0834ZM14.005 25.0834C12.4726 25.0834 11.0317 24.7926 9.68225 24.211C8.3328 23.6294 7.15904 22.84 6.16096 21.8429C5.16268 20.8458 4.37246 19.6734 3.79029 18.3257C3.20793 16.9778 2.91675 15.5376 2.91675 14.005C2.91675 12.4726 3.20754 11.0316 3.78912 9.68219C4.37071 8.33274 5.16005 7.15898 6.15716 6.16089C7.15428 5.16262 8.32668 4.3724 9.67437 3.79023C11.0223 3.20787 12.4625 2.91669 13.9951 2.91669C15.5275 2.91669 16.9685 3.20748 18.3179 3.78906C19.6674 4.37064 20.8411 5.15999 21.8392 6.1571C22.8375 7.15421 23.6277 8.32662 24.2099 9.67431C24.7922 11.0222 25.0834 12.4625 25.0834 13.9951C25.0834 15.5275 24.7926 16.9684 24.211 18.3179C23.6295 19.6673 22.8401 20.8411 21.843 21.8391C20.8459 22.8374 19.6735 23.6276 18.3258 24.2098C16.9779 24.7922 15.5377 25.0834 14.005 25.0834Z" fill="currentcolor"/>
</svg>