<svg xmlns="http://www.w3.org/2000/svg" width="22" height="50" viewBox="0 0 22 50" fill="none">
  <path d="M5.11696 0H16.8831C19.7152 0 22 2.2985 22 5.1169V44.8071C22 47.6392 19.7015 49.924 16.8831 49.924H5.11696C2.28488 49.924 6.07631e-05 47.6255 6.07631e-05 44.8071V5.1169C-0.0136208 2.2985 2.28488 0 5.11696 0Z" fill="white"/>
  <path d="M20.824 44.8207V5.11681C20.824 2.95513 19.059 1.20389 16.8974 1.20389H10.0429C11.2332 2.20264 11.3837 3.98124 10.3849 5.15786C9.85135 5.80089 9.05782 6.15661 8.22325 6.15661C8.19588 6.15661 8.15484 6.15661 8.12748 6.14293C8.11379 6.25238 8.1138 6.55337 8.10011 6.73123C8.08643 6.90909 8.01802 7.07327 7.92225 7.22377C7.89489 7.29218 7.89489 7.36059 7.92225 7.42899C8.03171 7.8668 8.60633 9.87799 8.68842 10.179C8.92101 10.9725 9.12623 11.9302 9.12623 12.6417C9.222 11.9165 9.86503 10.8904 11.3016 10.8904C11.5342 10.8904 11.7668 10.9315 11.8489 11.0683C12.1225 11.1093 12.3551 11.2461 12.5329 11.4514C12.916 11.8345 12.8476 12.1218 12.9297 12.2859C12.9981 12.4091 13.518 12.6006 13.518 13.6131C13.518 14.0235 13.6001 14.3108 13.6001 14.4476C13.6138 14.5981 13.5317 14.7486 13.3812 14.817C13.2854 14.8718 13.2033 14.9265 13.1076 14.9949C12.9571 15.077 12.8887 15.1454 12.8887 15.2822C12.8887 15.4053 12.916 15.5148 12.9571 15.6242C12.9844 15.6927 13.0528 15.7474 13.1349 15.7611C13.4086 15.7474 13.6959 15.7474 13.9695 15.7747C14.3799 15.5011 14.8725 15.3643 15.365 15.3643C15.5429 15.3643 15.8576 15.3917 15.967 15.4053C16.1996 15.2138 16.4732 15.1043 16.7605 15.077C16.3227 14.133 16.3227 13.3121 15.926 12.2859C15.7071 11.766 15.4745 11.1504 15.4061 10.9862C15.365 10.9041 15.324 10.8083 15.2692 10.7399C15.1598 10.6305 15.0503 10.521 14.9683 10.3842C14.8451 10.2063 14.7767 9.98744 14.763 9.78222C14.7493 9.75486 14.7493 9.72749 14.7493 9.70013C14.7357 9.52227 14.5304 9.18023 14.421 8.92028C14.3115 8.63297 14.0653 8.49615 14.0653 8.30461C14.0653 8.20884 14.161 8.15412 14.2842 8.15412C14.5031 8.1678 14.6946 8.31829 14.763 8.5372C14.9135 8.85187 14.9956 9.09814 15.1598 9.09814C15.2419 9.09814 15.3103 9.08446 15.3787 9.04342C15.4882 8.96133 15.5976 8.50984 15.625 8.3183C15.6797 7.83944 15.7891 7.16904 15.967 6.77228C16.0354 6.63546 16.1312 6.56706 16.1996 6.56706C16.2543 6.56706 16.309 6.62178 16.309 6.67651C16.2954 6.79964 16.268 6.93646 16.227 7.05959C16.2133 7.14168 16.1722 7.37427 16.1312 7.57949C16.227 7.34691 16.3364 7.128 16.3638 7.05959C16.4185 6.92278 16.61 6.6081 16.7742 6.6081C16.8974 6.6081 16.9384 6.69019 16.9384 6.73123C16.8974 6.88173 16.8289 7.01855 16.7605 7.15536C16.6648 7.34691 16.5827 7.55213 16.5416 7.75735C16.6237 7.66158 16.7332 7.47004 16.911 7.47004C16.9931 7.47004 17.0342 7.51108 17.0342 7.56581C17.0205 7.62054 17.0068 7.68894 16.9794 7.74367C16.9658 7.77103 16.7605 8.11307 16.7332 8.20884C16.6921 8.30461 16.5827 8.61929 16.4869 8.82451C16.528 8.81083 16.5416 8.76979 16.6237 8.76979C16.6784 8.76979 16.7195 8.81083 16.7195 8.86556C16.6648 9.04342 16.5964 9.2076 16.4869 9.34441C16.4732 9.48123 16.4595 9.61804 16.4322 9.76854C16.4048 10.0148 16.4048 10.2748 16.4459 10.521C16.4869 10.6989 16.5553 10.8767 16.6374 11.0409C17.0479 11.9165 17.9235 12.8743 18.3886 13.7772C18.7444 14.4476 19.0317 15.1728 19.0317 15.8158C19.0317 15.9663 18.9633 16.1168 18.8265 16.2126C18.3476 16.623 17.8277 16.9787 17.2668 17.2797C16.7879 17.4986 15.666 17.7996 15.4334 17.9638C15.1872 18.1143 14.7767 18.6752 14.7767 18.6752C14.9272 19.1678 15.023 19.6877 15.064 20.2076C15.0777 20.618 14.8588 21.2337 14.7357 21.6989C14.5578 22.4103 14.2021 23.7785 14.0653 24.3804C13.9148 25.0098 13.8327 25.6665 13.819 26.3095C13.819 26.6789 13.8464 27.0483 13.9148 27.4041C14.8041 28.3481 16.7058 30.7424 16.7058 31.5906C16.6648 32.0011 16.4595 32.3841 16.1449 32.6441C15.5429 33.0819 14.763 34.3269 14.5031 34.6142C13.6411 35.6267 12.7792 36.5707 12.3277 37.2685C12.4645 37.2821 12.5329 37.3642 12.5329 37.4463C12.5329 37.7336 12.2867 37.8294 12.1909 37.9252C12.0951 38.0073 12.1362 38.363 12.1909 38.5135C12.2456 38.6093 12.2456 38.7187 12.1909 38.8145C12.314 38.9103 12.2319 39.1292 12.2319 39.1292C12.3277 39.2386 12.314 39.6354 12.314 39.6354C12.3824 39.9227 12.4919 40.21 12.6424 40.4699C12.6834 40.552 12.7108 40.6341 12.7108 40.7162C12.6971 40.9488 12.4782 41.0719 12.1635 41.0719C10.9869 41.0719 9.81031 39.5806 9.93344 39.4302C8.59265 41.0583 6.41728 43.0831 6.34887 43.1789C6.29415 43.2336 6.23942 43.3157 6.17101 43.3704C6.23942 43.4115 6.30783 43.5483 6.30783 43.5483C6.60882 43.6577 6.17101 43.9724 6.02052 43.9861C5.77425 43.9998 5.87002 44.0408 5.76057 44.1366C5.58271 44.2871 5.43221 44.4513 5.29539 44.6291C5.17226 44.7933 5.13122 45.1901 5.00808 45.6005C4.87127 46.0931 4.70709 46.3941 4.70709 46.7771C4.70709 46.8319 4.72077 47.2697 4.72077 47.3791C4.72077 48.3232 4.4745 48.5557 4.05037 48.5968C4.39241 48.6926 4.74813 48.7473 5.11753 48.7473H16.9384C19.0727 48.7336 20.824 46.9824 20.824 44.8207ZM11.8899 45.9426C11.8899 46.5719 11.4931 47.0234 10.9048 47.0234C10.6449 47.0371 10.3849 46.9413 10.1934 46.7635C10.0019 46.9413 9.75558 47.0371 9.49563 47.0234C8.93469 47.0234 8.51056 46.613 8.51056 45.9426V41.8381H9.3725V45.9836C9.3725 46.1067 9.48195 46.1888 9.5914 46.1888C9.70085 46.1888 9.78294 46.0931 9.79663 45.9836V41.8381H10.6038V45.9836C10.6038 46.0931 10.6859 46.1752 10.7817 46.1888H10.8091C10.9185 46.2025 11.0143 46.1068 11.0143 45.9973V45.9836V41.8381H11.8762V45.9426H11.8899ZM14.3663 46.9413H13.518V42.7548C13.518 42.6727 13.477 42.6043 13.3949 42.6043C13.2581 42.6043 13.1486 42.7548 13.0665 42.8916V46.9413H12.2046V41.8381H12.9707V42.0844C13.1212 41.8655 13.3675 41.7423 13.6275 41.7423C14.079 41.7423 14.3526 42.0844 14.3526 42.6316L14.3663 46.9413ZM16.8426 45.9699C16.8426 46.6951 16.3775 46.9413 15.8986 46.9413H14.722V41.8381H15.8576C16.3911 41.8381 16.8426 42.0707 16.8426 42.7958V43.6304C16.8426 44.1366 16.5964 44.2324 16.4732 44.3008C16.5827 44.3555 16.8426 44.4923 16.8426 44.9712V45.9699ZM19.2095 42.8095V46.9413H18.6075C18.5939 46.8866 18.5802 46.7771 18.5665 46.7224C18.4297 46.914 18.2108 47.0371 17.9645 47.0097C17.4446 47.0097 17.0889 46.654 17.0889 45.8742V45.5048C17.0889 44.6018 17.5677 44.1229 18.375 43.6441V42.7548C18.375 42.6453 18.2792 42.5495 18.1561 42.5495H18.1424C18.0329 42.5495 17.9372 42.6453 17.9372 42.7548V43.6304H17.0752V42.8505C17.0752 42.1938 17.513 41.7423 18.1424 41.7423C18.758 41.7423 19.2095 42.098 19.2095 42.8095ZM18.375 45.8468V44.6018C18.1013 44.766 17.9371 45.0669 17.9508 45.3953V45.9015C17.9508 46.0931 18.0056 46.1888 18.1561 46.1888C18.2929 46.1752 18.375 46.0657 18.375 45.8468ZM16.0217 45.9015V44.9301C16.0217 44.7523 15.9533 44.6702 15.7891 44.6702H15.5702V46.1615H15.8028C15.9396 46.1615 16.0217 46.0794 16.0217 45.9015ZM16.0217 43.6988V42.8642C16.0354 42.7274 15.926 42.6043 15.7891 42.5906H15.7481H15.5702V43.9587H15.7481C15.8849 43.9724 16.0081 43.863 16.0217 43.7262V43.6988ZM6.64987 16.4315C6.64987 16.1852 6.773 16.0757 6.773 15.8979C6.773 15.679 6.71828 15.5695 6.62251 15.5011C6.66355 15.3506 6.78668 15.2412 6.95086 15.2138C7.06031 15.2138 7.16977 15.2548 7.23818 15.1864C7.04663 15.0633 7.10136 14.9128 7.08768 14.7897C7.34763 14.8581 7.62126 14.7349 7.74439 14.5024C7.49812 14.0235 6.82773 12.8058 6.84141 11.123C6.85509 10.0011 6.89614 8.78347 6.75932 7.93521C6.71828 7.67526 6.64987 7.18273 6.62251 7.05959C6.56778 6.62178 5.96579 5.88298 5.93843 5.80089C5.80161 5.41781 5.7332 5.02104 5.71952 4.61059C5.52798 4.22751 5.43221 3.80338 5.43221 3.36557C5.43221 2.531 5.80161 1.75115 6.43096 1.21757H5.09017C2.92849 1.21757 1.19093 2.96881 1.17725 5.13049V44.848C1.17725 46.4625 2.16232 47.9127 3.66729 48.501C3.10634 48.0085 2.90112 47.0234 2.90112 46.5446C2.90112 46.052 3.03794 45.6963 3.03794 45.409C3.03794 44.7249 2.75063 44.465 2.66854 43.9861C2.64117 43.7535 2.64117 43.5209 2.65485 43.2883C2.65485 42.6727 3.39366 42.4948 4.54291 42.3717C4.63868 42.358 4.76181 42.358 4.83022 42.4264C5.25435 42.3306 6.85509 38.8555 7.04663 38.4998C7.51181 37.6242 8.05907 36.9401 9.0031 36.6254C9.11255 36.1055 9.41354 34.4364 9.42722 33.6428C9.34513 33.5881 9.20832 33.5471 9.20832 33.3555C9.20832 32.9588 9.46827 32.3978 9.46827 31.6727C9.45459 31.4675 9.42722 31.2623 9.38618 31.0707C8.14116 29.47 7.8128 28.6901 7.8128 27.5272C7.8128 25.6939 8.94837 25.0782 9.18096 24.4899C9.20832 24.4215 9.222 24.3531 9.23568 24.2847C9.23568 24.2163 9.19464 24.1889 9.19464 24.1068C9.18096 23.97 9.26304 23.8332 9.41354 23.8058C9.42722 23.8058 9.44091 23.7921 9.44091 23.7374C9.44091 23.6827 9.39986 23.4775 9.38618 23.409C8.93469 21.1242 8.36006 19.975 8.36006 18.1964C8.34638 17.9638 8.37374 17.7312 8.41479 17.4986C8.34638 17.5123 8.27797 17.526 8.19588 17.526C7.88121 17.5397 7.60758 17.2934 7.58021 16.965C7.48444 16.9787 7.40235 16.9924 7.30658 16.9787C6.89614 16.965 6.64987 16.7461 6.64987 16.4315Z" fill="#F15623"/>
</svg>