<svg xmlns="http://www.w3.org/2000/svg" viewBox="0 0 24 24" fill="currentcolor" width="24" height="24">
  <path fill-rule="evenodd" clip-rule="evenodd" d="M11.4 2.29998C13.7 2.09998 16 2.89998 17.7 4.49998C21.4 7.79998 21.7 13.2 18.5 16.7C18.4 16.9 18.2 17.1 18 17.3L18 17.3L17.8 17.5C17.7464 17.5268 17.7 17.5536 17.6569 17.5784C17.5393 17.6464 17.4464 17.7 17.3 17.7H6.70003C6.60003 17.7 6.40003 17.6 6.30003 17.5C2.70003 14.3 2.40003 8.99998 5.50003 5.29998C7.00003 3.49998 9.10003 2.39998 11.4 2.29998ZM11 7.79998H11.8V6.19998H11C8.80003 6.19998 7.20003 7.89998 7.20003 9.99998V10.8H8.80003V9.99998C8.80003 8.79998 9.70003 7.79998 11 7.79998ZM5 18.6001H19V21.0001H5V18.6001Z" fill="currentcolor"/>
</svg>