<svg xmlns="http://www.w3.org/2000/svg" viewBox="0 0 24 24" fill="currentcolor" width="24" height="24">
  <path fill-rule="evenodd" clip-rule="evenodd" d="M12.0608 11.0001L4.00011 2.93945L2.93945 4.00011L11.0001 12.0608L12.0608 11.0001ZM15.5 10.25C15.7841 10.25 16.0438 10.4105 16.1708 10.6646L17.5 13.323L20.1233 13.7602C20.4004 13.8064 20.6285 14.0036 20.7142 14.2711C20.8 14.5387 20.729 14.8317 20.5303 15.0303L18.7955 16.7652L19.2425 19.8939C19.2819 20.1701 19.1649 20.4453 18.9386 20.6084C18.7122 20.7715 18.4141 20.7956 18.1646 20.6708L15.5 19.3385L12.8354 20.6708C12.5859 20.7956 12.2878 20.7715 12.0615 20.6084C11.8352 20.4453 11.7181 20.1701 11.7576 19.8939L12.2045 16.7652L10.4697 15.0303C10.271 14.8317 10.2001 14.5387 10.2858 14.2711C10.3715 14.0036 10.5996 13.8064 10.8767 13.7602L13.5 13.323L14.8292 10.6646C14.9562 10.4105 15.2159 10.25 15.5 10.25ZM9.00011 2.93945L13.5608 7.50011L12.5001 8.56077L7.93945 4.00011L9.00011 2.93945ZM8.56077 12.5001L4.00011 7.93945L2.93945 9.00011L7.50011 13.5608L8.56077 12.5001Z" fill="currentcolor"/>
</svg>