<svg xmlns="http://www.w3.org/2000/svg" viewBox="0 0 24 24" fill="currentcolor" width="24" height="24">
  <path fill-rule="evenodd" clip-rule="evenodd" d="M11.9195 11L4.00029 3.08081L3.08105 4.00005L11.0003 11.9193L11.9195 11ZM16.0816 10.7094C15.9715 10.4892 15.7464 10.3501 15.5002 10.3501C15.254 10.3501 15.029 10.4892 14.9189 10.7094L13.5669 13.4134L10.8934 13.8589C10.6532 13.899 10.4556 14.0699 10.3812 14.3017C10.3069 14.5336 10.3684 14.7875 10.5406 14.9597L12.3108 16.7299L11.8568 19.9082C11.8226 20.1475 11.924 20.386 12.1202 20.5274C12.3163 20.6688 12.5747 20.6896 12.7909 20.5815L15.5002 19.2268L18.2095 20.5815C18.4258 20.6896 18.6842 20.6688 18.8803 20.5274C19.0764 20.386 19.1779 20.1475 19.1437 19.9082L18.6897 16.7299L20.4599 14.9597C20.632 14.7875 20.6935 14.5336 20.6192 14.3017C20.5449 14.0699 20.3473 13.899 20.1071 13.8589L17.4336 13.4134L16.0816 10.7094ZM14.5816 14.2908L15.5002 12.4535L16.4189 14.2908C16.5119 14.4768 16.6882 14.6071 16.8934 14.6413L18.6475 14.9336L17.5406 16.0405C17.3959 16.1851 17.3278 16.3895 17.3568 16.592L17.6813 18.8639L15.7909 17.9187C15.6079 17.8272 15.3925 17.8272 15.2095 17.9187L13.3191 18.8639L13.6437 16.592C13.6726 16.3895 13.6045 16.1851 13.4599 16.0405L12.353 14.9336L14.1071 14.6413C14.3122 14.6071 14.4886 14.4768 14.5816 14.2908ZM9.00029 3.08081L13.4195 7.50005L12.5003 8.41929L8.08105 4.00005L9.00029 3.08081ZM8.41953 12.5L4.00029 8.08081L3.08105 9.00005L7.50029 13.4193L8.41953 12.5Z" fill="currentcolor"/>
</svg>