<svg width="24" height="24" viewBox="0 0 24 24" fill="currentColor" xmlns="http://www.w3.org/2000/svg">
  <path d="M12.0005 2.25098C12.1376 2.25104 12.272 2.28827 12.3892 2.35938C12.5065 2.43055 12.6022 2.5326 12.6655 2.6543L22.4155 21.4043C22.4749 21.5186 22.5038 21.6467 22.4995 21.7754C22.4952 21.904 22.4579 22.0297 22.3911 22.1396C22.3243 22.2496 22.2298 22.3402 22.1177 22.4033C22.0056 22.4664 21.8792 22.4999 21.7505 22.5H2.25049C2.12169 22.4999 1.99456 22.4665 1.88232 22.4033C1.77022 22.3402 1.67568 22.2496 1.60889 22.1396C1.54212 22.0297 1.50484 21.904 1.50049 21.7754C1.49621 21.6467 1.52516 21.5185 1.58447 21.4043L11.3345 2.6543C11.3978 2.53265 11.4936 2.43055 11.6108 2.35938C11.7281 2.2882 11.8633 2.25098 12.0005 2.25098ZM3.48584 20.998L3.48779 21H20.5122L20.5132 20.998L12.0015 4.62793H11.9985L3.48584 20.998ZM11.9995 17.25C12.2978 17.25 12.5845 17.3683 12.7954 17.5791C13.0064 17.7901 13.1245 18.0766 13.1245 18.375C13.1245 18.5975 13.0587 18.815 12.9351 19C12.8114 19.1849 12.6357 19.3289 12.4302 19.4141C12.2247 19.4991 11.9988 19.5218 11.7808 19.4785C11.5627 19.4351 11.3619 19.3281 11.2046 19.1709C11.0473 19.0136 10.9404 18.8128 10.897 18.5947C10.8536 18.3765 10.8753 18.1499 10.9604 17.9443C11.0456 17.7389 11.1896 17.563 11.3745 17.4395C11.5594 17.3159 11.7772 17.2501 11.9995 17.25ZM12.7495 15.75H11.2495V9H12.7495V15.75Z"/>
</svg>
